{"glyphs":{"0":{"ha":751,"x_min":31,"x_max":733,"o":"m 285 614 q 46 258 104 458 q 34 208 38 232 q 31 161 31 183 q 80 28 31 74 q 208 -18 129 -18 q 245 -15 226 -18 q 283 -8 264 -12 q 427 53 360 13 q 556 161 494 94 q 713 422 669 282 q 728 490 722 458 q 733 550 733 522 q 683 689 733 643 q 551 728 633 735 q 424 688 483 721 q 384 671 406 681 q 342 650 363 661 q 306 629 322 639 q 285 614 290 619 m 544 692 q 692 531 692 693 q 674 418 692 474 q 517 151 629 272 q 249 10 385 10 q 150 51 188 10 q 117 109 128 76 q 106 186 106 142 q 108 222 106 204 q 113 260 110 240 q 137 339 119 297 q 181 425 154 381 q 315 590 236 524 q 544 692 435 692 z "},"1":{"ha":529,"x_min":-64,"x_max":683,"o":"m 272 -3 q 413 -1 372 -3 q 453 15 453 0 q 425 25 453 28 q 260 40 383 21 q 206 75 206 47 q 208 88 206 81 q 214 103 211 94 q 285 220 238 150 q 403 383 332 290 q 519 530 472 475 q 592 604 567 585 q 597 631 594 619 q 604 646 599 643 q 644 671 628 661 q 674 689 661 681 q 683 708 683 694 q 667 725 683 725 q 651 721 660 725 q 487 640 589 685 q 239 540 385 594 q 214 525 218 535 q 225 517 211 517 q 246 521 231 517 q 357 557 301 539 q 469 597 413 575 q 483 600 478 600 q 493 590 493 600 q 488 574 493 581 q 284 273 369 404 q 146 46 199 142 q 34 39 79 43 q -39 32 -11 35 q -64 1 -64 29 q -39 -11 -64 -14 q 228 -3 29 -3 l 272 -3 z "},"2":{"ha":690,"x_min":1,"x_max":733,"o":"m 549 0 q 581 15 581 -3 q 547 35 581 35 q 200 63 200 35 q 218 78 200 72 q 378 150 299 107 q 536 256 457 193 q 733 538 733 406 q 693 653 733 604 q 634 698 669 681 q 551 718 599 715 q 300 660 425 729 q 271 617 271 646 q 278 614 271 610 q 472 671 379 671 q 502 669 488 671 q 531 665 517 668 q 635 596 594 651 q 661 501 669 546 q 486 253 640 374 q 258 114 382 172 q 51 47 161 71 q 1 3 1 39 q 26 -12 1 -15 q 417 4 236 4 q 549 0 494 4 z "},"3":{"ha":660,"x_min":-81,"x_max":703,"o":"m 569 146 q 590 224 590 183 q 578 285 590 256 q 543 335 565 314 q 492 371 521 357 q 428 388 463 385 q 415 397 415 389 q 426 410 415 406 q 685 583 618 481 q 703 644 703 610 q 593 729 703 729 q 374 675 465 729 q 351 640 351 663 q 361 635 351 629 q 560 682 461 682 q 621 622 621 682 q 601 560 621 590 q 553 504 585 531 q 475 450 521 478 q 296 393 376 393 q 273 384 283 393 q 263 367 263 375 q 272 361 263 361 q 461 318 397 368 q 514 208 514 278 q 510 178 514 193 q 501 149 507 164 q 292 -33 454 40 q 56 -94 158 -94 q -25 -51 -24 -94 q -47 -21 -28 -21 q -71 -36 -61 -21 q -81 -67 -81 -51 q 57 -112 -81 -117 q 329 -47 178 -111 q 481 39 421 -8 q 569 146 542 86 z "},"4":{"ha":771,"x_min":25,"x_max":901,"o":"m 332 -125 q 410 47 339 -64 q 441 93 417 60 q 503 181 465 126 q 547 178 517 179 q 624 178 576 178 q 651 190 636 178 q 667 208 667 201 q 660 211 667 213 q 524 214 642 207 q 580 294 539 239 q 688 438 621 350 q 808 590 756 524 q 900 701 860 656 q 901 706 901 703 q 886 713 901 713 q 804 681 829 713 q 615 425 700 540 q 464 218 531 310 q 442 219 463 218 q 381 224 421 221 q 240 228 299 228 q 118 219 164 228 q 344 415 153 264 q 520 551 444 496 q 646 636 596 606 q 657 651 657 642 q 640 668 657 668 q 632 667 635 668 q 509 581 579 635 q 347 453 439 528 q 192 319 256 378 q 90 218 128 261 q 76 209 82 213 q 63 203 69 206 q 33 183 38 190 q 25 157 25 172 q 36 135 25 135 q 57 154 42 135 q 88 178 72 175 q 164 184 115 182 q 286 185 213 186 q 443 181 401 185 q 347 6 379 81 q 310 -121 314 -68 q 321 -142 307 -142 q 332 -125 329 -142 z "},"5":{"ha":667,"x_min":10,"x_max":846,"o":"m 564 107 q 604 210 604 154 q 563 303 604 265 q 503 345 539 325 q 418 386 467 365 q 371 406 407 392 q 271 443 335 419 q 265 475 250 449 q 414 650 314 557 q 610 655 510 653 q 814 657 710 657 q 846 676 846 657 q 832 685 846 685 q 667 685 739 685 q 547 686 596 685 q 531 694 538 689 q 519 701 524 699 q 477 717 493 713 q 454 721 461 721 q 424 707 433 721 q 339 602 385 661 q 240 468 293 543 q 208 407 208 424 q 224 388 208 393 q 514 258 438 333 q 544 183 544 228 q 475 57 544 101 q 264 7 393 7 q 76 65 128 7 q 60 72 72 72 q 26 60 42 72 q 10 32 10 47 q 79 -18 10 3 q 221 -39 146 -39 q 564 107 438 -39 z "},"6":{"ha":660,"x_min":96,"x_max":782,"o":"m 582 132 q 638 290 638 208 q 544 419 638 390 q 499 426 531 426 q 250 372 385 426 q 351 508 299 446 q 464 625 403 571 q 756 786 615 761 q 782 799 782 792 q 767 806 782 806 q 758 806 764 806 q 750 804 754 806 q 276 504 514 763 q 96 131 96 310 q 124 30 96 68 q 208 -28 151 -8 q 241 -35 224 -32 q 276 -39 258 -39 q 458 18 364 -39 q 529 72 499 43 q 582 132 560 100 m 514 374 q 567 257 567 349 q 561 206 567 232 q 543 156 556 181 q 428 33 507 82 q 275 -15 346 -15 q 194 11 225 -15 q 156 119 156 44 q 239 351 156 251 q 327 380 281 371 q 425 389 374 389 q 514 374 482 389 z "},"7":{"ha":701,"x_min":24,"x_max":782,"o":"m 74 -128 q 133 7 65 -90 q 354 256 201 104 l 767 658 q 782 696 782 674 q 753 729 782 735 q 727 717 738 722 q 711 707 717 711 q 683 704 690 703 q 462 699 560 701 q 292 696 364 697 q 235 675 269 692 q 193 639 193 656 q 204 628 193 628 q 221 635 214 628 q 265 651 247 644 q 296 658 283 657 q 446 661 326 663 q 626 653 581 660 q 653 636 653 649 q 647 625 653 629 q 28 -125 44 -14 q 46 -157 24 -157 q 67 -148 57 -157 q 74 -128 76 -139 z "},"8":{"ha":811,"x_min":50,"x_max":908,"o":"m 668 218 q 651 291 665 250 q 614 382 638 332 q 543 515 593 428 q 908 769 908 728 q 904 775 908 775 q 876 758 897 775 q 813 707 853 736 q 714 642 772 678 q 610 581 656 606 q 531 540 564 556 q 506 640 506 594 q 569 761 506 713 q 617 783 589 776 q 669 789 646 789 q 740 768 711 789 q 758 756 749 763 q 775 744 767 750 q 781 742 778 743 q 789 740 785 740 q 799 768 801 740 q 767 801 801 788 q 706 815 736 818 q 639 808 672 814 q 569 786 606 801 q 457 714 493 758 q 433 644 433 688 q 474 513 433 589 q 333 426 390 463 q 240 365 275 389 q 126 268 169 315 q 65 179 83 221 q 50 99 50 138 q 66 23 50 56 q 110 -33 82 -10 q 175 -67 138 -56 q 256 -79 213 -79 q 531 17 390 -79 q 668 218 674 118 m 117 169 q 485 483 193 324 q 534 404 515 435 q 560 361 553 374 q 592 281 582 318 q 601 211 601 244 q 454 -8 601 75 q 244 -62 329 -76 q 97 90 97 -37 q 117 169 97 133 z "},"9":{"ha":782,"x_min":15,"x_max":725,"o":"m 229 675 q 169 506 169 593 q 261 381 169 410 q 290 375 274 378 q 325 372 306 372 q 560 424 456 372 q 333 157 469 269 q 43 11 186 36 q 15 -4 15 4 q 31 -11 15 -11 q 46 -10 40 -11 q 290 88 169 13 q 532 294 410 164 q 725 676 725 508 q 611 839 725 801 q 540 850 575 850 q 356 790 454 850 q 283 735 315 764 q 229 675 251 707 m 571 443 q 388 403 490 403 q 290 424 325 403 q 242 532 242 453 q 249 590 242 560 q 271 651 256 619 q 317 720 288 689 q 388 778 347 751 q 539 826 468 826 q 622 799 590 826 q 661 689 661 763 q 571 443 661 553 z "}," ":{"ha":457,"x_min":0,"x_max":0,"o":""},"D":{"ha":1200,"x_min":18,"x_max":1389,"o":"m 931 981 q 1195 824 1099 925 q 1315 603 1292 722 q 1288 363 1338 485 q 1117 142 1239 240 q 1010 74 1069 104 q 889 23 951 44 q 763 -9 826 1 q 647 -17 700 -19 q 552 1 593 -15 q 493 50 511 17 q 481 94 482 68 q 490 140 481 121 q 536 232 504 175 q 610 357 568 289 q 699 498 651 425 q 792 638 746 571 q 877 761 838 706 q 943 850 917 817 q 945 865 950 860 q 929 869 940 869 q 907 865 919 869 q 888 851 894 860 q 832 781 864 825 q 764 683 800 738 q 689 566 728 629 q 613 438 650 503 q 540 309 575 374 q 478 188 506 244 q 476 182 475 182 q 474 182 479 182 q 440 108 413 178 q 444 97 443 99 q 442 88 444 94 q 418 20 431 56 q 400 -43 406 -15 q 405 -72 394 -72 q 419 -47 415 -71 q 434 3 426 -18 q 450 46 442 24 q 460 58 457 58 q 469 46 464 57 q 542 -33 493 -10 q 651 -56 590 -56 q 784 -37 714 -56 q 919 7 854 -19 q 1041 64 985 33 q 1132 119 1097 94 q 1285 272 1226 189 q 1367 441 1344 354 q 1375 615 1389 528 q 1309 778 1361 701 q 1167 919 1257 856 q 949 1025 1078 983 q 810 1051 894 1042 q 628 1058 725 1061 q 433 1039 532 1056 q 250 985 333 1022 q 108 890 167 949 q 33 749 49 832 q 63 574 18 661 q 203 394 108 486 q 238 377 231 369 q 221 413 246 385 q 162 483 194 442 q 104 572 129 524 q 69 673 79 619 q 78 781 58 726 q 160 901 103 853 q 295 977 218 949 q 461 1016 372 1006 q 637 1024 550 1026 q 801 1010 724 1022 q 931 981 878 999 z "},"E":{"ha":1118,"x_min":38,"x_max":1335,"o":"m 1332 885 q 1301 922 1332 913 q 1148 943 1233 933 q 960 954 1063 953 q 933 964 942 954 q 921 985 925 974 q 913 1002 917 996 q 900 1003 908 1008 q 876 983 888 993 q 851 957 865 972 q 680 944 761 951 q 524 920 599 936 q 378 876 449 904 q 242 806 308 849 q 88 657 139 736 q 42 469 38 578 q 50 393 42 432 q 71 317 58 354 q 100 248 83 281 q 136 189 117 215 q 156 178 147 174 q 156 200 165 183 q 94 329 115 261 q 76 469 72 397 q 138 642 83 568 q 265 765 192 715 q 394 827 325 801 q 535 869 464 853 q 674 892 606 885 q 801 900 743 900 q 651 706 724 806 q 513 507 579 607 q 487 502 501 504 q 457 498 472 500 q 429 493 442 496 q 411 485 417 490 q 404 469 404 478 q 408 455 404 463 q 417 441 411 447 q 426 432 422 435 q 446 419 433 421 q 469 418 458 418 q 435 353 453 393 q 401 268 417 313 q 377 177 386 224 q 371 93 368 131 q 401 10 375 43 q 461 -41 428 -22 q 527 -67 494 -60 q 578 -75 560 -75 q 687 -64 628 -75 q 806 -32 746 -53 q 926 19 867 -11 q 1035 90 985 50 q 1042 106 1044 96 q 1025 107 1040 115 q 911 52 972 76 q 790 10 850 28 q 676 -18 731 -7 q 579 -32 621 -29 q 520 -31 550 -35 q 466 -12 490 -26 q 426 26 442 1 q 411 89 411 51 q 425 188 413 139 q 456 281 438 236 q 494 366 474 326 q 533 438 515 406 q 601 451 560 444 q 691 462 642 457 q 793 471 740 467 q 897 478 846 475 q 994 483 949 481 q 1074 485 1040 485 q 1094 497 1094 485 q 1074 513 1093 510 q 956 518 1019 517 q 826 519 892 519 q 696 515 761 518 q 575 508 631 513 q 719 713 639 608 q 883 900 799 817 q 988 897 931 900 q 1102 890 1046 894 q 1208 880 1158 886 q 1288 868 1257 874 q 1319 865 1303 863 q 1332 885 1335 867 z "},"F":{"ha":1208,"x_min":14,"x_max":1444,"o":"m 1364 1019 q 1391 994 1379 1007 q 1411 963 1403 982 q 1410 876 1439 904 q 1308 847 1382 847 q 1125 875 1236 847 q 876 957 1014 903 q 728 1009 807 983 q 569 1051 650 1035 q 409 1072 488 1068 q 262 1059 331 1075 q 140 1003 193 1043 q 56 892 86 963 q 18 725 22 814 q 38 549 14 636 q 113 388 61 463 q 244 263 165 313 q 340 240 283 239 q 451 265 397 242 q 547 329 506 288 q 596 428 588 371 q 586 433 596 435 q 575 428 576 432 q 519 335 558 372 q 430 280 479 297 q 327 267 381 263 q 228 299 274 271 q 128 402 168 338 q 67 542 88 467 q 47 697 46 618 q 70 844 47 776 q 141 958 93 911 q 263 1017 189 1004 q 465 1021 367 1032 q 656 985 563 1010 q 839 926 750 960 q 1013 865 928 893 q 1178 822 1097 838 q 1338 815 1260 806 q 1413 848 1388 821 q 1442 909 1439 875 q 1427 976 1444 943 q 1375 1029 1410 1010 q 1356 1035 1364 1036 q 1364 1019 1349 1033 m 989 854 q 936 808 969 838 q 867 763 903 779 q 858 757 861 761 q 856 749 856 753 q 860 745 856 746 q 874 749 864 744 q 906 758 893 757 q 904 740 918 760 q 844 636 872 688 q 793 540 815 585 q 777 517 785 521 q 754 508 769 513 q 707 493 722 501 q 689 469 692 485 q 690 463 688 464 q 697 465 692 463 q 708 469 701 467 q 724 471 715 471 q 747 465 736 471 q 753 444 758 460 q 718 335 735 396 q 690 213 701 274 q 672 102 678 153 q 669 25 665 51 q 689 3 672 -4 q 714 39 706 10 q 713 52 715 49 q 708 58 711 56 q 703 63 706 60 q 700 74 700 65 q 705 158 697 111 q 726 253 713 204 q 756 352 739 303 q 790 444 774 401 q 801 466 794 460 q 824 472 808 472 q 894 474 850 474 q 985 476 939 475 q 1072 479 1032 476 q 1131 488 1113 482 q 1151 496 1150 490 q 1132 501 1153 501 q 1079 501 1114 501 q 1003 500 1044 500 q 919 501 961 500 q 843 508 876 503 q 826 514 828 511 q 829 531 824 517 q 876 624 849 578 q 931 708 904 669 q 979 773 957 746 q 1010 811 1001 800 q 1019 831 1018 821 q 1015 849 1019 842 q 1004 858 1011 856 q 989 854 997 861 z "},"G":{"ha":1190,"x_min":44,"x_max":1508,"o":"m 339 -126 q 286 -257 286 -186 q 340 -376 286 -331 q 504 -424 400 -426 q 739 -326 599 -421 q 1054 94 865 -244 q 1125 117 1117 113 q 1149 145 1138 132 q 1167 169 1160 158 q 1128 244 1151 221 q 1223 433 1189 365 q 1267 517 1257 500 q 1286 523 1278 521 q 1297 528 1294 525 q 1360 665 1335 567 q 1361 697 1364 678 q 1350 715 1358 715 q 1343 711 1347 715 q 1305 678 1321 692 q 1278 654 1289 664 q 1189 481 1244 611 q 1182 472 1183 474 q 1041 367 1133 425 q 814 243 949 310 q 526 124 653 163 q 306 88 400 86 q 130 130 188 89 q 72 250 72 171 q 93 364 72 299 q 532 806 172 601 q 1208 1006 883 1006 q 1239 1006 1224 1006 q 1269 1004 1254 1006 q 1438 931 1376 993 q 1467 894 1453 914 q 1492 847 1481 874 q 1501 836 1496 838 q 1508 842 1508 835 q 1504 856 1508 849 q 1418 993 1479 938 q 1265 1057 1353 1053 q 546 865 928 1078 q 63 371 151 644 q 49 315 53 343 q 44 263 44 288 q 122 104 44 158 q 206 66 158 79 q 311 56 253 53 q 508 88 399 57 q 753 183 618 119 q 960 294 864 236 q 1144 415 1057 353 q 1161 426 1160 426 q 1163 424 1163 426 q 1156 403 1163 418 q 1076 235 1111 308 q 1018 107 1042 163 q 783 60 875 81 q 650 29 692 40 q 339 -126 421 -36 m 1006 86 q 729 -307 849 -212 q 501 -394 625 -390 q 347 -360 403 -396 q 300 -268 300 -322 q 357 -150 300 -203 q 608 -18 436 -81 q 735 21 667 3 q 882 58 803 39 l 1006 86 m 1119 226 q 1135 181 1138 208 q 1117 142 1133 154 q 1090 127 1101 133 q 1067 118 1078 121 q 1097 181 1083 154 q 1119 226 1111 207 z "},"H":{"ha":1517,"x_min":17,"x_max":1849,"o":"m 1847 1050 q 1845 1070 1849 1058 q 1835 1090 1842 1082 q 1819 1102 1828 1099 q 1804 1099 1811 1106 q 1770 1064 1790 1083 q 1728 1022 1750 1044 q 1684 977 1706 1000 q 1646 935 1663 954 q 1644 924 1640 929 q 1654 921 1647 919 q 1669 920 1665 925 q 1667 907 1674 915 q 1601 815 1639 871 q 1524 697 1564 760 q 1448 571 1485 635 q 1386 453 1411 507 q 1303 451 1353 451 q 1200 452 1253 451 q 1099 453 1147 453 q 1021 453 1051 454 q 1056 511 1038 478 q 1089 582 1074 544 q 1117 658 1104 619 q 1133 728 1129 696 q 1128 865 1144 806 q 1068 963 1111 925 q 957 1012 1025 1000 q 799 1006 889 1024 q 649 953 729 990 q 488 863 568 917 q 337 740 408 808 q 215 596 265 672 q 209 574 208 588 q 214 550 210 561 q 226 533 218 539 q 242 532 233 526 q 278 561 260 543 q 307 594 296 579 q 315 610 313 603 q 318 635 318 617 q 551 845 424 757 q 813 967 679 933 q 951 978 893 986 q 1044 940 1010 971 q 1090 856 1079 908 q 1086 731 1100 803 q 1065 665 1079 703 q 1031 588 1050 626 q 992 513 1013 549 q 951 453 971 476 q 886 451 918 450 q 831 447 854 451 q 814 436 817 446 q 815 415 811 426 q 829 395 819 404 q 851 386 839 386 q 885 390 867 386 q 915 394 904 393 q 784 225 860 313 q 623 58 708 138 q 446 -83 538 -21 q 268 -176 354 -146 q 181 -199 221 -192 q 113 -199 142 -206 q 72 -172 85 -193 q 63 -108 58 -150 q 75 -56 65 -82 q 98 -5 85 -29 q 126 40 111 19 q 153 75 140 60 q 157 91 164 86 q 139 85 150 96 q 103 48 122 69 q 67 1 85 26 q 38 -51 50 -24 q 21 -106 25 -79 q 31 -164 17 -136 q 76 -209 44 -192 q 156 -228 107 -226 q 274 -208 206 -229 q 472 -112 375 -175 q 660 31 569 -50 q 833 208 750 113 q 989 403 915 303 q 1080 412 1026 408 q 1188 417 1133 415 q 1293 421 1243 419 q 1374 422 1343 422 q 1338 334 1356 385 q 1306 231 1319 283 q 1288 130 1293 179 q 1289 43 1282 81 q 1297 24 1290 35 q 1313 4 1304 13 q 1331 -8 1321 -4 q 1349 -10 1340 -12 q 1368 7 1363 0 q 1371 22 1374 17 q 1358 22 1368 28 q 1332 22 1347 15 q 1317 47 1317 28 q 1328 151 1315 96 q 1358 259 1340 207 q 1396 354 1376 311 q 1428 422 1415 397 q 1462 424 1447 422 q 1489 424 1476 425 q 1505 425 1499 421 q 1513 434 1511 429 q 1513 444 1515 439 q 1500 453 1510 450 q 1474 454 1489 456 q 1443 453 1458 453 q 1521 599 1475 521 q 1620 756 1567 676 q 1732 910 1674 835 q 1847 1050 1790 986 z "},"I":{"ha":774,"x_min":51,"x_max":1054,"o":"m 1051 1026 q 1051 1039 1054 1032 q 1041 1051 1047 1046 q 1026 1056 1035 1056 q 1013 1051 1018 1057 q 982 1035 1004 1042 q 795 985 888 1014 q 621 920 703 956 q 469 845 539 885 q 353 765 400 806 q 267 674 297 718 q 239 581 236 629 q 249 525 240 554 q 269 481 257 496 q 278 478 275 474 q 279 489 282 482 q 265 529 272 504 q 264 582 258 554 q 309 673 275 636 q 378 738 343 710 q 496 815 429 776 q 638 885 563 853 q 797 944 714 918 q 964 986 881 971 q 893 827 933 913 q 806 652 853 742 q 707 475 760 563 q 599 310 654 388 q 485 169 543 232 q 368 65 426 106 q 299 31 335 43 q 231 15 264 18 q 172 18 199 13 q 126 39 144 24 q 95 73 110 53 q 74 117 81 93 q 61 126 71 129 q 56 111 51 124 q 71 61 61 88 q 96 21 81 35 q 153 -4 119 3 q 226 -8 188 -11 q 306 10 264 -4 q 385 49 347 24 q 575 222 482 111 q 753 465 668 332 q 914 744 839 599 q 1051 1026 989 890 z "},"J":{"ha":922,"x_min":-218,"x_max":1242,"o":"m 1239 1033 q 1239 1043 1242 1038 q 1230 1053 1236 1049 q 1217 1058 1224 1057 q 1204 1054 1210 1060 q 1183 1035 1196 1044 q 1150 1024 1169 1026 q 1078 1006 1126 1015 q 968 981 1031 997 q 835 940 906 965 q 694 876 764 915 q 562 780 625 836 q 453 644 499 724 q 413 548 426 599 q 399 447 400 497 q 409 352 399 397 q 439 272 419 307 q 451 263 446 260 q 450 278 457 267 q 428 365 429 319 q 437 456 426 411 q 467 542 447 501 q 507 617 486 583 q 628 766 557 700 q 783 879 699 832 q 960 951 867 926 q 1144 975 1053 975 q 1075 822 1115 907 q 990 647 1035 738 q 897 464 944 557 q 804 286 849 371 q 642 227 729 263 q 463 145 554 192 q 278 43 371 99 q 104 -74 186 -12 q -47 -203 22 -136 q -162 -337 -117 -269 q -211 -449 -204 -399 q -198 -533 -218 -500 q -133 -579 -178 -567 q -26 -576 -89 -592 q 136 -520 61 -556 q 277 -439 211 -485 q 401 -339 343 -393 q 508 -226 458 -285 q 689 15 607 -110 q 847 269 771 139 q 871 278 858 274 q 889 285 883 283 q 901 294 900 288 q 890 301 901 301 q 878 310 881 301 q 882 331 876 319 q 963 483 917 397 q 1056 662 1008 568 q 1151 851 1104 756 q 1239 1033 1199 946 m 793 258 q 726 151 765 214 q 642 22 686 88 q 556 -105 599 -44 q 478 -204 513 -165 q 378 -310 432 -257 q 263 -409 325 -362 q 128 -492 200 -456 q -28 -551 56 -529 q -118 -558 -81 -565 q -172 -526 -156 -551 q -178 -458 -187 -501 q -126 -357 -168 -415 q 56 -161 -53 -256 q 290 14 165 -67 q 546 157 415 94 q 793 258 676 219 z "},"K":{"ha":1008,"x_min":47,"x_max":1497,"o":"m 515 264 q 839 868 826 744 q 835 911 842 888 q 813 963 829 935 q 721 1036 779 1032 q 563 1003 656 1039 q 353 889 471 968 q 53 578 104 729 q 51 569 51 575 q 50 561 51 564 q 51 531 47 544 q 64 507 56 518 q 82 488 72 496 q 99 474 92 479 q 122 472 106 469 q 161 478 138 474 q 176 488 176 478 q 158 497 176 493 q 104 507 122 497 q 76 540 76 517 q 82 568 76 551 q 364 853 128 700 q 573 967 482 932 q 729 997 664 1003 q 808 917 808 993 q 800 871 808 892 q 571 410 754 736 q 430 167 489 264 q 333 18 371 71 q 331 10 331 15 q 354 -3 331 -3 q 374 6 369 -3 q 508 172 401 51 q 599 270 564 236 q 651 311 635 304 q 1086 -371 875 -275 q 1204 -399 1143 -399 q 1439 -290 1322 -399 q 1450 -271 1450 -278 q 1446 -264 1450 -264 q 1425 -276 1440 -264 q 1208 -379 1331 -379 q 1101 -349 1151 -379 q 963 -216 1029 -306 q 831 11 896 -126 q 773 150 806 67 q 700 351 740 233 q 1018 606 917 538 q 1276 750 1163 706 q 1474 789 1390 794 q 1497 796 1497 785 q 1474 808 1497 806 q 1049 656 1319 819 q 866 531 957 597 q 683 388 775 465 q 660 399 672 404 q 638 342 646 390 q 535 247 571 283 q 513 233 518 233 q 506 242 506 233 q 508 252 506 246 q 515 264 510 258 z "},"L":{"ha":1099,"x_min":29,"x_max":1874,"o":"m 32 217 q 146 42 38 140 q 363 -62 256 -65 q 464 -15 415 -60 q 536 92 515 28 q 1133 -178 881 -89 q 1544 -262 1385 -267 q 1615 -257 1579 -261 q 1686 -242 1650 -253 q 1739 -224 1718 -233 q 1772 -208 1760 -215 q 1843 -106 1811 -179 q 1874 32 1874 -29 q 1865 57 1874 57 q 1856 33 1860 57 q 1844 -33 1853 0 q 1821 -94 1835 -65 q 1790 -146 1807 -122 q 1754 -183 1772 -169 q 1542 -247 1668 -250 q 1147 -153 1381 -243 q 972 -76 1064 -119 q 776 21 879 -33 q 666 82 721 51 q 556 142 611 113 q 640 350 606 268 q 693 474 674 432 q 935 888 828 768 q 1121 990 1033 999 q 1257 918 1189 985 q 1318 847 1292 885 q 1361 764 1344 808 q 1375 749 1367 749 q 1383 761 1383 749 q 1382 767 1383 764 q 1379 775 1381 771 q 1274 954 1342 892 q 1124 1014 1207 1017 q 1064 1003 1096 1014 q 994 972 1032 992 q 943 939 964 954 q 907 908 922 924 q 794 751 854 853 q 669 500 735 650 q 531 156 614 379 q 400 217 446 196 q 346 242 354 238 q 143 296 214 296 q 128 295 136 296 q 113 293 119 294 q 90 283 101 290 q 64 265 79 276 q 32 217 29 238 m 364 -44 q 210 22 293 -43 q 82 183 121 92 q 75 214 75 201 q 128 244 75 251 q 510 103 256 225 q 364 -44 467 -47 z "},"M":{"ha":1636,"x_min":29,"x_max":1710,"o":"m 671 575 q 804 699 718 633 q 960 778 906 778 q 992 732 997 778 q 906 475 974 636 q 718 85 839 314 q 716 78 717 81 q 715 74 715 76 q 738 60 715 60 q 781 78 767 60 q 1204 556 964 319 q 1601 857 1478 825 q 1640 863 1622 863 q 1682 832 1682 863 q 1678 809 1682 822 q 1663 781 1674 796 q 1535 567 1593 672 q 1426 358 1476 461 q 1304 -25 1303 97 q 1326 -93 1304 -60 q 1371 -119 1347 -126 q 1430 -93 1399 -111 q 1497 -43 1461 -75 q 1588 51 1558 8 q 1599 75 1599 67 q 1594 79 1599 79 q 1575 63 1588 79 q 1478 -28 1543 22 q 1416 -69 1443 -54 q 1369 -89 1389 -83 q 1326 -44 1326 -99 q 1326 -35 1326 -40 q 1328 -25 1326 -31 q 1493 396 1353 140 q 1573 533 1521 446 q 1703 743 1625 619 q 1710 774 1710 750 q 1690 851 1710 813 q 1632 892 1668 894 q 1222 606 1513 885 q 856 200 989 376 q 836 186 847 186 q 826 210 815 186 q 1019 729 999 565 q 1001 778 1022 756 q 953 801 981 801 q 707 647 883 801 q 782 848 756 761 q 811 993 808 935 q 768 1065 813 1031 q 682 1097 724 1099 q 432 994 592 1090 q 157 783 275 901 q 29 567 29 653 q 46 515 29 539 q 78 486 63 492 q 125 486 103 478 q 147 499 147 493 q 128 501 147 504 q 81 510 117 499 q 46 544 46 522 q 296 863 46 667 q 686 1068 536 1051 q 759 1057 738 1074 q 781 993 781 1040 q 743 826 781 943 q 697 703 722 764 q 642 585 672 643 q 506 445 571 517 q 382 294 442 374 q 232 17 232 99 q 243 -14 232 -14 q 286 4 256 -14 q 312 19 301 11 q 326 32 322 26 q 671 575 481 199 m 310 49 q 289 33 299 33 q 286 71 271 33 q 438 326 324 176 q 614 525 533 456 q 478 285 583 449 q 384 144 426 203 q 310 49 342 85 z "},"N":{"ha":1261,"x_min":29,"x_max":1357,"o":"m 763 1018 q 628 996 703 1021 q 461 919 553 971 q 306 813 379 871 q 168 685 233 756 q 33 457 38 546 q 96 353 29 365 q 179 361 131 346 q 196 372 196 365 q 179 378 196 381 q 138 374 160 374 q 96 379 117 375 q 60 424 60 386 q 199 671 60 528 q 336 793 263 738 q 497 900 410 849 q 767 992 671 997 q 868 868 868 983 q 865 828 868 849 q 854 785 861 807 q 457 40 794 596 q 452 28 454 33 q 450 19 450 24 q 468 4 450 4 q 503 26 488 4 q 562 113 524 61 q 657 236 600 164 q 793 397 725 322 q 932 540 861 472 q 1231 756 1107 703 q 1281 768 1260 768 q 1313 739 1313 768 q 1297 686 1313 715 l 1096 278 q 1042 154 1074 232 q 974 -16 1010 76 q 904 -206 939 -108 q 842 -390 869 -304 q 797 -538 814 -475 q 778 -624 779 -601 q 782 -656 778 -639 q 794 -686 786 -672 q 814 -710 803 -700 q 840 -719 825 -719 q 951 -661 878 -719 q 1043 -567 1019 -606 q 1056 -543 1056 -549 q 1053 -537 1056 -540 q 1032 -554 1049 -537 q 829 -697 888 -697 q 807 -656 807 -697 q 810 -641 807 -649 q 810 -626 813 -633 q 813 -541 799 -604 q 858 -392 828 -478 q 928 -206 888 -306 q 1011 -12 969 -107 q 1091 161 1053 82 q 1154 286 1129 240 q 1253 469 1203 379 q 1353 651 1303 558 q 1356 665 1356 657 q 1357 682 1357 674 q 1354 720 1357 701 q 1332 761 1351 739 q 1303 790 1317 779 q 1269 796 1289 800 q 922 556 1147 776 q 770 400 839 475 q 644 253 701 325 q 622 231 632 231 q 617 236 617 231 q 626 261 617 246 q 801 576 738 447 q 883 779 864 704 q 890 843 890 811 q 858 961 890 917 q 763 1018 824 1015 z "},"O":{"ha":1090,"x_min":57,"x_max":1226,"o":"m 74 443 q 57 322 57 381 q 169 82 57 174 q 411 -4 268 3 q 736 67 565 -12 q 1049 294 924 153 q 1165 471 1121 379 q 1224 665 1208 563 q 1226 681 1225 672 q 1226 700 1226 690 q 1146 939 1226 825 q 888 1104 1051 1079 q 783 1113 838 1113 q 521 1063 647 1113 q 306 911 389 1007 q 233 746 233 824 q 239 706 233 724 q 74 443 108 578 m 938 989 q 899 994 918 992 q 858 996 879 996 q 518 907 701 996 q 258 732 357 831 q 256 760 256 746 q 322 900 256 829 q 522 1029 397 979 q 789 1083 653 1083 q 829 1082 808 1083 q 869 1078 850 1081 q 1017 1031 953 1064 q 1126 942 1082 999 q 1204 708 1204 840 q 1071 378 1204 542 q 933 240 1010 301 q 761 128 856 178 q 411 39 575 31 q 168 122 256 46 q 81 326 81 197 q 85 383 81 354 q 96 442 89 411 q 157 575 113 497 q 202 639 181 613 q 243 683 224 665 q 307 600 258 639 q 361 570 333 581 q 419 558 389 560 q 442 568 442 554 q 426 578 442 578 q 318 617 369 578 q 279 658 294 636 q 261 703 264 679 q 490 871 315 781 q 858 978 692 978 q 936 969 900 978 q 951 979 951 965 q 938 989 951 988 z "},"P":{"ha":1067,"x_min":51,"x_max":1299,"o":"m 736 371 q 707 344 707 356 q 721 329 707 336 q 757 317 735 322 q 808 310 779 313 q 869 307 838 307 q 1136 353 1025 307 q 1299 569 1299 417 q 1121 893 1299 739 q 981 1003 1054 954 q 824 1094 907 1053 q 605 1177 714 1147 q 383 1213 496 1207 q 153 1161 251 1221 q 56 1032 67 1108 q 51 986 51 1011 q 72 846 51 914 q 138 729 97 765 q 151 718 144 718 q 154 721 151 718 q 147 738 154 726 q 85 978 85 831 q 89 1032 85 1004 q 335 1190 117 1190 q 535 1167 435 1190 q 743 1094 636 1143 q 928 990 840 1050 q 1094 856 1015 929 q 1240 560 1240 715 q 1131 378 1240 433 q 1023 339 1083 353 q 889 325 963 325 q 765 347 810 325 q 736 371 742 354 m 228 -56 q 269 -62 246 -62 q 320 -57 296 -62 q 365 -39 344 -51 q 690 381 518 43 q 872 804 794 583 q 874 840 876 814 q 867 865 871 865 q 863 860 868 865 q 617 340 789 639 q 331 -24 428 13 q 281 -33 303 -31 q 243 -28 260 -35 q 179 18 203 -11 q 161 31 167 31 q 154 22 154 31 q 163 1 154 14 q 228 -56 186 -35 z "},"Q":{"ha":1481,"x_min":40,"x_max":1664,"o":"m 567 774 q 572 792 569 783 q 576 807 574 800 q 768 983 618 907 q 1121 1063 929 1067 q 1302 1028 1222 1058 q 1442 936 1382 997 q 1556 660 1556 825 q 1513 472 1556 567 q 1136 99 1404 233 q 922 17 1028 46 q 707 -14 815 -11 q 376 235 376 -22 q 385 331 376 282 q 451 496 401 407 q 586 686 500 585 q 867 936 736 867 q 886 957 886 947 q 876 963 886 963 q 854 954 867 963 q 690 844 767 907 q 540 699 614 781 q 351 347 385 517 q 347 305 349 326 q 344 261 344 283 q 407 69 344 121 q 344 97 381 83 q 264 125 308 111 q 150 154 175 156 q 89 121 133 153 q 43 69 44 83 q 47 36 40 54 q 74 -6 54 18 q 132 -54 108 -54 q 131 -31 154 -54 q 101 2 111 -14 q 89 29 92 18 q 82 56 82 40 q 131 93 82 93 q 148 92 138 93 q 169 88 158 90 q 334 32 239 69 q 556 -67 429 -6 q 839 -208 736 -157 q 974 -272 942 -258 q 1358 -371 1204 -371 q 1398 -369 1379 -371 q 1436 -364 1417 -368 q 1492 -342 1460 -361 q 1564 -289 1524 -322 q 1660 -168 1651 -218 q 1650 -85 1664 -136 q 1638 -42 1643 -58 q 1625 -17 1632 -25 q 1610 0 1618 -4 q 1606 -4 1606 1 q 1605 -12 1604 -8 q 1607 -24 1606 -17 q 1621 -118 1621 -71 q 1600 -216 1621 -175 q 1539 -287 1579 -257 q 1376 -336 1474 -333 q 1221 -311 1315 -339 q 996 -226 1126 -283 q 857 -160 944 -203 q 644 -54 769 -118 q 740 -62 690 -62 q 985 -22 863 -62 q 1232 103 1107 19 q 1435 276 1358 186 q 1543 464 1511 365 q 1574 654 1574 560 q 1457 963 1574 842 q 1121 1097 1336 1092 q 768 1014 936 1106 q 636 923 689 974 q 556 814 583 872 q 550 774 547 792 q 556 760 553 760 q 567 774 560 760 z "},"R":{"ha":1139,"x_min":40,"x_max":1319,"o":"m 632 301 q 711 96 632 251 q 831 -92 790 -60 q 935 -137 890 -137 q 992 -122 965 -137 q 1003 -112 1001 -118 q 999 -108 1004 -111 q 992 -109 996 -108 q 983 -111 989 -110 q 947 -118 965 -118 q 858 -71 906 -118 q 763 93 814 -26 q 704 269 715 204 q 711 288 701 288 q 825 301 767 290 q 947 332 883 313 q 1133 408 1061 367 q 1319 678 1319 513 q 1171 939 1319 824 q 890 1067 1069 1018 q 525 1114 718 1114 q 190 1067 338 1114 q 40 893 40 1018 q 82 779 40 825 q 97 768 93 768 q 101 769 101 768 q 97 781 101 769 q 81 814 92 792 q 61 897 61 857 q 197 1047 61 1006 q 349 1079 269 1068 q 515 1090 428 1090 q 876 1040 706 1090 q 1146 906 1051 990 q 1267 663 1267 801 q 1121 428 1267 517 q 914 340 1038 376 q 801 315 851 324 q 707 310 750 307 q 674 324 681 318 q 660 331 668 331 q 632 301 632 331 m 875 790 q 861 819 882 797 q 847 826 854 826 q 836 814 836 826 q 839 807 836 813 q 832 774 847 789 q 386 49 365 115 q 415 32 390 32 q 440 46 442 32 q 481 174 436 82 q 625 415 526 265 q 749 603 686 510 q 875 790 813 696 z "},"S":{"ha":874,"x_min":57,"x_max":1235,"o":"m 179 281 q 57 146 57 229 q 171 18 57 57 q 354 -10 247 -10 q 494 4 426 -10 q 625 44 561 18 q 774 246 774 107 q 735 379 774 314 q 819 383 750 382 q 869 392 869 385 q 854 397 869 397 q 776 396 811 396 q 719 396 743 396 q 573 587 636 507 q 469 717 510 667 q 401 885 401 818 q 485 1026 401 968 q 907 1150 650 1150 q 996 1146 954 1150 q 1074 1131 1038 1142 q 1169 1069 1133 1114 q 1208 950 1208 1019 q 1205 906 1208 926 q 1203 881 1201 886 q 1208 881 1204 874 q 1219 900 1214 886 q 1231 941 1228 921 q 1235 981 1235 961 q 1200 1093 1235 1040 q 1113 1156 1163 1138 q 944 1176 1046 1176 q 463 1044 668 1176 q 365 889 365 982 q 446 699 365 804 q 569 531 514 607 q 672 393 625 456 q 399 352 522 381 q 179 281 276 324 m 683 374 q 731 247 731 317 q 607 79 731 142 q 478 33 544 49 q 338 17 411 17 q 254 21 294 17 q 174 36 214 25 q 117 67 142 44 q 81 128 81 99 q 199 250 81 190 q 469 339 304 306 q 562 356 508 347 q 683 374 615 365 z "},"T":{"ha":992,"x_min":35,"x_max":1501,"o":"m 1415 942 q 1442 947 1431 939 q 1467 965 1453 954 q 1484 987 1478 975 q 1496 1006 1490 999 q 1501 1036 1501 1019 q 1494 1067 1500 1053 q 1483 1094 1489 1082 q 1472 1114 1476 1107 q 1449 1135 1457 1139 q 1453 1103 1442 1131 q 1462 1078 1460 1088 q 1467 1054 1464 1068 q 1462 1029 1469 1042 q 1431 1017 1454 1017 q 1306 1024 1383 1017 q 1132 1042 1228 1031 q 1189 1126 1164 1086 q 1191 1158 1200 1143 q 1163 1171 1182 1174 q 1113 1148 1142 1167 q 1067 1115 1083 1129 q 1054 1101 1054 1108 q 1069 1100 1054 1094 q 1088 1106 1078 1104 q 1104 1110 1097 1108 q 1112 1105 1110 1111 q 1108 1093 1114 1099 q 1094 1074 1101 1086 q 1075 1047 1086 1063 q 840 1072 963 1060 q 603 1093 717 1085 q 396 1103 490 1101 q 246 1093 301 1104 q 170 1067 213 1086 q 94 1017 128 1047 q 48 947 61 988 q 61 860 35 907 q 122 765 89 808 q 204 674 156 722 q 220 660 213 665 q 231 656 228 656 q 229 665 233 657 q 213 689 225 672 q 144 785 181 728 q 85 897 107 842 q 81 974 65 943 q 126 1023 96 1004 q 193 1051 156 1042 q 258 1063 231 1060 q 428 1067 332 1071 q 628 1052 524 1063 q 841 1026 733 1042 q 1047 996 949 1011 q 961 840 1011 932 q 858 644 911 749 q 754 431 806 540 q 663 222 703 321 q 598 44 622 124 q 575 -82 574 -36 q 584 -108 575 -101 q 603 -111 593 -114 q 619 -99 613 -108 q 622 -79 626 -90 q 610 -42 615 -64 q 613 7 606 -19 q 656 133 626 60 q 726 292 686 207 q 813 470 765 378 q 909 654 860 563 q 1007 831 958 746 q 1099 988 1056 917 q 1288 957 1204 969 q 1415 942 1371 944 z "},"U":{"ha":1335,"x_min":40,"x_max":1494,"o":"m 1151 1 q 1202 138 1165 53 q 1301 347 1239 224 q 1403 535 1360 460 q 1476 651 1446 611 q 1485 681 1482 667 q 1492 706 1489 694 q 1486 730 1494 719 q 1465 740 1478 740 q 1447 732 1453 740 q 1400 679 1419 703 q 1361 640 1381 656 q 1180 484 1271 561 q 997 332 1089 407 q 751 140 853 211 q 589 42 649 68 q 547 31 568 31 q 508 69 508 31 q 513 93 508 81 q 551 203 522 139 q 628 349 581 267 q 744 553 706 483 q 786 628 783 622 q 874 893 869 788 q 824 1004 875 946 q 718 1067 769 1065 q 321 947 521 1075 q 64 681 136 831 q 40 579 40 632 q 50 513 40 543 q 82 460 58 486 q 143 404 106 433 q 158 399 153 399 q 167 404 167 399 q 156 418 167 413 q 69 564 69 475 q 75 617 69 592 q 93 665 81 642 q 203 808 136 742 q 363 932 269 875 q 718 1036 553 1049 q 811 990 778 1032 q 842 911 842 951 q 819 805 842 868 q 750 661 797 742 q 662 514 706 586 q 574 368 618 442 q 456 96 471 196 q 458 58 453 76 q 476 26 464 40 q 503 5 488 13 q 536 -3 519 -3 q 553 0 544 -3 q 711 88 607 17 q 972 283 815 158 q 1342 599 1210 475 q 1360 610 1351 610 q 1361 574 1374 610 q 1333 513 1360 571 q 1254 336 1307 454 q 1135 40 1156 121 q 1125 -50 1125 1 q 1140 -74 1128 -74 q 1157 -54 1154 -74 q 1151 1 1157 -11 z "},"V":{"ha":939,"x_min":47,"x_max":1554,"o":"m 472 22 q 617 197 546 110 q 763 369 689 283 q 958 584 867 492 q 1129 740 1050 676 q 1486 917 1342 917 q 1511 915 1499 917 q 1538 911 1524 914 q 1554 914 1554 907 q 1538 926 1554 917 q 1467 936 1504 936 q 951 619 1268 936 q 732 377 856 522 q 457 36 608 232 q 428 14 440 14 q 411 39 415 14 q 411 78 408 58 q 574 529 428 179 q 676 799 640 693 q 713 954 711 906 q 669 1053 714 1013 q 571 1088 628 1092 q 240 900 408 1067 q 50 565 69 731 q 67 504 47 539 q 87 477 78 486 q 104 465 96 468 q 131 454 117 454 q 151 471 151 458 q 138 481 151 479 q 118 484 126 483 q 106 488 110 485 q 79 561 75 506 q 246 856 92 693 q 586 1056 413 1031 q 600 1057 593 1057 q 613 1057 607 1057 q 674 996 674 1057 l 674 976 q 672 967 672 969 q 672 961 672 964 q 522 532 668 867 q 408 247 447 360 q 365 75 369 133 q 369 49 365 63 q 381 23 374 35 q 400 3 389 11 q 425 -4 411 -4 q 472 22 450 -4 z "},"W":{"ha":1519,"x_min":22,"x_max":1782,"o":"m 535 1 q 580 63 560 33 q 617 111 600 92 q 890 431 772 294 q 1090 661 1008 567 q 1108 671 1100 671 q 1117 658 1117 671 q 1111 636 1117 646 q 976 161 976 379 q 976 133 976 146 q 978 110 976 122 q 1019 19 982 54 q 1110 -15 1057 -15 q 1124 -15 1117 -15 q 1140 -12 1132 -14 q 1392 154 1235 8 q 1537 308 1471 229 q 1657 476 1603 388 q 1782 814 1782 676 q 1739 968 1782 919 q 1718 983 1726 983 q 1714 978 1714 983 q 1724 960 1714 969 q 1751 814 1753 913 q 1717 657 1749 742 q 1621 472 1685 572 q 1363 163 1514 303 q 1135 11 1211 21 q 1124 10 1129 10 q 1113 10 1118 10 q 1038 38 1067 10 q 1010 111 1008 67 q 1056 385 1011 249 q 1108 517 1075 444 q 1185 675 1140 590 q 1188 689 1188 681 q 1175 731 1188 708 q 1147 758 1163 753 q 1125 738 1136 761 q 1104 703 1104 706 q 842 404 960 538 q 635 167 725 271 q 614 153 622 154 q 606 161 606 150 q 613 182 606 165 q 726 382 674 282 q 822 586 778 482 q 931 969 935 846 q 869 1075 928 1033 q 738 1113 808 1121 q 300 914 543 1085 q 25 607 56 740 q 22 586 22 600 q 35 527 22 557 q 64 489 47 497 q 147 489 99 471 q 164 497 164 492 q 149 500 164 500 q 67 518 89 500 q 58 607 38 544 q 372 919 110 754 q 603 1040 501 999 q 785 1081 706 1081 q 904 969 893 1081 q 481 31 924 797 q 478 17 478 22 q 514 -8 478 -8 q 535 1 528 -8 z "},"X":{"ha":1069,"x_min":-21,"x_max":1322,"o":"m 0 -164 q 40 -60 15 -111 q 104 44 65 -8 q 346 279 176 144 q 503 397 422 342 q 671 503 583 451 q 670 486 671 501 q 669 443 669 471 l 669 368 q 736 56 669 118 q 774 25 753 39 q 816 1 794 11 q 857 -15 838 -10 q 889 -18 876 -21 q 1118 93 975 -6 q 1125 108 1133 100 q 1106 108 1119 117 q 988 45 1043 67 q 885 19 933 24 q 760 76 803 15 q 717 329 717 138 q 725 531 717 410 q 869 615 793 569 q 1028 715 944 660 q 1317 933 1256 861 q 1322 951 1322 939 q 1301 1004 1322 1004 q 1296 1001 1299 1004 q 1253 962 1272 978 q 1221 939 1233 946 q 1207 892 1226 910 q 992 735 1111 814 q 731 575 874 657 q 745 783 742 694 q 746 933 749 872 q 717 974 746 949 q 668 999 689 999 q 585 981 629 1001 q 489 922 542 961 q 403 842 440 883 q 344 758 365 801 q 340 747 343 757 q 340 733 338 739 q 347 733 343 731 q 352 738 350 735 q 357 746 354 742 q 624 957 483 924 q 688 915 681 969 q 690 890 689 903 q 690 858 690 876 q 685 783 690 861 q 671 543 681 704 q 508 440 589 494 q 342 319 426 386 q 178 181 246 244 q 75 64 111 117 q -18 -165 -6 -47 q -15 -193 -21 -193 q 0 -164 -7 -193 z "},"Y":{"ha":1288,"x_min":40,"x_max":1451,"o":"m 1096 69 q 460 -140 640 -1 q 392 -262 392 -194 q 439 -356 392 -318 q 574 -399 489 -397 q 808 -325 675 -401 q 978 -172 893 -278 q 1044 -84 1007 -136 q 1125 42 1081 -32 q 1166 54 1149 49 q 1194 61 1183 60 q 1213 71 1203 63 q 1235 94 1222 79 q 1261 142 1261 129 q 1257 156 1261 146 q 1247 178 1253 167 q 1232 201 1240 189 q 1217 219 1224 213 q 1308 421 1265 328 q 1389 597 1351 514 q 1415 624 1404 613 q 1438 642 1426 635 q 1439 685 1451 656 q 1433 688 1436 688 q 1393 667 1407 688 q 1365 624 1378 643 q 1340 589 1351 604 l 1338 582 q 1173 433 1269 511 q 950 268 1076 356 q 510 33 676 79 q 464 25 476 25 q 444 44 444 25 q 448 66 444 53 q 460 96 451 79 q 600 324 485 157 q 717 494 671 424 q 786 604 763 564 q 858 747 835 683 q 881 857 881 810 q 811 994 881 928 q 661 1058 743 1060 q 296 922 493 1054 q 56 658 108 797 q 40 571 40 622 q 56 490 40 522 q 174 414 81 431 q 200 418 200 410 q 181 428 200 426 q 153 435 168 429 q 124 453 139 442 q 76 501 88 476 q 65 558 65 526 q 88 650 65 597 q 353 914 151 789 q 534 1002 451 974 q 685 1024 617 1031 q 838 889 838 1013 q 744 628 838 788 q 681 528 726 599 q 560 346 635 457 q 422 101 446 178 q 417 74 417 89 q 423 40 417 56 q 440 13 429 24 q 462 -4 450 1 q 486 -6 474 -10 q 682 75 572 18 q 926 224 792 132 q 1310 521 1133 365 q 1318 522 1317 528 q 1315 507 1319 521 q 1262 394 1289 450 q 1207 281 1235 338 q 1096 69 1122 104 m 1078 33 q 1003 -81 1033 -36 q 958 -147 974 -125 q 796 -304 881 -247 q 571 -378 686 -376 q 413 -276 413 -381 q 476 -164 413 -214 q 797 -26 576 -85 q 942 9 872 -6 q 1078 33 1011 24 m 1208 204 q 1233 139 1235 168 q 1203 94 1232 111 q 1169 85 1183 89 q 1144 79 1156 81 q 1181 150 1165 119 q 1208 204 1197 181 z "},"Z":{"ha":1325,"x_min":40,"x_max":1861,"o":"m 519 643 q 475 829 475 717 q 476 853 475 842 q 478 875 476 864 q 567 974 490 953 q 626 983 593 979 q 701 986 660 986 q 1014 953 831 986 q 1203 915 1149 932 q 1147 863 1185 904 q 1050 749 1110 821 q 966 647 1000 689 q 914 576 932 604 q 878 570 893 572 q 853 567 864 568 q 844 550 844 563 q 865 506 844 524 q 721 319 801 415 q 635 225 672 261 q 575 174 599 189 q 385 290 481 231 q 182 385 225 385 q 129 372 142 385 q 117 332 117 360 q 65 263 89 319 q 46 204 51 233 q 43 150 40 175 q 97 36 49 74 q 235 -1 146 -1 q 289 3 268 -1 q 363 23 326 11 q 435 51 399 35 q 551 122 474 72 q 837 -43 722 22 q 1014 -142 951 -108 q 1546 -365 1356 -324 q 1635 -378 1593 -376 q 1708 -364 1676 -379 q 1728 -356 1715 -360 q 1757 -341 1740 -351 q 1794 -310 1774 -331 q 1835 -254 1814 -290 q 1858 -172 1854 -221 q 1856 -60 1861 -122 q 1846 -42 1854 -42 q 1836 -62 1836 -42 q 1619 -349 1835 -349 q 1550 -340 1588 -349 q 1315 -260 1454 -322 q 992 -92 1176 -197 q 781 33 879 -29 q 592 154 682 94 q 741 302 654 207 q 936 540 828 397 q 1001 548 978 546 q 1026 550 1024 550 q 1058 563 1058 550 q 1040 568 1058 568 q 1026 568 1036 568 q 1006 569 1018 568 l 957 569 q 1095 753 1024 669 q 1243 903 1167 836 q 1297 899 1289 894 q 1308 928 1308 907 q 1283 979 1308 979 q 1267 975 1276 979 q 1247 966 1257 971 q 1231 957 1238 961 q 1222 953 1224 953 q 725 1021 883 1021 q 546 994 611 1021 q 500 954 519 986 q 483 933 489 940 q 474 924 476 926 q 446 897 451 915 q 440 853 440 878 q 461 731 440 801 q 504 636 483 665 q 524 617 519 617 q 528 622 528 617 q 525 631 528 625 q 519 643 522 636 m 285 22 q 263 20 274 21 q 240 19 253 19 q 178 27 207 19 q 128 47 150 35 q 72 149 71 82 q 157 322 74 283 q 165 324 161 324 q 172 325 168 325 q 247 306 200 325 q 361 246 293 286 q 529 138 463 188 q 408 63 469 90 q 285 22 347 35 z "},":":{"ha":319,"x_min":86,"x_max":324,"o":"m 324 281 q 311 367 324 354 q 304 369 308 369 q 268 359 290 369 q 242 340 246 349 q 238 327 238 338 q 242 300 239 317 q 251 261 247 268 q 264 254 256 254 q 303 264 282 254 q 324 281 324 274 m 172 25 q 161 110 172 99 q 153 113 156 113 q 136 110 146 113 q 117 103 126 107 q 99 94 107 99 q 90 85 92 89 q 90 43 86 79 q 100 5 96 11 q 113 -1 104 -1 q 151 8 131 -1 q 172 25 172 17 z "},";":{"ha":315,"x_min":13,"x_max":324,"o":"m 31 -158 q 185 25 160 -50 q 186 36 186 28 q 178 83 186 58 q 158 111 169 108 q 121 93 149 114 q 99 63 93 72 q 113 29 108 43 q 117 4 118 15 q 18 -142 106 -81 q 13 -151 13 -147 q 22 -162 13 -162 q 31 -158 28 -162 m 324 281 q 311 367 324 354 q 304 369 308 369 q 268 359 290 369 q 242 340 246 349 q 238 327 238 338 q 242 300 239 317 q 251 261 247 268 q 264 254 256 254 q 303 264 282 254 q 324 281 324 274 z "},"?":{"ha":596,"x_min":168,"x_max":828,"o":"m 293 165 q 290 176 293 168 q 282 194 286 183 q 276 215 278 204 q 276 236 274 226 q 300 260 283 256 q 378 287 329 269 q 497 335 426 304 q 690 426 638 392 q 828 647 828 503 q 824 700 828 674 q 811 754 821 726 q 778 826 800 793 q 729 889 757 860 q 568 958 657 958 q 543 957 556 958 q 517 951 531 956 q 397 868 449 936 q 392 856 394 861 q 389 846 389 851 q 394 840 389 840 q 413 856 401 840 q 519 906 447 906 q 590 893 554 906 q 657 858 626 881 q 711 803 688 836 q 747 732 735 771 q 759 684 756 707 q 763 640 763 661 q 553 383 763 493 q 415 322 496 354 q 221 258 333 290 q 213 246 213 256 q 218 222 213 236 q 239 189 224 208 q 283 156 268 156 q 293 165 293 156 m 258 11 q 260 26 260 15 q 258 57 261 38 q 248 97 254 92 q 235 101 242 101 q 201 90 226 101 q 174 71 179 79 q 172 31 168 63 q 183 -6 178 0 q 200 -12 189 -12 q 235 -4 215 -12 q 258 11 254 4 z "},"C":{"ha":1304,"x_min":51,"x_max":1268,"o":"m 474 -6 q 688 16 578 -8 q 914 89 797 40 q 1258 310 1132 181 q 1268 325 1268 319 q 1263 332 1268 332 q 1247 322 1256 332 q 1099 213 1182 263 q 911 121 1015 164 q 690 52 799 76 q 475 25 581 28 q 189 94 292 21 q 101 261 101 158 q 111 329 101 296 q 465 758 175 539 q 975 1007 740 963 q 1012 1011 994 1010 q 1044 1013 1029 1013 q 1182 957 1157 1013 q 1063 796 1122 893 q 983 593 983 671 q 1006 583 983 588 q 1029 583 1025 582 q 1165 697 1108 628 q 1233 801 1215 753 q 1251 903 1251 849 q 1232 982 1251 958 q 1250 1008 1250 1004 q 1243 1018 1250 1017 q 1233 1014 1235 1021 l 1215 996 q 1064 1038 1169 1038 q 989 1033 1026 1038 q 619 896 840 1015 q 231 611 386 769 q 51 278 51 429 q 185 71 51 150 q 474 -6 304 -3 m 1019 621 q 1086 786 1038 693 q 1138 871 1111 835 q 1190 935 1164 907 q 1204 872 1204 911 q 1199 829 1204 850 q 1186 786 1194 808 q 1035 608 1139 676 q 1022 608 1028 604 q 1019 621 1018 611 z "},"!":{"ha":301,"x_min":28,"x_max":488,"o":"m 168 196 q 226 303 189 233 q 315 475 263 372 q 384 606 353 550 q 439 701 415 661 q 447 705 440 704 q 459 707 453 706 q 472 710 465 708 q 479 715 478 711 q 483 764 488 728 q 471 801 479 800 q 432 800 457 807 q 401 781 407 793 q 299 534 364 676 q 143 210 235 392 q 142 200 142 206 q 154 185 142 185 q 168 196 163 185 m 114 25 q 103 110 114 99 q 94 113 100 113 q 59 102 81 113 q 32 85 38 92 q 32 43 28 79 q 42 5 39 11 q 56 -1 46 -1 q 93 8 72 -1 q 114 25 114 17 z "},"\"":{"ha":400,"x_min":285,"x_max":596,"o":"m 303 567 q 444 758 392 692 q 449 768 449 764 q 417 794 449 794 q 397 783 403 794 l 286 576 q 285 569 285 575 q 292 563 285 565 q 303 567 299 560 m 449 563 q 528 672 493 625 q 592 753 564 719 q 596 764 596 761 q 564 790 596 790 q 544 779 551 790 l 432 571 q 431 565 431 569 q 439 558 431 560 q 449 563 443 556 z "},"#":{"ha":674,"x_min":6,"x_max":678,"o":"m 40 60 q 31 36 31 44 q 33 32 31 32 q 60 60 40 32 q 129 166 99 121 q 182 243 160 211 l 336 243 q 224 60 261 122 q 214 36 214 44 q 217 32 214 32 q 243 60 226 32 q 314 167 283 122 q 365 243 344 213 q 396 244 379 243 q 432 244 413 244 l 481 244 q 501 253 488 244 q 515 268 515 261 q 493 275 515 275 l 385 275 q 447 369 421 329 q 492 435 474 408 q 519 436 504 435 q 550 438 533 438 l 594 438 q 614 446 600 438 q 628 460 628 454 q 607 468 628 468 l 514 468 q 608 599 572 549 q 660 669 644 649 q 656 693 678 693 q 632 686 642 693 q 540 560 579 614 q 476 468 500 506 l 331 468 q 432 609 396 560 q 476 669 468 658 q 472 693 494 693 q 449 686 458 693 q 374 585 413 639 q 293 468 336 531 l 161 468 q 136 458 153 468 q 119 442 119 447 q 136 435 119 435 q 156 436 142 435 q 194 438 171 438 l 274 438 q 214 343 239 383 q 171 275 189 303 l 49 275 q 38 272 44 275 q 24 265 31 269 q 11 256 17 261 q 6 249 6 251 q 22 243 6 243 q 41 244 28 243 q 76 244 54 244 l 153 244 q 88 138 117 183 q 40 60 60 92 m 308 435 q 340 436 321 435 q 383 438 358 438 l 456 438 q 391 338 417 378 q 353 275 365 297 l 201 275 q 282 395 256 356 q 308 435 308 435 z "},"$":{"ha":644,"x_min":29,"x_max":754,"o":"m 213 64 q 199 58 208 58 q 71 99 124 64 q 64 101 69 101 q 41 93 53 101 q 29 74 29 85 q 174 19 29 40 q 179 14 181 18 q 154 -26 167 -7 q 126 -65 142 -46 q 122 -76 122 -74 q 133 -82 122 -82 q 154 -72 149 -82 q 206 10 190 -17 q 213 17 215 17 q 475 88 372 17 q 540 196 540 131 q 531 242 540 222 q 431 353 513 275 q 429 367 424 360 q 515 510 469 436 q 614 663 561 583 q 625 668 622 671 q 722 639 707 674 q 738 628 726 628 q 754 646 754 628 q 750 661 754 654 q 644 700 722 700 l 640 700 q 640 701 639 700 q 642 704 640 703 q 668 743 657 726 q 688 774 679 760 q 689 776 689 775 q 690 779 689 778 q 682 785 690 785 q 660 774 671 785 q 611 704 632 732 q 601 699 606 699 q 346 592 429 664 q 289 483 289 544 q 374 335 289 408 q 372 321 382 331 q 284 176 324 240 q 213 64 244 113 m 394 306 q 403 308 399 313 q 438 271 424 288 q 460 240 451 254 q 485 168 485 196 q 450 106 485 132 q 411 82 435 93 q 360 64 388 71 q 302 55 332 57 q 246 56 272 53 q 242 61 240 56 q 317 183 279 122 q 394 306 354 244 m 411 386 q 401 385 407 379 q 349 499 349 444 q 355 535 349 518 q 376 568 361 553 q 571 660 429 626 q 581 660 579 661 q 579 654 581 660 q 472 482 513 549 q 411 386 431 415 z "},"%":{"ha":953,"x_min":224,"x_max":1025,"o":"m 490 708 q 444 728 468 728 q 397 703 422 728 q 353 692 357 703 q 349 667 347 672 q 329 639 346 660 q 285 582 313 618 q 231 485 244 533 q 224 433 224 453 q 306 350 224 350 q 342 354 322 350 q 412 385 379 365 q 476 438 444 406 q 524 497 506 465 q 553 564 542 529 q 558 656 563 614 q 563 669 556 664 q 578 678 571 674 q 882 689 583 689 q 901 688 903 689 q 682 498 789 596 q 471 292 575 400 q 225 -35 235 46 q 226 -58 225 -50 q 228 -69 226 -65 q 243 -40 236 -69 q 544 326 268 58 q 782 546 667 446 q 1008 729 897 646 q 1025 751 1025 739 q 1013 763 1025 763 q 998 758 1007 763 q 975 746 989 753 q 946 728 956 735 q 935 721 936 722 q 882 701 894 701 q 694 703 783 703 q 524 704 606 703 q 517 704 522 704 q 506 705 511 704 q 495 707 500 706 q 490 708 490 708 m 763 335 q 660 256 708 317 q 600 139 619 203 q 593 90 593 111 q 678 4 593 4 q 715 10 697 4 q 847 92 789 29 q 922 218 901 147 q 933 281 933 250 q 844 367 933 375 q 763 335 807 363 m 838 342 q 907 269 907 346 q 899 217 907 243 q 824 89 875 139 q 715 28 772 39 q 658 42 683 21 q 632 110 632 64 q 633 126 632 118 q 636 142 635 135 q 732 296 650 225 q 838 342 785 340 m 471 681 q 538 615 538 682 q 529 563 538 592 q 453 434 506 485 q 346 372 401 383 q 288 388 314 365 q 263 456 263 410 q 263 471 263 463 q 265 488 264 479 q 363 642 282 571 q 411 669 385 661 q 471 681 438 678 z "},"&":{"ha":897,"x_min":-106,"x_max":974,"o":"m 797 417 q 849 416 826 417 q 889 414 872 415 q 951 354 951 406 q 876 210 951 286 q 865 189 865 196 q 868 188 865 188 q 886 200 874 188 q 967 296 953 263 q 974 329 974 310 q 958 382 974 357 q 922 424 943 407 q 928 426 931 425 q 918 430 925 428 q 903 434 911 432 q 892 439 894 436 q 839 445 863 444 q 778 443 815 446 q 618 444 704 444 q 443 444 532 444 q 270 444 354 444 q 118 443 186 443 q 233 555 168 515 q 364 611 299 594 q 488 628 429 628 q 579 622 546 628 q 603 626 593 621 q 618 640 614 632 q 619 655 622 647 q 601 667 615 663 q 542 690 572 674 q 488 733 513 707 q 449 796 464 760 q 438 878 435 832 q 465 960 440 928 q 522 1011 489 993 q 590 1032 556 1029 q 650 1025 625 1035 q 697 992 679 1015 q 717 939 714 968 q 728 920 719 921 q 744 929 738 919 q 755 956 751 939 q 750 989 758 972 q 712 1040 739 1017 q 646 1065 685 1064 q 568 1055 610 1067 q 490 1019 526 1043 q 424 962 453 996 q 385 885 396 928 q 382 819 376 849 q 399 768 388 790 q 426 730 411 746 q 449 704 440 714 q 449 690 454 700 q 432 675 444 679 q 333 642 383 664 q 234 589 282 619 q 144 522 186 558 q 72 443 103 485 q -7 442 25 442 q -51 442 -40 442 q -88 437 -79 440 q -103 414 -97 433 q -100 396 -106 406 q -86 379 -94 386 q -69 369 -78 372 q -54 372 -60 365 q -38 391 -46 382 q -19 404 -31 400 q 4 408 -14 407 q 50 410 22 408 q -7 265 6 338 q -2 134 -19 193 q 60 37 15 75 q 176 -6 106 -1 q 200 -6 188 -6 q 225 -4 213 -6 q 241 -77 231 -43 q 267 -136 251 -111 q 305 -175 283 -161 q 354 -186 326 -189 q 440 -144 401 -182 q 508 -61 479 -107 q 524 -38 517 -50 q 538 -14 532 -26 q 558 27 549 7 q 576 64 568 47 q 625 160 600 110 q 673 258 650 211 q 715 345 696 304 q 746 414 733 386 l 797 417 m 250 264 q 222 164 231 224 q 218 42 213 104 q 203 43 211 43 q 189 44 196 43 q 107 82 140 50 q 60 162 74 114 q 51 269 46 210 q 86 386 57 328 q 92 399 89 393 q 99 413 96 406 q 205 415 146 414 q 324 415 264 415 q 443 415 385 415 q 549 415 501 415 q 628 415 596 415 q 669 415 661 415 q 687 409 685 415 q 682 386 689 403 q 662 345 674 367 q 638 303 650 324 q 614 267 625 283 q 596 244 603 251 q 538 185 572 219 q 458 120 503 151 q 358 66 413 89 q 240 42 303 43 q 243 152 238 94 q 261 258 249 210 l 250 264 m 521 13 q 485 -51 504 -19 q 443 -108 465 -83 q 398 -150 421 -133 q 351 -168 375 -167 q 309 -157 328 -169 q 277 -122 290 -144 q 256 -68 264 -99 q 243 -1 247 -37 q 335 20 293 7 q 422 60 378 33 q 516 133 467 88 q 631 250 565 178 l 521 13 m 250 264 l 261 260 q 261 280 264 278 q 250 264 258 282 z "},"'":{"ha":247,"x_min":285,"x_max":449,"o":"m 303 567 q 444 758 392 692 q 449 768 449 764 q 417 794 449 794 q 397 783 403 794 l 286 576 q 285 569 285 575 q 292 563 285 565 q 303 567 299 560 z "},"(":{"ha":568,"x_min":171,"x_max":807,"o":"m 781 826 q 347 533 522 764 q 171 36 171 303 q 194 -133 171 -47 q 214 -151 199 -151 q 244 -138 229 -151 q 261 -107 258 -125 q 251 -87 263 -94 q 239 -76 239 -79 q 226 -8 231 -43 q 221 63 221 26 q 382 528 221 304 q 786 807 549 757 q 807 821 807 811 q 793 828 807 828 q 786 828 790 828 q 781 826 783 828 z "},")":{"ha":568,"x_min":-110,"x_max":524,"o":"m -85 -137 q 349 154 171 -75 q 524 651 524 385 q 501 822 524 742 q 481 840 497 840 q 451 827 465 840 q 433 796 438 814 q 444 776 432 783 q 457 765 457 768 q 474 625 474 699 q 435 388 474 503 q 314 161 396 272 q -90 -118 146 -68 q -110 -132 -110 -122 q -96 -139 -110 -139 q -85 -137 -89 -139 z "},"*":{"ha":504,"x_min":21,"x_max":485,"o":"m 354 806 q 350 822 357 813 q 318 815 343 831 q 304 797 304 808 q 300 776 304 786 q 274 715 289 747 q 243 646 258 682 q 193 689 217 667 q 143 722 169 711 q 122 725 131 728 q 107 716 113 722 q 101 700 101 710 q 108 686 101 692 q 117 683 113 679 q 122 686 121 686 q 174 656 151 672 q 224 624 197 639 q 173 599 200 611 q 120 576 146 588 q 74 554 94 565 q 40 533 53 543 q 26 502 21 518 q 50 489 31 486 q 57 495 58 490 q 58 501 56 500 q 135 547 92 526 q 219 592 179 568 q 197 524 210 560 q 176 458 185 488 q 167 410 168 428 q 182 397 167 393 q 192 403 188 400 q 193 407 197 407 q 190 428 185 407 q 206 480 194 450 q 231 542 217 510 q 256 599 244 575 q 320 547 293 568 q 378 503 347 526 q 390 505 385 499 q 381 525 396 511 q 334 567 360 546 q 276 617 308 589 q 374 660 318 635 q 478 711 431 686 q 483 723 485 715 q 469 724 481 731 q 372 685 422 707 q 278 647 322 663 q 317 728 299 692 q 354 806 335 765 z "},",":{"ha":247,"x_min":13,"x_max":186,"o":"m 31 -158 q 185 25 160 -50 q 186 36 186 28 q 178 83 186 58 q 158 111 169 108 q 121 93 149 114 q 99 63 93 72 q 113 29 108 43 q 117 4 118 15 q 18 -142 106 -81 q 13 -151 13 -147 q 22 -162 13 -162 q 31 -158 28 -162 z "},"-":{"ha":318,"x_min":28,"x_max":292,"o":"m 51 231 l 256 231 q 292 254 292 231 q 268 268 292 268 l 72 268 q 28 243 28 268 q 51 231 28 231 z "},".":{"ha":247,"x_min":86,"x_max":172,"o":"m 172 25 q 161 110 172 99 q 153 113 156 113 q 136 110 146 113 q 117 103 126 107 q 99 94 107 99 q 90 85 92 89 q 90 43 86 79 q 100 5 96 11 q 113 -1 104 -1 q 151 8 131 -1 q 172 25 172 17 z "},"/":{"ha":568,"x_min":-76,"x_max":869,"o":"m -58 -108 q 48 50 -46 -58 q 315 325 142 158 q 606 593 472 476 q 853 793 740 710 q 869 815 869 806 q 857 826 869 826 q 829 815 844 826 q 587 617 721 736 q 289 338 453 497 q -76 -104 -67 -11 q -74 -137 -76 -129 q -58 -108 -65 -137 z "},"`":{"ha":369,"x_min":508,"x_max":731,"o":"m 724 738 q 627 830 669 790 q 553 899 585 869 q 539 904 547 904 q 508 874 508 904 q 517 860 508 865 q 628 784 579 818 q 715 725 678 750 q 728 725 721 721 q 724 738 731 732 z "},"a":{"ha":585,"x_min":10,"x_max":890,"o":"m 76 18 q 286 172 164 69 q 394 269 347 225 q 474 354 440 314 q 478 357 476 357 q 479 342 489 357 q 433 263 456 306 q 386 169 410 219 q 347 74 367 128 q 311 -35 328 19 q 284 -139 294 -90 q 272 -217 274 -187 q 281 -281 271 -253 q 318 -325 292 -310 q 368 -351 340 -340 q 429 -361 396 -361 q 471 -358 451 -361 q 510 -347 490 -354 q 595 -303 549 -333 q 700 -225 642 -272 q 808 -119 763 -172 q 885 -19 853 -67 q 890 -4 890 -10 q 889 0 890 -1 q 872 -14 885 0 q 794 -106 839 -57 q 692 -200 749 -154 q 500 -319 574 -294 q 401 -336 451 -336 q 322 -313 351 -336 q 293 -243 293 -290 q 293 -229 293 -236 q 294 -217 293 -224 q 317 -118 300 -176 q 356 5 333 -60 q 407 133 379 69 q 464 244 435 196 q 541 367 501 307 q 621 490 581 428 q 618 500 622 493 q 608 507 614 507 q 600 504 603 507 q 564 486 589 490 q 538 488 561 485 q 504 497 521 493 q 471 500 488 500 q 441 497 456 500 q 414 489 426 493 q 297 423 360 467 q 164 308 235 379 q 10 56 10 154 q 44 7 10 7 q 76 18 58 7 m 99 136 q 151 229 118 181 q 231 331 183 278 q 396 457 331 440 q 428 461 413 461 q 474 448 456 461 q 492 419 492 435 q 488 410 492 414 q 303 209 389 292 q 139 78 217 126 q 118 71 128 71 q 93 104 93 71 q 99 136 93 121 z "},"c":{"ha":503,"x_min":15,"x_max":482,"o":"m 460 478 q 482 529 482 504 q 467 571 482 554 q 428 594 453 588 q 378 593 404 601 q 306 558 344 582 q 228 498 267 533 q 152 419 189 463 q 86 326 115 375 q 38 226 57 278 q 17 125 19 175 q 29 72 15 97 q 65 30 43 47 q 110 3 86 13 q 156 -1 135 -6 q 208 13 182 3 q 260 36 235 24 q 306 62 285 49 q 342 86 326 75 q 348 98 353 93 q 332 96 343 103 q 241 54 293 74 q 143 29 189 35 q 108 31 125 28 q 77 45 90 35 q 56 75 64 56 q 50 125 49 94 q 89 250 56 192 q 154 351 122 308 l 171 374 q 270 474 218 426 q 374 551 322 522 q 410 563 394 563 q 435 555 426 564 q 442 529 443 546 q 426 490 440 513 q 374 436 410 467 q 306 382 338 406 q 399 422 361 394 q 460 478 436 449 m 306 385 q 304 383 306 383 q 304 382 304 383 q 306 385 306 383 z "},"d":{"ha":601,"x_min":13,"x_max":2197,"o":"m 561 472 q 519 483 538 479 q 485 486 500 486 q 455 483 469 486 q 428 475 440 479 q 176 294 324 433 q 13 46 13 139 q 64 -1 13 -1 q 78 1 69 -1 q 306 164 167 38 q 414 267 367 217 q 497 363 461 318 q 506 368 501 368 q 513 344 521 368 q 432 51 432 132 q 437 15 432 32 q 449 -12 442 -1 q 479 -21 464 -29 q 490 -11 485 -19 q 488 0 494 -3 q 475 2 481 1 q 464 4 469 3 q 456 19 456 14 q 585 419 454 165 q 646 534 615 479 q 707 642 676 589 q 754 640 731 640 q 804 640 778 640 q 1897 901 1339 640 q 2126 1074 2047 971 q 2197 1268 2197 1165 q 2083 1500 2197 1403 q 1786 1600 1963 1600 q 1571 1561 1679 1600 q 928 1042 1246 1449 q 861 952 896 1001 q 786 843 826 903 l 783 843 q 579 740 646 814 q 569 717 569 731 q 585 674 569 694 q 619 651 600 654 q 640 647 629 649 q 661 644 650 646 q 613 561 638 604 q 561 472 588 518 m 1579 1544 q 1778 1585 1675 1585 q 2050 1501 1933 1585 q 2167 1301 2167 1422 q 1878 949 2167 1115 q 801 660 1381 660 q 758 660 778 660 q 719 661 739 660 q 1579 1544 1128 1353 m 101 121 q 244 317 138 210 q 342 401 299 369 q 422 442 386 433 q 458 446 440 446 q 508 414 508 446 q 492 378 508 399 q 319 203 407 279 q 140 67 232 126 q 118 60 129 60 q 94 90 94 60 q 101 121 94 107 m 622 672 q 592 700 592 676 q 601 725 592 715 q 674 786 631 760 q 778 829 717 813 q 728 751 754 792 q 675 665 703 710 q 647 668 660 667 q 622 672 633 669 z "},"e":{"ha":469,"x_min":11,"x_max":653,"o":"m 646 428 q 648 440 653 438 q 636 433 643 443 q 590 403 619 418 q 531 385 560 388 q 477 381 508 382 q 410 378 446 379 q 333 378 374 378 q 257 378 294 378 q 381 415 326 389 q 456 481 435 442 q 466 526 468 501 q 452 572 464 551 q 419 602 440 592 q 372 604 399 613 q 263 537 324 585 q 148 423 203 489 q 55 281 93 357 q 13 128 17 204 q 25 76 11 100 q 60 33 39 51 q 106 6 81 15 q 151 1 131 -3 q 203 16 176 6 q 256 39 231 26 q 301 65 281 51 q 338 89 322 78 q 343 101 349 96 q 326 99 338 106 q 237 58 289 78 q 139 32 185 39 q 103 34 121 31 q 73 48 86 38 q 52 78 60 58 q 46 128 44 97 q 58 192 47 161 q 85 253 69 224 q 117 308 100 282 q 150 354 135 333 q 247 354 192 354 q 358 356 303 354 q 460 358 414 357 q 531 364 507 360 q 601 391 569 369 q 646 428 632 413 m 422 493 q 377 447 406 468 q 314 410 349 426 q 240 386 279 394 q 165 378 201 378 q 265 477 213 429 q 369 554 318 525 q 406 566 390 565 q 431 558 422 567 q 438 532 439 549 q 422 493 436 515 z "},"f":{"ha":354,"x_min":-1028,"x_max":794,"o":"m -764 -258 q -842 -298 -803 -272 q -917 -358 -882 -324 q -977 -435 -951 -393 q -1012 -522 -1003 -476 q -1008 -652 -1028 -589 q -938 -756 -989 -715 q -808 -806 -887 -797 q -625 -774 -729 -815 q -447 -655 -537 -739 q -268 -460 -356 -571 q -99 -224 -181 -350 q 52 22 -18 -97 q 178 241 122 140 q 268 401 233 342 q 275 408 271 406 q 290 413 279 411 q 405 419 350 415 q 514 424 460 422 q 530 431 529 424 q 519 438 531 438 l 292 438 q 353 531 315 476 q 439 639 392 586 q 540 732 486 692 q 650 781 593 772 q 713 772 682 785 q 767 736 743 760 q 776 737 771 733 q 785 747 781 740 q 792 759 789 753 q 794 768 794 765 q 783 790 794 776 q 754 806 771 803 q 679 805 718 811 q 602 784 640 799 q 528 749 564 769 q 464 707 493 729 q 403 651 433 683 q 343 583 372 619 q 287 510 314 547 q 236 438 260 472 q 204 436 219 435 q 174 438 189 438 q 151 438 165 438 q 135 428 138 439 q 142 409 129 415 q 167 396 156 403 q 185 378 176 389 q 182 349 193 368 q 92 180 144 279 q -26 -31 39 81 q -164 -256 -90 -142 q -316 -471 -237 -371 q -475 -647 -394 -571 q -635 -757 -556 -722 q -785 -788 -715 -792 q -902 -751 -854 -785 q -970 -660 -950 -718 q -971 -525 -990 -601 q -890 -367 -947 -433 q -762 -269 -833 -301 q -744 -256 -743 -261 q -764 -258 -744 -251 z "},"g":{"ha":1013,"x_min":-1096,"x_max":1039,"o":"m 547 399 q 243 299 406 400 q 15 63 81 196 q 3 19 3 39 q 53 -31 3 -31 q 79 -26 68 -31 q 178 27 119 -8 q 315 118 236 63 q 420 194 378 163 q 486 247 463 225 q 476 210 481 231 q 464 167 471 190 q 389 -60 421 13 q -408 -290 -28 -139 q -1074 -760 -968 -511 q -1096 -864 -1096 -812 q -928 -1160 -1096 -1028 q -561 -1281 -761 -1292 q 432 -75 22 -1243 q 615 -49 513 -57 q 843 -42 717 -42 q 901 -42 875 -42 q 946 -44 926 -43 q 1014 -100 1014 -50 q 932 -237 1014 -161 q 918 -256 918 -247 q 921 -257 918 -257 q 942 -246 929 -257 q 1032 -154 1014 -189 q 1039 -124 1039 -140 q 1031 -89 1039 -106 q 1009 -58 1022 -72 q 980 -33 996 -43 q 949 -21 964 -24 q 903 -16 929 -18 q 843 -14 878 -14 q 442 -51 654 -14 q 516 168 485 74 q 569 329 547 263 q 585 363 582 346 q 576 383 585 374 q 556 396 567 393 q 547 399 553 399 m -1040 -797 q -494 -357 -949 -568 q 383 -81 -118 -186 q 245 -435 322 -268 q 75 -753 168 -601 q -564 -1256 -228 -1243 q -911 -1146 -757 -1264 q -1057 -886 -1057 -1033 q -1040 -797 -1057 -842 m 463 253 q 392 195 435 228 q 293 122 350 163 q 122 21 151 21 q 89 65 89 21 q 90 76 89 72 q 92 88 90 81 q 226 257 121 174 q 428 357 326 333 q 492 364 476 369 q 501 338 501 363 q 500 332 500 336 q 500 331 500 331 q 501 329 501 331 q 463 253 497 279 z "},"h":{"ha":724,"x_min":14,"x_max":1863,"o":"m 369 597 q 415 595 392 596 q 463 594 439 594 q 1563 857 1004 594 q 1792 1029 1715 928 q 1863 1224 1863 1121 q 1749 1456 1863 1358 q 1451 1556 1629 1556 q 1236 1517 1344 1556 q 838 1269 1033 1446 q 449 799 643 1092 q 244 697 313 769 q 238 686 240 692 q 235 672 235 681 q 250 632 235 653 q 285 607 265 611 q 308 603 297 604 q 325 600 318 601 q 148 285 225 428 q 15 25 71 143 q 14 14 14 21 q 25 -8 14 -8 q 32 -1 29 -8 q 47 10 44 15 q 226 197 110 85 q 443 372 365 331 q 471 382 458 382 q 492 363 492 382 q 486 344 492 351 q 338 74 364 183 q 363 17 331 42 q 414 -8 389 -8 q 675 139 494 -8 l 685 149 q 683 150 683 150 q 682 153 683 151 q 677 150 681 151 q 669 146 674 149 q 447 29 515 29 q 410 65 410 29 q 478 239 410 115 q 533 331 507 290 q 583 401 560 372 q 585 408 585 403 q 572 430 585 419 q 551 439 560 440 q 497 419 503 426 q 324 314 451 415 q 221 225 271 269 q 126 136 171 181 q 96 104 107 117 q 78 86 85 92 q 228 354 156 228 q 369 597 300 481 m 382 621 q 799 1184 585 965 q 1246 1500 1013 1403 q 1443 1540 1342 1540 q 1715 1457 1599 1540 q 1832 1257 1832 1378 q 1543 904 1832 1072 q 1261 768 1407 825 q 958 674 1115 711 q 717 631 835 646 q 485 617 600 617 q 431 618 457 617 q 382 621 406 619 m 339 624 q 323 625 335 624 q 292 629 311 626 q 261 657 261 633 q 272 683 261 672 q 341 741 300 715 q 440 783 382 767 q 390 704 415 744 q 339 624 364 664 z "},"i":{"ha":319,"x_min":35,"x_max":436,"o":"m 419 181 q 432 196 428 188 q 435 208 436 204 q 429 211 435 213 q 411 197 424 210 q 356 153 392 179 q 278 100 319 126 q 197 53 236 74 q 131 26 157 32 q 102 23 117 24 q 78 31 88 22 q 69 58 68 39 q 86 111 69 76 q 108 157 103 146 q 114 172 113 168 q 117 181 115 176 q 131 208 119 186 q 167 278 142 231 q 240 415 193 326 q 247 456 253 440 q 229 475 242 471 q 203 473 217 479 q 186 450 189 467 q 174 420 185 444 q 146 362 163 396 q 110 287 129 328 q 74 206 90 246 q 46 131 57 167 q 35 74 35 96 q 48 31 35 49 q 78 3 61 14 q 113 -10 96 -7 q 139 -10 131 -12 q 211 29 169 4 q 294 83 253 54 q 369 138 335 111 q 419 181 403 164 m 332 610 q 323 634 336 622 q 294 643 310 646 q 243 606 275 639 q 211 554 211 574 q 242 531 211 536 q 293 556 263 526 q 332 610 328 586 z "},"k":{"ha":764,"x_min":21,"x_max":1833,"o":"m 433 599 q 1533 861 975 599 q 1763 1035 1688 933 q 1833 1228 1833 1126 q 1721 1461 1833 1361 q 1422 1560 1599 1560 q 1207 1522 1317 1560 q 809 1274 1004 1451 q 419 804 614 1096 q 301 763 353 789 q 215 701 250 738 q 206 676 206 692 q 221 636 206 657 q 256 611 236 615 q 278 608 268 608 q 296 606 289 607 l 301 606 q 239 501 272 558 q 167 378 206 444 q 135 363 147 382 q 135 307 124 343 q 87 201 114 267 q 22 40 60 135 q 21 29 21 36 q 35 7 28 7 q 43 14 40 7 q 107 162 78 97 q 164 271 136 226 q 747 -208 496 -140 q 774 -216 757 -211 q 819 -225 790 -221 q 888 -229 883 -232 q 934 -185 917 -210 q 963 -136 951 -160 q 961 -129 961 -133 q 960 -125 961 -126 q 950 -132 954 -122 q 822 -207 917 -207 q 779 -200 803 -207 q 469 1 643 -160 q 328 149 388 76 q 229 293 269 222 q 438 342 329 293 q 589 464 551 393 q 607 532 607 506 q 563 564 603 564 q 204 374 467 564 q 280 502 249 449 q 329 592 311 556 q 341 596 335 594 q 353 600 347 597 q 393 599 372 599 q 433 599 414 599 m 353 625 q 769 1188 556 969 q 1217 1504 983 1407 q 1415 1544 1313 1544 q 1686 1463 1568 1544 q 1803 1263 1803 1381 q 1514 908 1803 1076 q 929 678 1244 756 q 456 622 686 622 q 402 623 428 622 q 353 625 376 624 m 456 372 q 411 347 438 358 q 351 325 385 336 q 292 310 319 314 q 243 306 265 306 q 225 307 229 306 q 213 331 217 321 q 206 349 208 342 q 325 442 238 382 q 474 517 432 511 q 521 483 521 524 q 456 372 525 425 m 310 628 q 294 629 306 628 q 263 635 282 631 q 232 661 232 639 q 243 688 232 678 q 411 789 299 754 q 361 709 386 749 q 310 628 336 669 z "},"l":{"ha":476,"x_min":33,"x_max":1721,"o":"m 36 158 q 64 60 38 93 q 131 22 90 28 q 221 38 171 17 q 319 101 271 58 q 352 133 335 115 q 381 165 369 151 q 387 183 392 181 q 371 174 382 185 q 341 142 356 157 q 308 114 326 128 q 237 73 275 89 q 166 61 199 57 q 112 94 133 65 q 93 189 90 124 q 110 317 94 246 q 150 454 126 389 q 565 551 361 494 q 967 685 768 608 q 1676 1154 1544 903 q 1707 1257 1700 1203 q 1565 1554 1721 1424 q 1210 1675 1413 1686 q 107 472 621 1638 l 107 468 q 53 309 72 388 q 36 158 33 231 m 1647 1192 q 1060 751 1532 958 q 636 596 861 664 q 157 475 411 528 q 164 489 161 482 q 169 503 167 496 l 168 503 q 333 841 244 681 q 528 1147 422 1001 q 1210 1650 874 1635 q 1547 1540 1408 1657 q 1671 1281 1686 1428 q 1663 1235 1668 1257 q 1647 1192 1657 1214 z "},"m":{"ha":861,"x_min":10,"x_max":1575,"o":"m 17 1 q 28 8 19 4 q 51 18 36 13 q 85 36 81 29 q 128 97 108 71 q 163 139 147 122 q 301 272 221 206 q 363 322 338 304 q 401 346 388 339 q 419 350 414 350 q 440 325 440 350 q 435 299 440 311 q 388 190 418 246 q 317 72 358 133 q 320 56 311 65 q 338 50 329 46 q 356 59 344 54 q 385 72 367 64 q 408 83 400 78 q 418 92 415 89 q 685 342 476 175 q 713 354 701 354 q 732 331 732 354 q 722 293 732 313 q 560 25 674 165 q 558 -8 554 6 l 525 -42 q 521 -51 521 -46 q 538 -67 521 -67 q 550 -62 543 -67 q 904 121 692 46 q 1310 214 1106 193 q 1335 216 1322 215 q 1358 217 1347 217 q 1504 181 1451 217 q 1554 99 1554 147 q 1544 60 1554 83 q 1522 24 1532 31 q 1511 11 1511 17 q 1517 7 1511 7 q 1535 14 1524 7 q 1569 51 1560 24 q 1575 88 1575 68 q 1499 197 1575 153 q 1413 227 1461 219 q 1304 232 1364 235 q 1141 208 1231 228 q 943 156 1051 189 q 686 60 789 107 q 672 54 678 57 q 661 51 667 51 q 651 63 651 51 q 665 96 651 76 q 751 244 714 175 q 815 374 788 313 q 830 391 824 383 q 842 404 836 399 q 824 433 847 433 q 808 429 817 433 q 653 335 738 396 q 472 188 569 275 q 458 182 467 182 q 446 197 446 182 q 454 221 446 208 q 501 317 485 281 q 517 367 517 353 q 503 388 517 383 q 376 346 464 400 q 174 186 257 272 q 158 178 165 178 q 161 210 143 178 q 257 347 203 285 q 314 410 304 404 q 319 422 325 418 q 297 420 313 426 q 274 407 282 414 q 219 344 251 385 q 147 246 188 304 q 76 141 107 188 q 26 57 46 94 q 11 25 13 35 q 11 7 10 18 q 17 1 13 0 z "},"n":{"ha":579,"x_min":4,"x_max":774,"o":"m 26 33 q 97 64 83 46 q 258 235 179 160 q 415 365 336 310 q 438 372 426 372 q 463 350 463 372 q 458 336 463 342 q 383 222 418 281 q 315 99 347 163 q 228 -153 236 -53 q 260 -283 221 -242 q 351 -314 296 -319 q 640 -165 507 -297 q 721 -72 689 -117 q 765 13 753 -28 q 774 53 774 38 q 750 85 774 85 q 728 79 740 85 q 717 65 717 74 q 722 61 717 61 q 738 59 729 61 q 752 51 746 57 q 758 31 758 44 q 626 -150 758 -37 q 428 -274 507 -251 q 388 -279 410 -279 q 311 -249 340 -279 q 285 -150 279 -214 q 367 111 290 -53 q 544 403 446 276 q 546 435 565 428 q 497 429 528 443 q 463 407 482 424 q 322 310 426 393 q 235 237 278 274 q 154 163 193 200 q 138 153 146 153 q 126 168 126 153 q 132 186 126 179 q 198 309 160 249 q 289 431 236 369 q 293 440 293 435 q 283 440 292 442 q 260 433 268 438 q 249 422 253 429 q 189 345 221 389 q 121 246 157 301 q 13 61 44 129 q 10 39 4 44 q 26 33 11 31 z "},"o":{"ha":515,"x_min":26,"x_max":615,"o":"m 89 -24 q 374 135 211 -6 q 498 266 457 206 q 543 379 539 326 q 542 386 543 382 q 539 394 540 390 q 539 403 536 399 q 594 419 551 419 q 615 428 615 419 q 594 433 615 431 q 491 436 536 435 q 414 439 446 438 q 409 442 411 440 q 404 444 407 443 q 342 469 364 471 q 281 439 311 468 q 265 433 271 433 q 213 432 264 433 q 176 424 181 431 q 172 413 172 417 q 185 395 172 404 q 210 379 197 386 q 213 367 218 376 q 26 26 29 142 q 33 6 26 15 q 48 -11 39 -4 q 68 -22 57 -18 q 89 -24 79 -25 m 69 50 q 299 379 150 242 q 322 392 319 393 q 376 405 347 401 q 439 404 406 408 q 492 356 501 397 q 332 131 471 254 q 106 -6 200 10 q 61 19 61 -14 q 69 50 61 35 z "},"p":{"ha":579,"x_min":-1319,"x_max":697,"o":"m 57 -107 q -25 -103 19 -103 q 57 74 18 4 q 130 194 96 144 q 194 283 164 244 q 250 367 224 322 q 344 408 303 394 q 417 422 385 422 q 500 347 500 422 q 429 179 500 260 q 221 108 296 135 q 128 69 146 81 q 122 56 122 64 q 151 29 122 26 q 447 158 331 50 q 578 201 518 182 q 686 233 638 219 q 696 239 692 235 q 696 243 697 240 q 686 243 692 244 q 492 197 661 242 q 556 358 556 286 q 456 450 556 450 q 375 440 419 450 q 274 408 331 431 q 374 574 326 500 q 464 708 422 647 q 476 722 472 721 q 481 729 481 724 q 463 733 481 739 q 413 706 419 717 q 288 517 340 597 q 200 383 235 436 q 126 333 135 357 q 150 292 122 317 q 91 183 119 238 q 32 75 63 128 q 4 25 15 47 q -17 -17 -7 3 q -37 -58 -26 -37 q -60 -103 -47 -78 q -294 -123 -178 -104 q -533 -174 -411 -142 q -845 -292 -704 -219 q -1099 -464 -986 -365 q -1319 -903 -1319 -654 q -1294 -1060 -1319 -989 q -1217 -1194 -1268 -1132 q -965 -1315 -1112 -1315 q -775 -1264 -874 -1315 q -420 -908 -596 -1165 q -76 -233 -244 -651 q -54 -178 -65 -206 q -32 -124 -43 -150 q 57 -128 19 -124 q 78 -118 78 -132 q 57 -107 78 -110 m -111 -228 q -173 -365 -143 -296 q -233 -500 -203 -433 q -350 -731 -290 -626 q -469 -921 -410 -835 q -787 -1242 -631 -1157 q -956 -1285 -865 -1285 q -1085 -1260 -1025 -1285 q -1196 -1185 -1146 -1236 q -1303 -933 -1303 -1081 q -1050 -485 -1303 -700 q -800 -314 -937 -386 q -499 -193 -662 -242 q -278 -142 -385 -160 q -67 -124 -172 -125 q -92 -181 -81 -156 q -111 -228 -103 -207 z "},"r":{"ha":376,"x_min":-37,"x_max":524,"o":"m -26 -18 q 6 -1 -8 -7 q 31 10 19 6 q 42 19 42 15 q 408 397 203 283 q 483 410 456 422 q 494 410 488 407 q 508 420 501 414 q 519 434 514 426 q 524 446 524 442 q 522 449 524 447 q 458 457 501 458 q 319 364 408 436 q 179 229 233 294 q 163 218 175 224 q 147 219 147 213 q 151 233 147 225 q 198 309 167 264 q 274 415 229 354 q 275 431 281 422 q 264 438 272 438 q 258 435 260 438 q 154 376 171 382 q 154 367 153 372 q 158 351 158 354 q 150 317 158 338 q -33 -4 101 204 q -35 -18 -37 -11 q -26 -18 -33 -26 z "},"s":{"ha":686,"x_min":-7,"x_max":688,"o":"m 258 147 q 211 199 240 157 q 181 269 185 242 q 303 428 171 338 q 486 521 407 501 q 501 523 493 522 q 517 524 508 524 q 554 519 532 524 q 608 504 576 515 q 640 515 618 501 q 671 543 661 529 q 671 561 676 549 q 656 569 664 569 q 490 542 578 571 q 301 454 401 514 q 113 244 101 338 q 123 207 115 225 q 146 169 131 189 l 190 110 q 3 -33 26 -4 q 11 -51 -7 -50 q 30 -51 18 -54 q 61 -46 42 -49 q 90 -50 74 -50 q 217 -15 139 -50 q 308 63 308 24 q 301 88 308 72 q 275 128 293 104 q 488 233 386 192 q 688 293 590 274 l 686 294 q 476 243 582 276 q 258 147 371 210 m 74 -19 q 97 6 81 -8 q 142 39 114 19 q 210 86 188 72 q 242 35 242 57 q 236 19 242 26 q 210 0 229 8 q 164 -19 192 -8 q 79 -35 104 -40 q 74 -19 63 -32 z "},"t":{"ha":1051,"x_min":-1,"x_max":1049,"o":"m 239 -772 q 437 -717 332 -772 q 663 -553 542 -661 q 928 -154 900 -337 q 889 -60 931 -122 q 804 0 849 0 q 788 -1 793 0 q 738 -25 751 -17 q 718 -44 725 -33 q 729 -57 715 -57 q 751 -47 736 -57 q 788 -35 767 -37 q 881 -150 881 -19 q 820 -308 869 -225 q 679 -487 771 -392 q 504 -643 590 -583 q 331 -731 418 -703 q 222 -749 271 -749 q 51 -507 51 -749 q 51 -474 51 -490 q 53 -440 51 -458 q 119 -149 64 -311 q 271 211 175 13 q 399 443 333 336 q 538 658 464 550 q 572 681 549 676 q 805 694 703 688 q 986 703 907 700 q 1006 716 999 704 q 1014 731 1014 728 q 997 735 1010 735 q 941 735 986 735 q 814 736 896 736 l 613 736 q 603 768 581 736 q 1035 1208 904 1182 q 1049 1218 1049 1213 q 1033 1231 1049 1231 q 1002 1224 1017 1231 q 954 1207 988 1218 q 876 1171 885 1181 q 693 956 781 1060 q 539 749 606 853 q 540 740 536 744 q 539 736 544 736 q 435 732 472 736 q 394 719 399 728 q 433 676 383 696 q 458 638 458 663 q 442 596 458 614 q 300 364 371 493 q 158 74 229 235 q -1 -487 -1 -292 q 8 -598 -1 -547 q 56 -689 18 -649 q 239 -772 128 -772 z "},"v":{"ha":446,"x_min":21,"x_max":572,"o":"m 65 15 q 92 17 82 14 q 104 22 100 19 q 108 25 108 25 q 168 56 136 25 q 340 236 239 115 q 418 333 385 289 q 475 411 451 376 q 492 422 488 426 q 510 410 499 415 q 536 401 521 406 q 556 411 556 397 q 551 418 556 415 q 533 447 535 431 q 571 531 531 474 q 569 538 572 532 q 559 548 565 543 q 547 556 553 553 q 538 558 540 560 q 514 543 528 553 q 481 518 500 533 q 467 474 471 492 q 460 449 464 456 q 391 353 425 400 q 321 257 357 306 q 228 138 268 186 q 158 65 188 89 q 124 49 138 49 q 103 79 103 49 q 107 108 103 92 q 264 419 138 219 q 267 424 265 422 q 268 429 268 426 q 246 447 268 447 q 232 442 236 447 q 25 50 60 204 q 35 28 21 39 q 65 15 49 17 z "},"w":{"ha":732,"x_min":10,"x_max":796,"o":"m 789 361 q 735 367 750 361 q 689 418 713 418 q 664 408 676 418 q 650 389 651 399 q 659 367 647 382 q 689 349 671 353 q 610 147 683 243 q 460 33 536 53 q 400 90 406 22 q 399 107 399 99 q 399 126 399 115 q 408 217 399 169 q 432 322 417 265 q 460 406 447 371 q 489 465 474 442 q 479 474 490 472 q 454 472 468 474 q 435 464 440 469 q 411 425 421 442 q 394 393 401 408 q 271 231 360 339 q 177 126 218 168 q 106 61 136 83 q 90 56 100 56 q 75 75 75 56 q 78 89 75 81 q 108 157 88 117 q 163 249 129 197 q 231 358 207 319 q 258 403 256 396 q 263 418 263 411 q 242 435 263 435 q 224 425 225 435 q 195 370 221 413 q 121 256 169 328 q 44 131 72 182 q 11 47 17 79 q 24 24 10 38 q 47 10 39 10 q 122 44 76 6 q 224 147 168 82 q 349 306 281 213 q 363 311 356 315 q 365 300 369 308 q 331 82 331 197 q 333 58 331 67 q 364 13 344 29 q 397 -1 383 -3 q 615 111 514 10 q 743 340 721 217 q 767 343 756 340 q 789 349 778 346 q 796 356 796 351 q 789 361 796 361 z "},"x":{"ha":381,"x_min":-275,"x_max":561,"o":"m 544 414 q 558 428 556 419 q 558 444 561 438 q 547 456 554 451 q 531 454 540 460 q 456 410 503 440 q 358 343 410 379 q 260 272 307 307 q 186 215 213 236 q 174 263 179 235 q 165 322 169 292 q 156 381 160 351 q 147 433 151 411 q 140 448 146 446 q 129 447 135 450 q 119 435 124 443 q 117 419 115 428 q 122 368 118 399 q 132 306 126 338 q 144 242 138 274 q 156 190 150 211 q 82 128 122 163 q 0 56 42 94 q -83 -24 -42 17 q -158 -106 -124 -65 q -218 -185 -190 -146 q -260 -265 -246 -225 q -273 -343 -275 -304 q -246 -418 -271 -382 q -203 -458 -229 -442 q -157 -479 -178 -475 q -142 -478 -146 -483 q -150 -468 -139 -472 q -197 -449 -174 -462 q -235 -407 -219 -435 q -252 -332 -257 -372 q -228 -253 -247 -292 q -182 -179 -208 -214 q -136 -122 -156 -144 q -56 -37 -97 -78 q 26 40 -14 4 q 101 106 65 76 q 167 156 138 135 q 189 94 175 129 q 219 23 203 58 q 251 -43 235 -12 q 281 -89 268 -74 q 303 -101 296 -104 q 294 -78 311 -99 q 264 -26 279 -60 q 235 46 249 8 q 211 119 222 83 q 196 178 200 156 q 272 235 225 200 q 369 305 319 269 q 467 371 419 340 q 544 414 514 401 z "},"y":{"ha":551,"x_min":-1115,"x_max":1019,"o":"m 369 0 q -37 -99 161 -40 q -428 -232 -235 -157 q -1094 -701 -987 -453 q -1115 -806 -1115 -751 q -947 -1101 -1115 -969 q -581 -1222 -781 -1235 q 413 -17 3 -1185 q 824 17 572 17 q 881 16 856 17 q 926 14 907 15 q 994 -42 994 8 q 913 -179 994 -101 q 899 -197 899 -189 q 901 -199 899 -199 q 921 -187 910 -199 q 1011 -96 993 -131 q 1019 -65 1019 -83 q 1011 -31 1019 -47 q 990 0 1003 -14 q 960 24 976 14 q 929 36 944 33 q 824 44 892 44 q 419 6 631 44 q 507 285 479 185 q 519 305 514 297 q 529 319 524 313 q 520 346 532 333 q 485 357 508 358 q 466 347 475 356 q 450 325 457 338 q 398 282 431 307 q 319 225 365 257 q 216 159 261 185 q 139 121 171 133 q 114 121 128 117 q 103 139 103 125 q 107 157 103 146 q 190 293 133 210 q 288 401 258 389 q 265 424 285 425 q 204 400 254 422 q 151 369 157 379 q 149 343 147 361 q 149 319 151 325 q 22 78 31 106 q 28 58 19 68 q 49 49 36 49 q 61 51 53 49 q 274 172 140 82 q 443 300 375 240 q 434 249 440 281 q 417 169 428 217 q 369 0 392 61 m -1060 -739 q -515 -300 -968 -508 q 364 -24 -136 -126 q 226 -377 303 -210 q 56 -696 149 -544 q -583 -1197 -250 -1185 q -931 -1087 -776 -1206 q -1078 -828 -1078 -974 q -1073 -783 -1078 -804 q -1060 -739 -1068 -761 z "},"~":{"ha":476,"x_min":22,"x_max":450,"o":"m 25 371 l 65 401 q 107 426 86 418 q 147 433 128 433 q 242 392 171 433 q 335 353 315 353 q 381 376 354 353 q 440 443 407 399 q 447 458 444 451 q 450 471 450 464 q 444 475 450 475 q 424 461 436 475 q 388 433 408 443 q 335 424 367 424 q 297 432 321 424 q 236 461 274 440 q 147 504 169 504 q 99 479 128 504 q 35 404 71 454 q 26 387 29 394 q 22 376 22 379 q 25 371 22 371 z "},"":{"ha":433,"x_min":46,"x_max":400,"o":"m 250 763 q 310 736 263 764 q 345 714 328 725 q 381 692 363 703 q 393 688 386 686 q 400 696 400 690 q 394 706 400 700 q 256 817 264 814 q 172 775 253 819 q 53 711 78 721 q 46 699 46 701 q 63 696 46 685 q 250 763 175 743 z "},"":{"ha":1007,"x_min":25,"x_max":996,"o":"m 347 11 q 551 128 438 26 q 672 310 668 233 q 671 322 672 319 q 671 329 669 324 q 690 333 672 332 q 732 335 707 335 q 786 336 757 336 q 842 336 817 336 l 825 325 q 722 246 769 308 q 663 131 682 193 q 656 81 656 100 q 740 -4 656 -4 q 778 0 757 -4 q 911 82 850 21 q 986 210 965 140 q 994 242 992 226 q 996 272 996 258 q 907 357 996 367 q 888 353 893 354 q 811 353 858 353 q 715 354 764 354 q 629 354 668 354 q 581 354 592 354 q 574 358 575 357 q 548 374 558 368 q 529 378 538 379 q 485 354 506 375 q 474 351 474 351 q 438 351 474 351 q 410 344 413 350 q 408 336 408 339 q 417 323 408 329 q 433 310 425 317 q 438 301 439 308 q 337 152 369 215 q 303 47 304 89 q 318 20 303 32 q 347 11 333 8 m 292 708 q 246 728 269 728 q 199 703 224 728 q 154 692 158 703 q 150 667 149 672 q 131 639 147 660 q 86 582 114 618 q 32 485 46 533 q 25 433 25 453 q 107 350 25 350 q 143 354 124 350 q 213 385 181 365 q 278 438 246 406 q 325 497 307 465 q 354 564 343 529 q 358 656 364 615 q 365 669 357 664 q 379 678 372 674 q 683 689 385 689 q 703 688 704 689 q 483 498 590 596 q 272 292 376 400 q 26 -35 38 49 q 27 -58 26 -50 q 29 -69 28 -65 q 44 -40 38 -69 q 346 326 69 58 q 583 546 468 446 q 810 729 699 646 q 826 751 826 739 q 814 763 826 763 q 799 758 808 763 q 776 746 790 753 q 747 728 757 735 q 736 721 738 722 q 683 701 696 701 q 496 703 585 703 q 325 704 407 703 q 318 704 324 704 q 307 705 313 704 q 297 707 301 706 q 292 708 292 708 m 900 333 q 969 260 969 335 q 961 208 969 235 q 886 80 938 131 q 778 18 835 29 q 721 33 746 11 q 696 101 696 56 q 697 117 696 108 q 699 133 697 125 q 794 288 713 217 q 900 333 846 331 m 272 681 q 339 615 339 682 q 331 563 339 592 q 255 434 307 485 q 147 372 203 383 q 90 388 115 365 q 64 456 64 410 q 65 471 64 463 q 67 488 65 479 q 164 642 83 571 q 213 669 186 661 q 272 681 239 678 m 333 65 q 499 310 393 213 q 515 319 510 322 q 597 331 549 335 q 630 318 621 326 q 636 293 639 310 q 521 125 621 217 q 433 54 474 79 q 358 22 392 29 q 329 43 329 21 q 333 65 329 53 z "},"":{"ha":303,"x_min":42,"x_max":279,"o":"m 101 219 q 154 282 113 242 q 271 381 196 322 q 275 394 279 389 q 260 392 274 400 q 197 350 228 371 q 133 308 165 329 q 47 240 54 256 q 89 47 42 228 q 97 35 92 35 q 106 50 108 35 q 101 219 89 197 z "},"":{"ha":183,"x_min":0,"x_max":164,"o":"m 147 819 q 4 650 28 715 q 10 604 0 635 q 29 569 18 571 q 63 585 36 567 q 85 614 90 606 q 72 644 76 632 q 69 668 67 657 q 158 804 75 744 q 164 813 164 808 q 154 822 164 822 q 147 819 150 822 z "},"":{"ha":247,"x_min":285,"x_max":449,"o":"m 303 567 q 444 758 392 692 q 449 768 449 764 q 417 794 449 794 q 397 783 403 794 l 286 576 q 285 569 285 575 q 292 563 285 565 q 303 567 299 560 z "},"":{"ha":372,"x_min":25,"x_max":357,"o":"m 340 806 q 199 636 222 703 q 203 590 194 621 q 224 556 213 560 q 257 571 231 553 q 278 600 285 593 q 266 631 271 618 q 263 654 261 643 q 353 790 271 732 q 357 799 357 794 q 349 808 357 808 q 340 806 343 808 m 171 806 q 29 636 53 703 q 33 590 25 621 q 53 556 43 560 q 88 571 61 553 q 108 600 114 592 q 93 654 92 636 q 183 790 100 732 q 188 799 188 794 q 179 808 188 808 q 171 806 174 808 z "},"":{"ha":388,"x_min":36,"x_max":369,"o":"m 224 561 q 365 731 340 661 q 361 776 369 743 q 340 810 350 808 q 306 793 331 813 q 286 765 279 772 q 298 735 293 749 q 301 713 303 722 q 211 576 293 633 q 206 567 206 571 q 215 558 206 558 q 224 561 218 558 m 53 561 q 196 731 171 660 q 190 776 200 744 q 171 810 182 808 q 136 793 161 813 q 117 765 110 772 q 128 735 124 749 q 132 713 133 722 q 42 576 124 633 q 36 567 36 571 q 46 558 36 558 q 53 561 50 558 z "},"":{"ha":294,"x_min":56,"x_max":239,"o":"m 239 318 q 213 384 239 358 q 147 410 188 410 q 82 384 108 410 q 56 318 56 358 q 82 253 56 281 q 147 226 108 226 q 213 253 188 226 q 239 318 239 281 z "},"":{"ha":464,"x_min":51,"x_max":425,"o":"m 78 236 q 243 236 167 236 q 383 239 319 236 q 425 258 425 239 q 396 269 425 269 l 104 269 q 51 247 51 269 q 78 236 51 236 z "},"":{"ha":797,"x_min":99,"x_max":754,"o":"m 126 240 l 719 240 q 754 250 754 240 q 729 258 754 258 l 139 258 q 99 247 99 258 q 126 240 99 240 z "},"":{"ha":411,"x_min":36,"x_max":372,"o":"m 39 697 l 71 715 q 135 733 103 733 q 210 708 153 733 q 283 686 263 686 q 365 739 313 686 q 372 754 372 750 q 368 758 372 758 q 353 750 364 758 q 283 728 331 728 q 253 733 272 728 q 206 750 235 738 q 160 768 178 761 q 135 775 143 775 q 46 717 107 775 q 36 700 36 701 q 39 697 36 697 z "},"":{"ha":315,"x_min":53,"x_max":293,"o":"m 233 208 q 183 154 226 193 q 58 49 139 115 q 53 40 53 43 q 63 32 53 32 q 75 36 68 32 q 138 78 107 57 q 201 119 169 99 q 288 188 281 172 q 246 381 293 200 q 236 393 243 393 q 229 378 226 393 q 233 208 246 233 z "},"":{"ha":342,"x_min":-164,"x_max":296,"o":"m 154 331 q 97 222 133 292 q 7 50 60 153 q -60 -78 -29 -22 q -115 -174 -90 -133 q -123 -178 -117 -176 q -135 -180 -129 -179 q -148 -182 -142 -181 q -156 -187 -154 -183 q -158 -237 -164 -203 q -147 -275 -156 -272 q -108 -273 -132 -279 q -78 -254 -83 -267 q 179 317 -1 -43 q 181 325 181 319 q 168 340 181 340 q 154 331 160 340 m 208 501 q 219 415 208 429 q 228 413 222 413 q 264 423 242 413 q 290 442 286 433 q 290 483 296 447 q 279 524 286 517 q 268 529 278 529 q 229 519 250 529 q 208 501 208 510 z "},"":{"ha":549,"x_min":76,"x_max":589,"o":"m 128 101 q 131 93 133 99 q 104 53 115 71 q 85 19 93 35 q 94 7 76 11 q 119 14 113 3 q 141 50 131 33 q 161 82 151 67 q 171 85 163 85 q 449 215 289 85 q 458 231 458 221 q 453 236 458 236 q 442 232 447 236 q 208 114 313 132 q 143 164 143 103 q 144 179 143 171 q 149 197 146 188 q 264 408 176 303 q 355 499 308 461 q 450 558 401 538 q 476 561 461 561 q 517 558 497 561 q 553 549 536 554 q 576 563 564 547 q 582 575 579 569 q 586 586 585 581 q 577 599 589 592 q 558 606 565 606 q 490 592 529 610 q 490 597 483 588 q 561 690 560 693 q 553 696 558 696 q 545 692 549 693 q 539 688 542 690 q 496 629 515 654 q 461 585 476 604 l 457 581 q 214 411 328 529 q 79 168 93 282 q 82 151 78 161 q 94 131 86 140 q 110 113 101 121 q 128 101 119 106 z "},"":{"ha":614,"x_min":10,"x_max":751,"o":"m 78 -82 q 18 -164 10 -114 q 101 -240 29 -218 q 153 -252 125 -247 q 214 -257 182 -257 q 297 -249 258 -257 q 371 -225 335 -240 q 439 -103 453 -186 q 426 -63 435 -83 q 401 -24 417 -43 q 422 -24 403 -24 q 465 -24 442 -24 q 513 -23 490 -24 q 547 -21 536 -22 q 578 -17 578 -21 q 568 -14 578 -14 q 528 -14 556 -14 q 474 -14 501 -14 q 422 -14 446 -14 q 392 -14 399 -14 q 283 101 329 53 q 206 179 236 149 q 150 272 158 232 q 211 239 171 249 q 324 221 263 221 q 406 230 368 221 q 481 254 444 239 q 549 376 563 292 q 540 406 546 390 q 522 439 535 421 q 519 447 521 444 q 514 453 517 450 q 513 456 513 454 q 542 456 531 454 q 555 460 554 458 q 544 464 556 463 q 501 464 532 465 q 392 578 438 531 q 315 657 346 626 q 276 714 292 689 q 258 758 261 739 q 292 843 250 810 q 533 918 379 918 q 636 906 590 918 q 699 869 671 897 q 722 837 713 854 q 735 797 732 819 q 737 772 738 783 q 738 756 736 760 q 743 756 739 751 q 744 760 744 758 q 747 767 744 763 q 747 815 751 792 q 714 883 742 851 q 656 921 686 911 q 551 933 614 933 q 278 854 383 933 q 235 761 226 818 q 304 646 246 708 q 396 547 354 593 q 472 463 438 501 q 426 458 449 460 q 382 453 403 456 q 281 432 326 447 q 188 396 235 417 q 126 322 125 368 q 126 283 122 303 q 194 168 135 232 q 286 68 244 114 q 363 -15 328 22 q 78 -82 186 -29 m 369 -26 q 413 -103 407 -61 q 404 -159 418 -133 q 356 -203 390 -185 q 201 -240 289 -240 q 152 -238 176 -240 q 103 -229 128 -236 q 83 -222 92 -226 q 64 -211 74 -218 q 35 -174 42 -194 q 93 -101 28 -135 q 160 -71 122 -83 q 246 -47 199 -58 q 300 -37 269 -43 q 369 -26 331 -32 m 532 378 q 521 321 539 343 q 469 276 503 299 q 401 251 442 258 q 317 245 360 243 q 236 257 275 247 q 172 281 197 267 q 143 315 147 296 q 165 354 139 333 q 254 397 192 375 q 428 438 317 418 q 451 440 438 439 q 479 439 465 442 q 516 417 501 432 q 532 378 531 401 z "},"":{"ha":356,"x_min":40,"x_max":325,"o":"m 325 782 q 322 831 325 814 q 314 854 319 847 q 306 857 308 857 q 276 846 293 857 q 253 831 258 838 q 253 796 249 825 q 261 760 257 768 q 272 756 265 756 q 306 765 288 756 q 325 782 325 774 m 114 782 q 106 854 114 843 q 96 857 103 857 q 44 831 64 857 q 44 796 40 825 q 52 762 47 768 q 63 756 57 756 q 95 765 76 756 q 114 782 114 774 z "},"":{"ha":464,"x_min":18,"x_max":449,"o":"m 79 210 q 249 369 101 251 q 254 383 258 379 q 236 382 249 389 q 26 229 42 261 q 67 36 18 218 q 76 25 71 25 q 85 40 86 25 q 79 210 68 183 m 272 210 q 325 269 283 229 q 442 369 367 310 q 444 383 449 376 q 428 381 440 388 q 218 229 236 261 q 260 36 213 217 q 269 25 263 25 q 276 40 278 25 q 272 210 260 185 z "},"":{"ha":279,"x_min":63,"x_max":242,"o":"m 242 685 q 215 746 242 721 q 151 771 189 771 q 89 746 115 771 q 63 685 63 721 q 89 623 63 649 q 151 597 115 597 q 215 623 189 597 q 242 685 242 649 m 151 614 q 101 635 122 614 q 81 685 81 656 q 101 733 81 713 q 151 754 122 754 q 201 733 179 754 q 224 685 224 713 q 201 635 224 656 q 151 614 179 614 z "},"":{"ha":332,"x_min":18,"x_max":311,"o":"m 239 521 q 250 528 250 521 q 236 535 250 535 q 97 546 97 535 q 106 551 97 549 q 169 581 138 563 q 232 624 200 600 q 311 736 311 681 q 296 782 311 760 q 239 808 276 807 q 138 785 185 813 q 126 768 126 778 q 131 767 126 764 q 208 790 171 790 q 231 786 219 790 q 272 760 256 782 q 283 721 286 740 q 213 622 275 669 q 122 567 171 589 q 81 551 101 557 q 40 539 60 544 q 18 522 18 536 q 29 517 18 515 q 110 521 72 519 q 185 522 149 522 q 214 522 200 522 q 239 521 228 522 z "},"":{"ha":346,"x_min":13,"x_max":325,"o":"m 272 576 q 279 607 279 589 q 261 652 279 633 q 215 674 243 671 q 211 676 211 674 q 215 682 211 679 q 279 714 253 697 q 318 751 306 731 q 325 776 325 765 q 281 810 325 810 q 234 804 256 810 q 194 789 213 799 q 185 775 185 781 q 188 771 185 768 q 268 790 231 790 q 292 767 292 790 q 286 740 292 753 q 266 719 279 729 q 233 699 253 710 q 164 675 194 675 q 150 665 150 675 q 153 661 150 661 q 229 644 201 667 q 249 600 249 631 q 244 578 249 588 q 161 504 226 535 q 111 486 135 493 q 65 479 88 479 q 35 497 35 479 q 26 508 33 508 q 13 490 13 508 q 67 472 13 472 q 176 500 114 474 q 272 576 249 529 z "},"":{"ha":369,"x_min":486,"x_max":751,"o":"m 503 746 q 600 781 542 761 q 738 825 658 800 q 751 844 751 829 q 729 875 751 875 q 619 824 721 875 q 528 778 558 793 q 494 763 497 764 q 489 750 486 758 q 503 746 493 743 z "},"":{"ha":279,"x_min":63,"x_max":242,"o":"m 242 685 q 215 746 242 721 q 151 771 189 771 q 89 746 115 771 q 63 685 63 721 q 89 623 63 649 q 151 597 115 597 q 215 623 189 597 q 242 685 242 649 m 151 614 q 101 635 122 614 q 81 685 81 656 q 101 733 81 713 q 151 754 122 754 q 201 733 179 754 q 224 685 224 713 q 201 635 224 656 q 151 614 179 614 z "},"":{"ha":514,"x_min":26,"x_max":458,"o":"m 397 214 q 228 53 378 175 q 224 40 217 44 q 239 43 225 32 q 301 84 269 64 q 365 125 333 104 q 450 194 444 181 q 410 386 458 204 q 400 399 407 399 q 393 383 392 399 q 397 214 408 239 m 204 214 q 35 53 183 172 q 31 40 26 44 q 46 42 33 31 q 109 83 78 63 q 172 125 140 103 q 233 169 211 153 q 258 193 254 185 q 236 300 263 201 q 206 399 211 399 q 200 383 199 399 q 204 214 217 238 z "},"":{"ha":556,"x_min":-100,"x_max":497,"o":"m 383 411 q 387 401 383 408 q 394 384 390 393 q 399 365 397 375 q 399 347 401 356 q 378 325 393 332 q 308 301 353 318 q 199 258 264 285 q 90 213 133 232 q 22 179 47 193 q -100 -17 -100 107 q -85 -111 -100 -58 q -55 -176 -74 -146 q -10 -232 -36 -206 q 135 -293 51 -293 q 182 -287 160 -293 q 238 -262 210 -281 q 289 -212 265 -244 q 296 -194 296 -203 q 292 -187 296 -187 q 275 -201 289 -187 q 179 -246 246 -246 q 57 -204 113 -246 q -26 -92 -6 -162 q -37 -49 -33 -69 q -40 -10 -40 -29 q 149 217 -40 119 q 447 326 246 269 q 457 339 457 331 q 432 386 457 354 q 393 419 408 419 q 383 411 383 419 m 415 549 q 413 534 414 544 q 415 507 413 524 q 419 483 417 492 q 424 472 421 475 q 429 468 426 468 q 435 468 432 468 q 465 476 446 468 q 491 494 485 486 q 492 531 497 501 q 483 564 489 558 q 468 569 478 569 q 435 562 453 569 q 415 549 418 554 z "},"\\":{"ha":632,"x_min":-78,"x_max":868,"o":"m 850 -108 q 865 -137 856 -137 q 868 -104 868 -129 q 503 338 856 -11 q 204 617 339 497 q -39 815 69 736 q -65 826 -51 826 q -78 815 -78 826 q -61 793 -78 803 q 185 593 51 710 q 476 325 319 476 q 850 -108 822 -7 z "},"^":{"ha":522,"x_min":493,"x_max":847,"o":"m 699 821 q 758 794 710 822 q 793 772 775 783 q 828 750 811 761 q 840 746 833 743 q 847 753 847 749 q 842 764 847 758 q 703 875 711 872 q 621 832 700 876 q 542 790 572 806 q 501 768 513 775 q 496 763 499 765 q 493 756 493 760 q 510 753 493 743 q 613 794 567 776 q 699 821 660 811 z "},"j":{"ha":319,"x_min":-1468,"x_max":676,"o":"m 22 -56 q -132 -89 -42 -68 q -328 -140 -222 -110 q -549 -206 -433 -169 q -777 -288 -664 -243 q -997 -385 -890 -333 q -1192 -495 -1103 -436 q -1346 -619 -1281 -554 q -1442 -757 -1411 -685 q -1462 -883 -1468 -819 q -1424 -1007 -1456 -947 q -1340 -1118 -1393 -1067 q -1222 -1207 -1287 -1169 q -1081 -1264 -1157 -1244 q -929 -1278 -1006 -1283 q -682 -1206 -797 -1269 q -468 -1044 -567 -1143 q -288 -820 -369 -944 q -140 -565 -207 -696 q -22 -306 -74 -433 q 65 -72 29 -178 q 196 -52 122 -60 q 343 -40 269 -44 q 479 -36 417 -36 q 579 -40 543 -36 q 635 -63 615 -43 q 643 -121 654 -83 q 614 -178 635 -147 q 565 -233 593 -208 q 553 -253 550 -249 q 575 -243 556 -258 q 625 -201 603 -219 q 665 -151 647 -183 q 672 -108 676 -131 q 653 -66 667 -85 q 619 -34 639 -47 q 582 -17 600 -21 q 488 -10 547 -10 q 359 -14 429 -10 q 214 -27 289 -18 q 75 -47 139 -36 q 110 53 92 -3 q 146 164 128 110 q 178 263 164 218 q 203 333 193 308 q 218 367 217 351 q 210 385 219 379 q 185 386 200 392 q 154 367 172 383 q 133 336 136 351 q 132 309 136 333 q 119 249 128 285 q 97 170 110 214 q 72 84 85 126 q 45 4 58 42 q 22 -56 32 -33 m -1408 -794 q -1297 -633 -1375 -711 q -1110 -486 -1219 -556 q -865 -355 -1000 -417 q -582 -242 -729 -293 q -281 -149 -435 -190 q 17 -78 -128 -108 q -46 -249 -4 -140 q -149 -487 -87 -358 q -292 -750 -211 -617 q -471 -994 -372 -883 q -685 -1176 -569 -1104 q -932 -1253 -801 -1247 q -1080 -1238 -1008 -1256 q -1211 -1187 -1151 -1221 q -1317 -1109 -1271 -1154 q -1391 -1012 -1364 -1064 q -1424 -904 -1418 -960 q -1408 -794 -1431 -849 m 296 593 q 288 617 301 606 q 260 626 274 629 q 208 589 240 622 q 176 538 176 557 q 206 514 176 519 q 258 539 224 508 q 296 593 292 569 z "},"":{"ha":275,"x_min":26,"x_max":269,"o":"m 165 544 q 221 545 206 544 q 233 551 236 546 q 224 554 233 556 q 198 556 215 554 q 156 561 181 557 q 132 576 133 565 q 133 586 132 582 q 185 699 142 624 q 242 786 225 774 q 241 797 242 793 q 242 804 240 801 q 256 814 250 810 q 265 821 261 818 q 269 829 269 824 q 260 836 265 836 q 254 835 257 836 q 104 763 214 806 q 99 759 101 760 q 96 756 97 758 q 103 751 96 751 q 105 752 104 751 q 108 753 106 753 q 151 768 131 760 q 193 783 172 776 q 197 785 194 785 q 203 781 200 785 q 201 775 203 778 q 146 654 168 707 q 110 564 124 601 q 65 562 83 563 q 39 558 47 561 q 29 546 26 558 q 42 540 32 540 q 149 544 68 544 l 165 544 z "},"":{"ha":183,"x_min":4,"x_max":154,"o":"m 126 10 q 67 -39 90 -15 q 74 -51 58 -47 q 114 -75 101 -60 q 114 -110 126 -90 q 99 -128 110 -118 q 74 -147 88 -139 q 44 -161 60 -156 q 15 -168 29 -167 q 6 -174 4 -168 q 18 -181 7 -181 q 56 -172 36 -179 q 94 -156 76 -165 q 126 -135 113 -146 q 146 -115 140 -125 q 152 -86 154 -99 q 142 -65 150 -74 q 125 -50 135 -56 q 108 -42 115 -44 q 102 -35 101 -39 q 106 -28 103 -31 q 120 -11 113 -19 q 136 3 128 -3 q 138 11 143 8 q 126 10 133 14 z "},"":{"ha":1281,"x_min":28,"x_max":1243,"o":"m 449 -6 q 663 16 554 -8 q 889 89 772 40 q 1235 310 1104 179 q 1243 325 1243 319 q 1238 332 1243 332 q 1222 322 1231 332 q 1074 213 1157 263 q 886 121 990 164 q 665 52 774 76 q 450 25 557 28 q 165 94 267 21 q 76 261 76 158 q 88 329 76 297 q 442 758 153 542 q 950 1007 714 963 q 987 1011 969 1010 q 1021 1013 1004 1013 q 1158 957 1133 1013 q 1099 885 1128 925 q 1038 796 1069 844 q 960 593 960 669 q 981 583 960 588 q 1006 583 1001 581 q 1142 697 1083 629 q 1208 801 1190 753 q 1226 903 1226 849 q 1207 982 1226 958 q 1225 1008 1225 1001 q 1219 1018 1225 1017 q 1208 1014 1210 1021 l 1190 996 q 1039 1038 1144 1038 q 964 1033 1003 1038 q 594 896 818 1015 q 381 761 478 832 q 206 611 285 690 q 28 278 28 429 q 161 71 28 150 q 226 38 192 51 q 296 13 260 24 q 261 -11 278 1 q 233 -35 244 -24 q 243 -54 222 -46 q 301 -83 285 -64 q 303 -131 318 -103 q 280 -153 296 -142 q 244 -176 264 -165 q 201 -195 224 -187 q 158 -204 179 -203 q 144 -213 143 -204 q 164 -222 146 -222 q 219 -210 190 -219 q 273 -189 247 -201 q 319 -162 299 -176 q 347 -136 339 -149 q 357 -99 360 -115 q 344 -69 354 -82 q 318 -50 333 -57 q 293 -40 303 -43 q 284 -31 283 -36 q 289 -21 285 -26 q 303 -6 296 -14 q 318 7 310 1 q 449 -6 378 -3 m 994 621 q 1063 786 1013 696 q 1113 871 1088 835 q 1165 935 1139 907 q 1179 872 1179 911 q 1161 786 1179 828 q 1010 608 1113 674 q 997 608 1004 604 q 994 621 993 611 z "},"":{"ha":432,"x_min":10,"x_max":415,"o":"m 21 126 q 57 43 21 83 q 88 17 71 25 q 70 3 78 10 q 57 -8 63 -3 q 61 -18 51 -12 q 92 -35 83 -25 q 92 -60 101 -46 q 62 -86 85 -72 q 18 -101 39 -100 q 11 -106 10 -101 q 19 -110 13 -110 q 77 -92 47 -107 q 114 -62 107 -76 q 119 -42 121 -51 q 113 -26 118 -33 q 101 -16 108 -19 q 88 -11 93 -12 q 83 -6 82 -8 q 86 0 83 -3 q 94 11 89 3 q 115 3 104 6 q 136 0 125 1 q 228 22 165 0 q 299 54 267 38 q 354 93 331 71 q 364 106 364 99 q 363 108 364 108 q 349 99 354 108 q 258 46 313 68 q 139 25 192 18 q 64 64 81 32 q 57 110 57 82 q 66 176 57 140 q 92 258 75 213 q 185 411 121 331 q 255 484 221 456 q 321 528 289 513 q 339 531 326 531 q 367 527 353 531 q 392 521 381 524 q 407 531 400 518 q 412 540 410 535 q 415 547 414 544 q 408 555 415 550 q 394 560 401 560 q 321 540 371 561 q 163 419 239 508 q 103 340 129 381 q 57 257 76 300 q 31 188 40 221 q 21 126 21 156 z "},"":{"ha":1546,"x_min":69,"x_max":1542,"o":"m 1293 438 q 1321 504 1301 457 q 1367 611 1340 551 q 1422 736 1393 671 q 1481 857 1451 801 q 1481 872 1485 865 q 1472 883 1478 878 q 1458 893 1465 889 q 1451 901 1451 897 q 1442 934 1450 921 q 1424 953 1435 947 q 1403 956 1414 958 q 1385 943 1392 954 q 1318 847 1356 901 q 1238 734 1281 793 q 1151 615 1196 675 q 1065 501 1107 556 q 987 403 1024 447 q 922 332 950 360 q 722 365 831 351 q 508 381 614 379 q 310 365 403 382 q 157 304 217 347 q 90 227 111 269 q 69 142 69 185 q 88 58 69 99 q 140 -12 107 18 q 221 -60 174 -43 q 324 -75 268 -78 q 465 -46 394 -72 q 599 19 535 -19 q 720 103 664 58 q 820 188 776 147 q 892 258 864 228 q 928 294 919 288 q 982 285 946 292 q 1058 271 1018 278 q 1132 258 1097 264 q 1182 249 1167 251 q 1168 187 1178 229 q 1151 92 1158 144 q 1143 -19 1143 39 q 1160 -128 1143 -78 q 1171 -137 1165 -139 q 1172 -118 1176 -135 q 1165 -17 1161 -75 q 1180 96 1169 42 q 1203 192 1190 150 q 1221 246 1215 235 q 1247 246 1231 244 q 1281 250 1264 247 q 1313 259 1299 253 q 1331 275 1326 265 q 1333 312 1336 289 q 1322 359 1329 335 q 1305 405 1314 383 q 1293 438 1296 426 m 168 289 q 342 349 243 335 q 542 360 440 364 q 737 338 643 356 q 897 304 831 321 q 797 195 858 257 q 659 78 735 133 q 497 -14 583 24 q 322 -50 411 -51 q 228 -31 269 -50 q 159 18 188 -12 q 116 87 131 49 q 101 163 101 125 q 118 233 101 200 q 168 289 135 267 m 954 325 q 997 374 968 339 q 1065 458 1026 410 q 1146 564 1103 507 q 1231 676 1189 621 q 1309 783 1272 732 q 1371 869 1346 833 q 1388 882 1379 881 q 1401 878 1396 883 q 1408 860 1407 872 q 1404 835 1410 849 q 1348 703 1378 772 q 1290 563 1318 635 q 1235 419 1261 492 q 1190 281 1210 347 q 1142 288 1175 282 q 1071 301 1108 293 q 1001 315 1033 308 q 954 325 968 322 m 1533 1032 q 1491 1073 1514 1050 q 1444 1119 1468 1096 q 1399 1165 1421 1143 q 1361 1203 1378 1186 q 1343 1207 1353 1210 q 1326 1196 1333 1204 q 1317 1178 1318 1188 q 1325 1161 1315 1168 q 1369 1129 1343 1147 q 1422 1092 1394 1111 q 1477 1053 1450 1072 q 1525 1019 1504 1035 q 1536 1019 1531 1014 q 1533 1032 1542 1025 m 1308 293 q 1272 277 1297 279 q 1232 275 1247 275 q 1242 304 1235 285 q 1257 345 1249 324 q 1273 388 1265 367 q 1285 419 1281 408 q 1299 385 1292 404 q 1310 349 1306 367 q 1314 317 1314 332 q 1308 293 1314 301 z "},"":{"ha":1526,"x_min":58,"x_max":1507,"o":"m 1256 450 q 1283 519 1264 471 q 1326 630 1301 568 q 1381 758 1351 692 q 1439 881 1410 825 q 1439 896 1443 889 q 1428 908 1435 903 q 1416 917 1422 913 q 1410 926 1410 922 q 1400 958 1408 944 q 1381 977 1392 971 q 1360 981 1371 983 q 1343 968 1349 979 q 1279 869 1315 925 q 1202 753 1243 814 q 1118 632 1161 693 q 1035 516 1075 571 q 958 415 994 461 q 896 342 922 369 q 701 378 807 363 q 493 394 596 393 q 301 378 390 396 q 154 314 211 360 q 73 192 88 260 q 84 63 58 124 q 169 -37 110 3 q 311 -74 229 -76 q 448 -44 379 -71 q 580 23 517 -17 q 698 108 643 63 q 795 195 753 154 q 865 267 838 236 q 900 306 893 297 q 953 294 918 301 q 1027 281 989 288 q 1099 267 1065 274 q 1149 258 1133 260 q 1134 196 1144 239 q 1117 97 1124 153 q 1111 -17 1111 42 q 1128 -126 1111 -76 q 1138 -137 1133 -139 q 1139 -118 1143 -135 q 1131 -14 1128 -74 q 1145 102 1135 46 q 1168 201 1156 158 q 1186 256 1181 244 q 1212 256 1196 256 q 1244 260 1228 257 q 1274 269 1261 264 q 1292 285 1288 275 q 1295 322 1299 299 q 1284 371 1292 346 q 1268 417 1276 396 q 1256 450 1260 439 m 165 299 q 331 361 236 346 q 525 371 426 376 q 715 348 624 365 q 871 314 806 331 q 774 203 833 265 q 640 84 714 140 q 481 -10 565 28 q 310 -49 397 -49 q 220 -29 260 -49 q 153 22 181 -10 q 113 92 126 53 q 99 169 99 131 q 116 242 100 208 q 165 299 132 276 m 928 335 q 969 385 940 349 q 1034 472 997 422 q 1113 581 1071 522 q 1195 696 1154 639 q 1272 804 1236 753 q 1331 892 1307 856 q 1346 906 1338 904 q 1360 901 1354 907 q 1366 884 1365 896 q 1361 857 1367 872 q 1308 722 1336 793 q 1252 578 1279 651 q 1200 433 1225 506 q 1157 292 1175 360 q 1110 297 1143 292 q 1041 310 1078 303 q 972 324 1004 317 q 928 335 940 331 m 1263 1069 q 1319 1092 1288 1081 q 1383 1116 1351 1104 q 1442 1138 1414 1128 q 1492 1157 1471 1149 q 1505 1171 1503 1161 q 1503 1191 1507 1181 q 1492 1208 1500 1201 q 1476 1210 1485 1214 q 1429 1185 1457 1200 q 1370 1152 1401 1169 q 1308 1118 1339 1135 q 1254 1089 1278 1101 q 1249 1076 1244 1085 q 1263 1069 1253 1067 m 1269 303 q 1235 285 1260 288 q 1196 285 1211 283 q 1206 315 1199 294 q 1221 358 1213 335 q 1237 401 1229 381 q 1249 435 1244 422 q 1262 398 1256 418 q 1272 360 1268 378 q 1275 326 1275 342 q 1269 303 1275 311 z "},"":{"ha":1496,"x_min":68,"x_max":1501,"o":"m 1274 479 q 1301 551 1282 500 q 1345 667 1319 603 q 1400 802 1371 732 q 1458 931 1429 872 q 1459 946 1463 939 q 1449 958 1456 953 q 1437 969 1443 964 q 1431 979 1431 974 q 1421 1013 1429 999 q 1401 1033 1413 1026 q 1379 1038 1390 1039 q 1363 1024 1368 1036 q 1298 919 1335 978 q 1220 798 1261 861 q 1135 671 1179 735 q 1050 549 1092 607 q 972 444 1008 492 q 908 367 936 396 q 781 392 849 381 q 642 412 713 404 q 500 419 571 419 q 367 412 431 419 q 249 385 303 404 q 156 335 194 367 q 89 252 110 297 q 68 161 68 207 q 86 74 68 117 q 138 -2 104 31 q 217 -53 171 -35 q 318 -69 263 -72 q 456 -39 388 -67 q 589 30 525 -11 q 708 119 653 71 q 807 212 764 168 q 878 288 850 256 q 914 329 906 319 q 967 317 932 325 q 1042 301 1003 310 q 1115 286 1081 293 q 1165 278 1150 279 q 1151 211 1161 257 q 1134 108 1142 165 q 1126 -11 1126 51 q 1143 -126 1126 -74 q 1154 -137 1149 -139 q 1156 -118 1160 -135 q 1149 -8 1144 -71 q 1163 113 1153 54 q 1186 217 1174 172 q 1204 275 1199 263 q 1229 276 1213 275 q 1263 280 1246 276 q 1293 290 1279 283 q 1311 306 1307 296 q 1313 346 1317 321 q 1302 397 1310 371 q 1286 446 1294 424 q 1274 479 1278 468 m 167 319 q 337 385 240 369 q 533 396 433 401 q 726 372 633 390 q 883 335 818 353 q 784 219 844 285 q 649 94 724 153 q 489 -5 574 36 q 317 -46 404 -46 q 225 -25 265 -46 q 157 28 185 -4 q 115 102 129 61 q 101 184 100 143 q 117 261 101 225 q 167 319 133 297 m 942 361 q 983 413 954 375 q 1049 503 1011 451 q 1129 615 1086 554 q 1213 736 1172 676 q 1290 850 1254 796 q 1350 943 1326 904 q 1367 957 1358 956 q 1380 952 1375 958 q 1386 934 1385 946 q 1381 906 1388 922 q 1327 765 1356 839 q 1271 615 1299 692 q 1217 460 1243 538 q 1174 311 1192 383 q 1125 319 1158 313 q 1056 333 1092 325 q 987 349 1019 340 q 942 361 954 357 m 1400 1174 q 1440 1150 1408 1175 q 1464 1130 1451 1139 q 1488 1110 1476 1121 q 1496 1106 1493 1104 q 1500 1109 1499 1108 q 1501 1114 1501 1110 q 1501 1116 1501 1114 q 1497 1121 1500 1118 q 1429 1197 1453 1172 q 1403 1224 1406 1222 q 1349 1186 1401 1225 q 1297 1146 1317 1160 q 1268 1128 1276 1132 q 1265 1120 1265 1122 q 1264 1114 1264 1118 q 1274 1114 1264 1104 q 1344 1151 1313 1136 q 1400 1174 1376 1167 m 1289 325 q 1254 307 1279 310 q 1215 306 1229 304 q 1224 336 1218 315 q 1239 381 1231 357 q 1255 427 1247 406 q 1267 461 1263 449 q 1281 424 1274 444 q 1291 385 1288 404 q 1294 349 1294 365 q 1289 325 1294 333 z "},"":{"ha":1457,"x_min":67,"x_max":1532,"o":"m 1246 468 q 1271 538 1253 488 q 1314 651 1289 588 q 1367 783 1339 714 q 1424 911 1396 853 q 1425 926 1428 919 q 1416 938 1422 932 q 1403 948 1410 943 q 1396 958 1397 953 q 1387 990 1394 976 q 1369 1010 1379 1004 q 1347 1015 1358 1017 q 1329 1001 1336 1013 q 1267 899 1303 957 q 1190 780 1231 842 q 1107 655 1150 718 q 1024 535 1064 592 q 948 433 983 479 q 886 357 913 386 q 694 393 799 378 q 489 409 590 408 q 298 391 388 410 q 153 325 208 372 q 88 245 108 289 q 67 156 67 201 q 84 69 67 111 q 133 -4 101 28 q 210 -55 165 -36 q 308 -71 256 -74 q 444 -41 376 -68 q 574 27 513 -14 q 691 115 636 68 q 788 205 746 163 q 856 279 829 247 q 890 319 883 311 q 942 308 907 315 q 1016 293 978 301 q 1089 278 1054 285 q 1139 269 1124 271 q 1124 206 1135 250 q 1107 105 1114 161 q 1100 -12 1100 49 q 1115 -126 1100 -74 q 1127 -137 1122 -139 q 1128 -119 1132 -135 q 1120 -10 1117 -72 q 1134 109 1124 51 q 1157 211 1144 167 q 1176 268 1169 256 q 1202 268 1186 267 q 1234 273 1218 269 q 1263 283 1250 276 q 1281 299 1276 289 q 1283 337 1286 313 q 1272 387 1279 361 q 1257 435 1265 413 q 1246 468 1249 457 m 164 310 q 328 375 235 360 q 519 385 422 390 q 708 362 617 381 q 861 325 799 343 q 766 212 825 276 q 634 90 707 147 q 477 -8 561 32 q 307 -46 393 -47 q 218 -26 257 -46 q 152 26 179 -6 q 111 98 125 58 q 98 177 97 138 q 115 252 99 217 q 164 310 131 288 m 918 351 q 958 403 931 365 q 1023 491 986 440 q 1101 601 1060 542 q 1183 719 1143 661 q 1258 831 1224 778 q 1317 921 1293 883 q 1333 935 1325 933 q 1347 932 1342 938 q 1353 915 1353 926 q 1349 886 1354 903 q 1296 749 1324 821 q 1241 601 1268 676 q 1189 450 1214 525 q 1146 304 1164 375 q 1099 311 1132 306 q 1030 324 1067 317 q 962 340 993 332 q 918 351 931 347 m 1219 1143 q 1255 1165 1235 1156 q 1299 1175 1275 1175 q 1331 1167 1311 1175 q 1369 1149 1350 1158 q 1408 1132 1389 1140 q 1440 1124 1428 1124 q 1464 1130 1453 1124 q 1485 1145 1475 1136 q 1506 1165 1496 1154 q 1522 1182 1515 1175 q 1528 1202 1532 1197 q 1510 1194 1524 1207 q 1483 1174 1496 1179 q 1440 1169 1471 1169 q 1407 1178 1426 1169 q 1367 1196 1388 1186 q 1329 1214 1347 1206 q 1299 1222 1311 1222 q 1275 1215 1288 1222 q 1251 1198 1263 1208 q 1230 1176 1240 1188 q 1211 1157 1219 1165 q 1203 1136 1203 1143 q 1219 1143 1204 1129 m 1261 317 q 1226 298 1250 300 q 1188 299 1201 296 q 1197 328 1190 308 q 1210 372 1203 349 q 1226 416 1218 394 q 1238 450 1233 438 q 1251 413 1244 432 q 1261 374 1257 393 q 1265 340 1265 356 q 1261 317 1265 325 z "},"":{"ha":1458,"x_min":11,"x_max":1450,"o":"m 1219 472 q 1247 544 1228 493 q 1291 658 1265 594 q 1346 790 1317 721 q 1404 918 1375 860 q 1405 934 1408 928 q 1395 946 1401 940 q 1382 956 1389 951 q 1375 965 1375 960 q 1366 999 1374 985 q 1348 1019 1358 1013 q 1326 1023 1338 1025 q 1308 1008 1315 1021 q 1244 906 1281 964 q 1165 786 1207 849 q 1081 660 1124 724 q 997 540 1038 597 q 919 437 956 483 q 857 361 883 390 q 660 397 767 382 q 449 413 553 413 q 256 396 346 414 q 107 331 165 378 q 25 204 39 275 q 38 71 11 133 q 124 -33 64 8 q 268 -71 185 -74 q 406 -40 338 -68 q 538 28 475 -12 q 657 117 601 69 q 756 208 713 165 q 826 283 799 251 q 861 322 854 314 q 915 312 879 319 q 989 297 950 304 q 1063 282 1028 289 q 1113 274 1097 275 q 1098 208 1108 253 q 1081 106 1088 163 q 1074 -12 1074 49 q 1090 -126 1075 -74 q 1101 -137 1096 -139 q 1101 -118 1107 -135 q 1094 -10 1090 -72 q 1109 110 1099 51 q 1131 213 1119 168 q 1149 269 1143 257 q 1175 270 1158 269 q 1208 275 1192 271 q 1238 285 1225 279 q 1256 301 1251 292 q 1258 340 1261 315 q 1247 390 1254 364 q 1231 438 1239 415 q 1219 472 1222 461 m 118 315 q 287 379 190 364 q 483 390 383 394 q 674 367 582 385 q 831 331 765 349 q 733 215 793 281 q 597 92 672 150 q 438 -6 522 33 q 265 -46 353 -46 q 174 -26 214 -46 q 107 27 135 -6 q 65 100 79 60 q 52 181 51 140 q 69 257 53 221 q 118 315 85 293 m 889 353 q 930 406 901 368 q 995 494 958 443 q 1075 606 1032 546 q 1159 726 1118 667 q 1236 838 1200 785 q 1296 931 1272 892 q 1311 944 1303 943 q 1325 940 1319 946 q 1332 921 1331 933 q 1328 893 1333 908 q 1273 755 1301 828 q 1217 606 1244 682 q 1163 454 1189 531 q 1119 307 1138 378 q 1073 313 1106 307 q 1003 327 1040 319 q 934 342 967 335 q 889 353 901 350 m 1235 319 q 1199 302 1224 304 q 1160 301 1174 300 q 1169 331 1163 310 q 1184 375 1176 351 q 1199 421 1192 399 q 1211 456 1207 443 q 1236 379 1226 419 q 1235 319 1246 339 m 1450 1131 q 1449 1148 1450 1136 q 1447 1173 1449 1160 q 1444 1197 1446 1186 q 1438 1211 1442 1208 q 1426 1213 1435 1215 q 1408 1207 1418 1211 q 1389 1197 1397 1203 q 1378 1186 1381 1190 q 1375 1171 1375 1182 q 1376 1147 1375 1160 q 1381 1121 1378 1133 q 1386 1104 1383 1108 q 1401 1101 1390 1100 q 1423 1108 1413 1103 q 1442 1119 1433 1113 q 1450 1131 1450 1125 m 1311 1133 q 1310 1149 1311 1138 q 1309 1174 1310 1161 q 1306 1199 1308 1188 q 1301 1213 1304 1210 q 1289 1215 1297 1217 q 1271 1209 1281 1214 q 1252 1198 1261 1204 q 1240 1188 1243 1192 q 1238 1172 1238 1183 q 1240 1147 1239 1160 q 1244 1122 1242 1133 q 1250 1106 1247 1110 q 1263 1103 1253 1101 q 1284 1109 1274 1104 q 1303 1121 1294 1114 q 1311 1133 1311 1128 z "},"":{"ha":1479,"x_min":60,"x_max":1469,"o":"m 1278 476 q 1306 548 1286 497 q 1350 663 1325 599 q 1405 798 1375 728 q 1464 926 1435 868 q 1465 942 1469 935 q 1455 954 1461 949 q 1442 965 1449 960 q 1435 974 1435 969 q 1425 1008 1433 993 q 1406 1028 1417 1022 q 1384 1033 1396 1035 q 1365 1018 1372 1031 q 1301 915 1338 972 q 1222 794 1264 857 q 1137 668 1181 732 q 1052 547 1093 604 q 975 441 1011 489 q 913 364 939 393 q 715 401 822 386 q 503 417 608 417 q 307 399 399 418 q 157 333 215 381 q 74 206 89 278 q 87 72 60 135 q 175 -32 114 10 q 319 -71 236 -74 q 458 -40 389 -68 q 591 29 528 -12 q 710 119 654 71 q 810 210 767 167 q 881 285 853 253 q 917 326 910 318 q 971 315 935 322 q 1046 299 1007 307 q 1119 283 1085 290 q 1169 275 1154 276 q 1155 209 1165 254 q 1138 107 1144 164 q 1131 -11 1131 50 q 1146 -126 1131 -74 q 1158 -137 1153 -139 q 1160 -119 1163 -135 q 1152 -10 1149 -72 q 1166 112 1156 53 q 1189 216 1176 171 q 1207 274 1201 261 q 1233 274 1217 274 q 1267 278 1250 275 q 1297 288 1283 282 q 1314 304 1310 294 q 1316 344 1319 319 q 1306 394 1313 368 q 1290 443 1299 421 q 1278 476 1282 465 m 168 318 q 276 369 217 351 q 402 392 336 386 q 535 393 468 397 q 666 380 603 389 q 786 358 729 371 q 886 333 843 344 q 787 218 847 283 q 651 94 726 153 q 491 -4 576 36 q 318 -44 406 -44 q 226 -24 267 -44 q 157 28 185 -4 q 115 102 129 61 q 101 183 100 143 q 118 260 101 224 q 168 318 135 296 m 944 358 q 985 410 957 372 q 1051 500 1014 449 q 1132 612 1089 551 q 1216 732 1175 672 q 1294 846 1257 792 q 1354 938 1331 900 q 1383 947 1369 961 q 1386 900 1397 933 q 1331 760 1360 833 q 1274 610 1303 686 q 1221 458 1246 535 q 1176 310 1196 382 q 1129 316 1163 310 q 1059 330 1096 322 q 990 346 1022 338 q 944 358 957 354 m 1467 1163 q 1450 1210 1467 1190 q 1410 1231 1433 1231 q 1369 1210 1386 1231 q 1353 1163 1353 1190 q 1369 1119 1353 1138 q 1410 1101 1386 1101 q 1450 1119 1433 1101 q 1467 1163 1467 1138 m 1410 1115 q 1377 1129 1390 1115 q 1364 1163 1364 1143 q 1377 1201 1364 1186 q 1410 1215 1390 1215 q 1441 1201 1428 1215 q 1454 1163 1454 1186 q 1441 1129 1454 1143 q 1410 1115 1428 1115 m 1294 324 q 1258 306 1283 308 q 1221 304 1233 303 q 1228 335 1222 314 q 1242 379 1235 356 q 1258 424 1250 403 q 1269 458 1265 446 q 1285 422 1278 442 q 1296 383 1292 401 q 1300 347 1300 364 q 1294 324 1300 332 z "},"":{"ha":693,"x_min":-7,"x_max":1122,"o":"m 878 311 q 996 290 950 308 q 1065 244 1042 272 q 1090 180 1088 215 q 1080 108 1093 144 q 1041 36 1067 71 q 981 -25 1015 1 q 756 -146 879 -103 q 500 -196 633 -189 q 467 -193 485 -197 q 450 -189 450 -189 q 430 -178 432 -185 q 422 -174 428 -172 q 408 -188 407 -181 q 425 -203 408 -196 q 459 -210 436 -208 q 500 -210 482 -211 q 764 -160 635 -203 q 997 -42 893 -118 q 1090 65 1058 3 q 1114 185 1122 128 q 1050 282 1106 242 q 881 325 994 322 q 711 313 796 326 q 547 274 626 299 q 394 215 467 249 q 258 147 321 182 q 236 167 249 153 q 212 198 224 181 q 191 234 200 215 q 181 269 182 253 q 193 323 176 296 q 238 377 210 350 q 303 428 267 404 q 374 472 339 453 q 439 503 408 490 q 486 521 469 517 q 556 521 522 531 q 608 504 590 511 q 622 507 614 503 q 640 517 631 511 q 658 531 650 524 q 671 543 667 538 q 670 560 676 550 q 656 569 664 569 q 543 556 604 571 q 420 515 482 540 q 301 455 358 489 q 201 385 244 421 q 133 312 157 349 q 113 244 108 275 q 125 203 115 222 q 146 169 135 185 q 169 138 157 153 q 190 110 182 124 q 149 81 175 99 q 97 44 124 64 q 44 4 69 25 q 3 -35 18 -17 q 11 -54 -7 -49 q 35 -53 24 -56 q 61 -47 46 -50 q 118 -50 82 -56 q 191 -30 154 -44 q 260 5 228 -15 q 304 46 292 25 q 302 87 315 65 q 275 128 289 108 q 417 203 344 168 q 567 263 490 238 q 721 301 643 288 q 878 311 799 314 m 74 -21 q 101 6 82 -11 q 142 39 119 22 q 183 69 164 56 q 210 86 201 82 q 221 75 214 82 q 234 59 228 68 q 242 40 240 50 q 236 19 243 29 q 207 -3 228 8 q 162 -22 186 -14 q 115 -35 138 -31 q 79 -36 92 -39 q 74 -21 63 -33 m 340 622 q 306 647 332 621 q 264 693 285 668 q 257 699 260 700 q 253 690 253 696 q 256 678 253 689 q 338 565 336 567 q 386 610 339 563 q 433 652 415 636 q 457 674 450 668 q 461 688 461 679 q 450 690 461 700 q 390 649 418 665 q 340 622 363 632 z "},"":{"ha":764,"x_min":-339,"x_max":739,"o":"m 244 -35 q 340 86 315 21 q 353 213 364 151 q 317 317 343 264 q 258 419 290 369 q 192 513 225 469 q 135 589 158 557 q 96 653 113 615 q 78 731 79 690 q 95 813 76 771 q 163 893 114 856 q 253 949 200 924 q 366 990 306 974 q 492 1010 426 1006 q 625 1003 558 1015 q 676 983 656 997 q 706 951 696 969 q 718 911 717 932 q 713 872 719 890 q 686 839 704 856 q 649 809 668 822 q 611 786 629 796 q 583 774 593 776 q 571 767 575 771 q 567 759 567 763 q 574 754 568 756 q 590 756 579 753 q 627 773 604 761 q 674 801 650 785 q 715 836 697 817 q 736 875 733 856 q 735 913 739 890 q 718 958 731 935 q 684 1000 706 981 q 631 1028 663 1019 q 536 1044 590 1040 q 419 1036 482 1047 q 286 997 356 1025 q 146 919 217 969 q 72 839 94 883 q 47 748 49 794 q 64 655 46 701 q 114 571 82 608 q 168 501 136 546 q 231 406 200 457 q 287 301 263 354 q 317 201 311 247 q 313 144 319 174 q 291 86 306 114 q 256 33 276 58 q 214 -10 236 8 q 78 -84 153 -60 q -67 -111 4 -108 q -201 -98 -139 -114 q -303 -50 -264 -82 q -328 -42 -317 -39 q -319 -62 -339 -44 q -275 -92 -306 -76 q -201 -119 -244 -107 q -106 -137 -158 -132 q 4 -135 -54 -143 q 124 -104 63 -128 q 244 -35 185 -81 m 389 1126 q 354 1151 381 1125 q 314 1197 331 1175 q 306 1203 308 1204 q 301 1194 301 1200 q 304 1182 301 1193 q 386 1069 385 1071 q 435 1114 388 1067 q 481 1156 464 1140 q 506 1178 499 1172 q 510 1192 510 1183 q 500 1194 510 1204 q 440 1153 468 1169 q 389 1126 411 1136 z "},"":{"ha":738,"x_min":-94,"x_max":928,"o":"m 904 860 q 918 972 928 921 q 877 1061 908 1024 q 799 1119 846 1099 q 701 1136 751 1139 q 643 1123 675 1136 q 576 1085 611 1110 q 507 1026 542 1061 q 442 947 472 992 q 333 779 381 864 q 246 622 286 694 q 169 607 215 614 q 88 581 124 600 q 75 565 79 575 q 74 546 71 554 q 85 534 76 538 q 110 540 93 531 q 169 559 139 556 q 219 565 200 563 q 131 351 176 469 q 43 106 85 232 q -34 -148 1 -21 q -90 -387 -69 -275 q -91 -419 -94 -407 q -82 -435 -87 -432 q -69 -430 -76 -437 q -57 -401 -61 -422 q 49 -24 -11 -210 q 180 332 110 163 q 328 649 250 501 q 488 908 406 796 q 604 1035 550 996 q 704 1083 658 1075 q 801 1076 764 1094 q 856 1024 839 1057 q 872 951 872 990 q 857 883 871 913 q 786 788 832 833 q 686 703 740 742 q 576 632 632 664 q 475 576 521 600 q 402 523 422 549 q 388 474 382 497 q 426 431 394 450 q 507 397 457 411 q 558 381 531 390 q 613 365 586 372 q 700 308 681 347 q 681 221 719 268 q 595 147 642 176 q 497 98 549 118 q 392 67 446 78 q 285 49 339 56 q 258 51 269 47 q 242 60 247 54 q 240 74 236 65 q 258 90 243 82 q 263 108 274 99 q 217 104 251 117 q 190 87 201 100 q 176 58 179 74 q 175 38 171 50 q 190 15 179 25 q 219 -3 201 4 q 261 -8 238 -10 q 382 10 314 -4 q 517 51 450 25 q 643 116 583 78 q 739 203 703 154 q 753 262 757 231 q 732 322 749 293 q 692 371 715 350 q 653 399 669 392 q 626 409 642 403 q 592 422 610 415 q 557 434 574 428 q 529 444 540 440 q 469 485 474 465 q 521 532 464 504 q 618 588 560 551 q 734 669 676 625 q 839 764 792 714 q 904 860 886 814 z "},"u":{"ha":653,"x_min":13,"x_max":619,"o":"m 615 413 q 619 433 619 419 q 613 458 618 446 q 597 474 607 469 q 575 465 588 478 q 479 371 533 428 q 366 254 425 314 q 247 140 307 194 q 132 51 186 85 q 80 48 97 32 q 79 121 63 64 q 115 208 89 158 q 172 311 140 258 q 240 415 204 364 q 307 506 275 467 q 318 531 319 522 q 308 543 317 540 q 288 542 300 546 q 269 531 276 539 q 227 477 251 510 q 175 404 203 444 q 120 319 147 364 q 70 230 93 274 q 33 144 47 186 q 15 71 18 103 q 36 12 13 36 q 97 0 60 -12 q 166 45 119 7 q 267 133 213 83 q 374 233 321 182 q 461 317 428 283 q 494 328 486 342 q 494 294 503 315 q 473 244 485 271 q 451 189 461 217 q 435 132 442 161 q 429 76 429 103 q 437 49 429 63 q 455 26 444 36 q 478 10 465 15 q 499 7 490 4 q 537 27 517 14 q 571 56 557 40 q 585 83 588 71 q 561 79 583 94 q 539 67 553 74 q 515 58 525 61 q 495 53 506 56 q 478 52 485 50 q 467 65 471 54 q 468 101 464 76 q 489 171 472 129 q 527 256 506 213 q 572 342 549 300 q 615 413 596 383 z "},"\u0019":{"ha":568,"x_min":-76,"x_max":869,"o":"m -58 -108 q 48 50 -46 -58 q 315 325 142 158 q 606 593 472 476 q 853 793 740 710 q 869 815 869 806 q 857 826 869 826 q 829 815 844 826 q 587 617 721 736 q 289 338 453 497 q -76 -104 -67 -11 q -74 -137 -76 -129 q -58 -108 -65 -137 z "},"\b":{"ha":199,"x_min":50,"x_max":165,"o":"m 165 1010 q 148 1050 165 1033 q 107 1067 131 1067 q 67 1050 83 1067 q 50 1010 50 1033 q 67 970 50 986 q 107 954 83 954 q 148 970 131 954 q 165 1010 165 986 m 107 965 q 75 978 88 965 q 63 1010 63 992 q 75 1042 63 1029 q 107 1056 88 1056 q 140 1042 126 1056 q 153 1010 153 1029 q 140 978 153 992 q 107 965 126 965 z "},"\f":{"ha":279,"x_min":39,"x_max":247,"o":"m 126 840 q 92 867 118 839 q 50 913 71 888 q 43 917 46 918 q 39 908 39 914 q 42 897 39 906 q 124 783 121 785 q 172 828 125 781 q 219 870 201 854 q 243 892 236 886 q 247 906 247 900 q 236 908 247 918 q 176 867 204 883 q 126 840 149 850 z "},"":{"ha":703,"x_min":26,"x_max":690,"o":"m 403 -31 q 442 81 404 7 q 485 167 450 96 q 504 165 490 165 q 543 165 519 165 q 556 173 549 165 q 563 185 563 181 q 560 186 563 189 q 539 185 556 185 q 493 189 522 186 q 522 240 501 204 q 574 332 542 276 q 630 431 606 390 q 674 503 654 471 l 674 504 q 667 508 674 508 q 629 489 638 508 q 539 324 579 399 q 468 194 499 250 q 457 194 468 194 q 426 196 446 194 q 392 197 408 196 q 358 197 375 197 q 327 197 340 197 q 303 194 314 196 q 338 237 311 206 q 410 317 364 268 q 494 405 458 369 q 554 460 529 440 q 558 469 558 464 q 550 481 558 481 q 546 479 547 481 q 488 424 521 456 q 411 340 456 392 q 290 194 325 244 q 284 185 288 188 q 278 182 281 183 q 263 168 263 169 q 258 154 258 161 q 264 136 258 136 q 267 139 265 136 q 275 151 269 142 q 289 165 282 163 q 324 169 301 168 q 382 168 346 169 q 428 168 410 168 q 457 167 447 168 q 394 -28 397 40 q 399 -42 392 -42 q 403 -31 403 -42 m 39 26 q 301 374 56 104 q 506 588 411 494 q 681 749 600 682 q 690 767 690 761 q 682 776 690 776 q 663 767 674 776 q 283 383 511 640 q 26 29 35 103 q 29 3 26 8 q 39 26 32 3 m 169 400 q 228 401 211 400 q 244 411 244 403 q 233 415 244 418 q 164 425 211 413 q 140 443 140 428 q 146 458 140 451 q 174 524 154 485 q 224 615 194 564 q 272 696 251 665 q 301 738 292 726 q 304 753 304 746 q 306 761 304 760 q 324 774 315 768 q 336 785 332 781 q 339 796 339 788 q 333 806 339 806 q 326 801 332 806 q 154 701 275 763 q 149 698 150 700 q 146 693 147 696 q 144 689 143 690 q 149 688 146 688 q 157 690 151 688 q 204 710 181 700 q 253 735 228 721 q 254 735 253 735 q 257 736 256 736 q 261 731 261 736 q 257 719 261 724 q 175 553 210 626 q 118 428 140 481 q 70 424 89 425 q 39 419 51 422 q 29 403 29 418 q 39 396 29 396 q 151 400 68 400 l 169 400 z "},"":{"ha":703,"x_min":26,"x_max":690,"o":"m 39 26 q 301 374 56 104 q 506 588 411 494 q 681 749 600 682 q 690 767 690 761 q 682 776 690 776 q 663 767 674 776 q 283 383 511 640 q 26 29 35 103 q 29 3 26 8 q 39 26 32 3 m 522 33 q 533 42 533 33 q 521 51 533 51 q 371 69 371 51 q 374 74 371 72 q 381 78 378 75 q 448 118 414 93 q 517 178 482 143 q 578 258 560 218 q 597 332 597 297 q 582 397 597 371 q 522 435 565 426 q 413 400 474 440 q 401 376 401 394 q 404 374 401 374 q 448 398 428 392 q 489 404 468 404 l 514 404 q 538 391 526 400 q 558 365 549 382 q 569 340 565 353 q 569 311 572 326 q 494 174 561 244 q 448 132 471 150 q 397 97 425 114 q 353 76 376 85 q 308 63 329 68 q 288 35 288 56 q 300 28 288 26 q 463 36 385 36 q 496 35 482 36 q 522 33 510 35 m 169 400 q 228 401 211 400 q 244 411 244 403 q 233 415 244 418 q 164 425 211 413 q 140 443 140 428 q 146 458 140 451 q 174 524 154 485 q 224 615 194 564 q 272 696 251 665 q 301 738 292 726 q 304 753 304 746 q 306 761 304 760 q 324 774 315 768 q 336 785 332 781 q 339 796 339 788 q 333 806 339 806 q 326 801 332 806 q 154 701 275 763 q 149 698 150 700 q 146 693 147 696 q 144 689 143 690 q 149 688 146 688 q 157 690 151 688 q 204 710 181 700 q 253 735 228 721 q 254 735 253 735 q 257 736 256 736 q 261 731 261 736 q 257 719 261 724 q 175 553 210 626 q 118 428 140 481 q 70 424 89 425 q 39 419 51 422 q 29 403 29 418 q 39 396 29 396 q 151 400 68 400 l 169 400 z "},"":{"ha":703,"x_min":26,"x_max":690,"o":"m 403 -31 q 442 81 404 7 q 485 167 450 96 q 504 165 490 165 q 543 165 519 165 q 556 173 549 165 q 563 185 563 181 q 560 186 563 189 q 539 185 556 185 q 493 189 522 186 q 522 240 501 204 q 574 332 542 276 q 630 431 606 390 q 674 503 654 471 l 674 504 q 667 508 674 508 q 629 489 638 508 q 539 324 579 399 q 468 194 499 250 q 457 194 468 194 q 426 196 446 194 q 392 197 408 196 q 358 197 375 197 q 327 197 340 197 q 303 194 314 196 q 338 237 311 206 q 410 317 364 268 q 494 405 458 369 q 554 460 529 440 q 558 469 558 464 q 550 481 558 481 q 546 479 547 481 q 488 424 521 456 q 411 340 456 392 q 290 194 325 244 q 284 185 288 188 q 278 182 281 183 q 263 168 263 169 q 258 154 258 161 q 264 136 258 136 q 267 139 265 136 q 275 151 269 142 q 289 165 282 163 q 324 169 301 168 q 382 168 346 169 q 428 168 410 168 q 457 167 447 168 q 394 -28 397 40 q 399 -42 392 -42 q 403 -31 403 -42 m 331 551 q 336 599 336 574 q 316 671 336 642 q 265 704 296 700 q 261 708 261 706 q 264 717 261 715 q 379 828 349 763 q 389 867 389 847 q 338 919 389 919 q 287 910 310 919 q 242 885 264 901 q 231 863 231 879 q 235 858 231 856 q 281 882 258 875 q 322 889 303 889 q 350 851 350 889 q 349 831 350 840 q 342 813 347 822 q 320 778 335 794 q 286 746 306 761 q 206 707 242 707 q 195 702 201 707 q 189 690 189 697 q 196 686 189 686 q 279 660 253 690 q 303 590 303 636 q 299 551 303 572 q 203 438 271 482 q 149 408 175 418 q 99 399 124 399 q 63 426 63 399 q 53 444 63 444 q 42 435 46 444 q 39 417 39 425 q 99 388 39 386 q 219 428 156 390 q 288 483 261 453 q 331 551 315 514 m 39 26 q 301 374 56 104 q 506 588 411 494 q 681 749 600 682 q 690 767 690 761 q 682 776 690 776 q 663 767 674 776 q 283 383 511 640 q 26 29 35 103 q 29 3 26 8 q 39 26 32 3 z "},"":{"ha":614,"x_min":-17,"x_max":899,"o":"m 50 -39 q 147 26 94 -11 q 260 117 200 64 q 367 213 321 168 q 447 299 414 258 q 453 301 450 301 q 454 286 463 301 q 408 207 431 250 q 361 113 385 164 q 302 -41 322 29 q 279 -169 282 -111 q 325 -278 276 -240 q 438 -314 369 -314 q 478 -310 458 -314 q 518 -300 499 -307 q 707 -178 593 -271 q 815 -77 769 -125 q 892 18 861 -29 q 899 33 899 28 q 897 39 899 36 q 881 25 892 39 q 700 -153 815 -60 q 507 -272 582 -249 q 410 -289 458 -289 q 301 -196 301 -289 q 301 -182 301 -189 q 303 -169 301 -176 q 348 1 315 -89 q 439 188 381 90 q 515 310 475 250 q 594 433 556 371 q 592 444 596 438 q 582 450 589 450 q 575 447 578 450 q 538 429 558 433 q 513 431 535 428 q 444 443 476 443 q 388 432 414 443 q 272 367 335 410 q 138 253 208 324 q -17 -1 -17 99 q 18 -49 -17 -49 q 50 -39 36 -49 m 74 79 q 204 274 113 171 q 369 400 304 383 q 401 404 386 404 q 448 392 431 404 q 465 364 465 379 q 461 353 465 357 q 277 153 364 235 q 113 21 190 71 q 92 14 101 14 q 67 47 67 14 q 74 79 67 63 m 521 583 q 480 622 503 600 q 433 665 457 643 q 388 708 410 688 q 350 744 365 729 q 332 749 342 751 q 315 738 322 746 q 307 721 308 731 q 314 706 306 711 q 358 674 332 692 q 410 639 383 657 q 465 603 438 621 q 513 571 492 585 q 524 572 518 567 q 521 583 529 576 z "},"":{"ha":614,"x_min":-17,"x_max":899,"o":"m 50 -39 q 147 26 94 -11 q 260 117 200 64 q 367 213 321 168 q 447 299 414 258 q 453 301 450 301 q 454 286 463 301 q 408 207 431 250 q 361 113 385 164 q 302 -41 322 29 q 279 -169 282 -111 q 325 -278 276 -240 q 438 -314 369 -314 q 478 -310 458 -314 q 518 -300 499 -307 q 707 -178 593 -271 q 815 -77 769 -125 q 892 18 861 -29 q 899 33 899 28 q 897 39 899 36 q 881 25 892 39 q 700 -153 815 -60 q 507 -272 582 -249 q 410 -289 458 -289 q 301 -196 301 -289 q 301 -182 301 -189 q 303 -169 301 -176 q 348 1 315 -89 q 439 188 381 90 q 515 310 475 250 q 594 433 556 371 q 592 444 596 438 q 582 450 589 450 q 575 447 578 450 q 538 429 558 433 q 513 431 535 428 q 444 443 476 443 q 388 432 414 443 q 272 367 335 410 q 138 253 208 324 q -17 -1 -17 99 q 18 -49 -17 -49 q 50 -39 36 -49 m 74 79 q 204 274 113 171 q 369 400 304 383 q 401 404 386 404 q 448 392 431 404 q 465 364 465 379 q 461 353 465 357 q 277 153 364 235 q 113 21 190 71 q 92 14 101 14 q 67 47 67 14 q 74 79 67 63 m 292 575 q 350 596 318 585 q 415 617 382 607 q 477 638 447 628 q 528 654 507 647 q 540 667 538 657 q 538 685 542 676 q 527 701 535 694 q 510 703 519 707 q 462 678 490 693 q 402 649 433 664 q 340 618 371 633 q 285 592 310 603 q 278 578 275 586 q 292 575 282 571 z "},"":{"ha":614,"x_min":-17,"x_max":899,"o":"m 50 -39 q 147 26 94 -11 q 260 117 200 64 q 367 213 321 168 q 447 299 414 258 q 453 301 450 301 q 454 286 463 301 q 408 207 431 250 q 361 113 385 164 q 302 -41 322 29 q 279 -169 282 -111 q 325 -278 276 -240 q 438 -314 369 -314 q 478 -310 458 -314 q 518 -300 499 -307 q 707 -178 593 -271 q 815 -77 769 -125 q 892 18 861 -29 q 899 33 899 28 q 897 39 899 36 q 881 25 892 39 q 700 -153 815 -60 q 507 -272 582 -249 q 410 -289 458 -289 q 301 -196 301 -289 q 301 -182 301 -189 q 303 -169 301 -176 q 348 1 315 -89 q 439 188 381 90 q 515 310 475 250 q 594 433 556 371 q 592 444 596 438 q 582 450 589 450 q 575 447 578 450 q 538 429 558 433 q 513 431 535 428 q 444 443 476 443 q 388 432 414 443 q 272 367 335 410 q 138 253 208 324 q -17 -1 -17 99 q 18 -49 -17 -49 q 50 -39 36 -49 m 74 79 q 204 274 113 171 q 369 400 304 383 q 401 404 386 404 q 448 392 431 404 q 465 364 465 379 q 461 353 465 357 q 277 153 364 235 q 113 21 190 71 q 92 14 101 14 q 67 47 67 14 q 74 79 67 63 m 425 622 q 465 600 432 624 q 490 584 476 593 q 514 565 503 575 q 521 563 518 561 q 528 568 528 565 q 522 576 528 571 q 454 643 478 621 q 428 667 431 665 q 372 632 426 668 q 320 598 340 611 q 292 581 300 585 q 288 576 289 578 q 288 569 288 574 q 299 568 288 561 q 425 622 372 607 z "},"":{"ha":614,"x_min":-17,"x_max":899,"o":"m 50 -39 q 147 26 94 -11 q 260 117 200 64 q 367 213 321 168 q 447 299 414 258 q 453 301 450 301 q 454 286 463 301 q 408 207 431 250 q 361 113 385 164 q 302 -41 322 29 q 279 -169 282 -111 q 325 -278 276 -240 q 438 -314 369 -314 q 478 -310 458 -314 q 518 -300 499 -307 q 707 -178 593 -271 q 815 -77 769 -125 q 892 18 861 -29 q 899 33 899 28 q 897 39 899 36 q 881 25 892 39 q 700 -153 815 -60 q 507 -272 582 -249 q 410 -289 458 -289 q 301 -196 301 -289 q 301 -182 301 -189 q 303 -169 301 -176 q 348 1 315 -89 q 439 188 381 90 q 515 310 475 250 q 594 433 556 371 q 592 444 596 438 q 582 450 589 450 q 575 447 578 450 q 538 429 558 433 q 513 431 535 428 q 444 443 476 443 q 388 432 414 443 q 272 367 335 410 q 138 253 208 324 q -17 -1 -17 99 q 18 -49 -17 -49 q 50 -39 36 -49 m 74 79 q 204 274 113 171 q 369 400 304 383 q 401 404 386 404 q 448 392 431 404 q 465 364 465 379 q 461 353 465 357 q 277 153 364 235 q 113 21 190 71 q 92 14 101 14 q 67 47 67 14 q 74 79 67 63 m 244 589 q 281 608 260 600 q 325 617 301 617 q 359 609 339 617 q 400 593 379 601 q 440 577 421 585 q 474 569 460 569 q 519 590 497 569 q 556 624 542 610 q 563 642 567 638 q 544 635 558 646 q 517 615 529 619 q 474 611 506 611 q 439 619 458 611 q 399 635 419 626 q 358 651 378 643 q 325 658 339 658 q 301 652 314 658 q 277 637 289 646 q 255 618 265 628 q 236 600 244 608 q 228 581 226 588 q 244 589 229 575 z "},"":{"ha":614,"x_min":-17,"x_max":899,"o":"m 50 -39 q 147 26 94 -11 q 260 117 200 64 q 367 213 321 168 q 447 299 414 258 q 453 301 450 301 q 454 286 463 301 q 408 207 431 250 q 361 113 385 164 q 302 -41 322 29 q 279 -169 282 -111 q 325 -278 276 -240 q 438 -314 369 -314 q 478 -310 458 -314 q 518 -300 499 -307 q 707 -178 593 -271 q 815 -77 769 -125 q 892 18 861 -29 q 899 33 899 28 q 897 39 899 36 q 881 25 892 39 q 700 -153 815 -60 q 507 -272 582 -249 q 410 -289 458 -289 q 301 -196 301 -289 q 301 -182 301 -189 q 303 -169 301 -176 q 348 1 315 -89 q 439 188 381 90 q 515 310 475 250 q 594 433 556 371 q 592 444 596 438 q 582 450 589 450 q 575 447 578 450 q 538 429 558 433 q 513 431 535 428 q 444 443 476 443 q 388 432 414 443 q 272 367 335 410 q 138 253 208 324 q -17 -1 -17 99 q 18 -49 -17 -49 q 50 -39 36 -49 m 74 79 q 204 274 113 171 q 369 400 304 383 q 401 404 386 404 q 448 392 431 404 q 465 364 465 379 q 461 353 465 357 q 277 153 364 235 q 113 21 190 71 q 92 14 101 14 q 67 47 67 14 q 74 79 67 63 m 500 601 q 499 617 500 606 q 497 640 499 628 q 494 661 496 651 q 488 674 492 671 q 476 676 485 678 q 457 671 467 675 q 438 661 447 667 q 428 651 429 656 q 425 638 425 647 q 426 616 425 628 q 430 594 428 604 q 435 579 432 583 q 450 576 439 575 q 472 582 461 578 q 492 592 483 586 q 500 601 500 597 m 358 604 q 358 618 358 608 q 357 641 358 629 q 354 663 356 653 q 350 675 353 672 q 337 678 346 679 q 318 672 328 676 q 300 663 308 668 q 289 653 292 657 q 287 639 286 649 q 289 617 288 629 q 293 595 290 606 q 299 581 296 585 q 311 578 301 576 q 331 583 321 579 q 350 594 342 588 q 358 604 358 600 z "},"":{"ha":614,"x_min":-17,"x_max":899,"o":"m 50 -39 q 147 26 94 -11 q 260 117 200 64 q 367 213 321 168 q 447 299 414 258 q 453 301 450 301 q 454 286 463 301 q 408 207 431 250 q 361 113 385 164 q 302 -41 322 29 q 279 -169 282 -111 q 325 -278 276 -240 q 438 -314 369 -314 q 478 -310 458 -314 q 518 -300 499 -307 q 707 -178 593 -271 q 815 -77 769 -125 q 892 18 861 -29 q 899 33 899 28 q 897 39 899 36 q 881 25 892 39 q 700 -153 815 -60 q 507 -272 582 -249 q 410 -289 458 -289 q 301 -196 301 -289 q 301 -182 301 -189 q 303 -169 301 -176 q 348 1 315 -89 q 439 188 381 90 q 515 310 475 250 q 594 433 556 371 q 592 444 596 438 q 582 450 589 450 q 575 447 578 450 q 538 429 558 433 q 513 431 535 428 q 444 443 476 443 q 388 432 414 443 q 272 367 335 410 q 138 253 208 324 q -17 -1 -17 99 q 18 -49 -17 -49 q 50 -39 36 -49 m 74 79 q 204 274 113 171 q 369 400 304 383 q 401 404 386 404 q 448 392 431 404 q 465 364 465 379 q 461 353 465 357 q 277 153 364 235 q 113 21 190 71 q 92 14 101 14 q 67 47 67 14 q 74 79 67 63 m 365 622 q 348 662 365 646 q 307 678 331 678 q 267 662 283 678 q 250 622 250 646 q 267 583 250 599 q 307 567 283 567 q 348 583 331 567 q 365 622 365 599 m 307 578 q 276 590 289 578 q 263 622 263 603 q 276 654 263 640 q 307 668 289 668 q 340 654 326 668 q 353 622 353 640 q 340 590 353 603 q 307 578 326 578 z "},"":{"ha":1028,"x_min":-14,"x_max":1004,"o":"m 63 29 q 147 169 92 90 q 274 331 203 247 q 426 497 344 414 q 587 651 507 581 q 740 775 667 722 q 868 851 813 828 q 933 844 915 871 q 919 751 951 818 q 844 599 894 694 q 731 386 793 503 q 603 144 669 269 q 481 -97 538 18 q 386 -308 425 -212 q 340 -460 347 -404 q 344 -497 338 -482 q 360 -522 350 -512 q 385 -533 371 -531 q 413 -532 399 -535 q 460 -515 435 -528 q 509 -487 485 -503 q 555 -453 533 -471 q 592 -421 576 -436 q 615 -396 610 -404 q 616 -386 619 -387 q 603 -391 613 -385 q 581 -410 593 -397 q 556 -431 571 -419 q 524 -451 540 -442 q 494 -467 508 -460 q 471 -479 479 -475 q 451 -488 456 -485 q 440 -492 446 -492 q 424 -491 435 -493 q 389 -483 414 -489 q 381 -429 369 -479 q 428 -300 393 -379 q 513 -118 463 -221 q 622 96 564 -15 q 740 318 681 207 q 852 526 800 429 q 943 697 904 622 q 997 811 982 772 q 1003 848 1004 828 q 992 883 1003 868 q 960 906 981 899 q 906 903 939 913 q 808 856 863 890 q 692 775 753 822 q 569 671 632 728 q 447 555 506 614 q 335 439 388 496 q 244 335 283 382 q 224 317 232 319 q 213 319 217 314 q 211 335 210 325 q 219 358 213 346 q 288 481 249 410 q 366 626 328 551 q 436 769 404 700 q 485 886 468 839 q 501 958 499 928 q 488 1002 503 988 q 440 1017 474 1017 q 351 1001 407 1018 q 263 962 315 990 q 160 894 210 933 q 70 806 110 854 q 21 708 31 758 q 22 644 14 668 q 35 606 29 619 q 49 591 42 590 q 57 608 56 592 q 56 650 58 626 q 64 700 54 674 q 97 763 72 722 q 161 845 122 803 q 249 924 200 888 q 357 976 299 961 q 422 960 400 988 q 428 875 443 933 q 392 776 418 836 q 328 644 365 717 q 248 492 292 572 q 160 332 204 411 q 73 178 115 253 q -3 43 31 104 q -7 14 -14 22 q 14 6 0 6 q 43 13 28 6 q 63 29 58 19 m 594 1147 q 631 1169 610 1160 q 675 1179 651 1179 q 710 1171 689 1179 q 751 1153 731 1163 q 792 1136 772 1144 q 825 1128 811 1128 q 849 1134 838 1128 q 872 1150 861 1140 q 891 1169 882 1160 q 907 1188 900 1179 q 914 1208 918 1203 q 896 1200 910 1213 q 869 1178 881 1183 q 825 1174 857 1174 q 790 1182 810 1174 q 749 1199 769 1190 q 708 1217 728 1208 q 675 1225 689 1225 q 626 1202 651 1225 q 586 1161 601 1179 q 578 1140 576 1147 q 594 1147 579 1133 z "},"\u001c":{"ha":976,"x_min":15,"x_max":971,"o":"m 310 381 q 375 399 343 390 q 438 417 407 407 q 388 336 411 375 q 344 265 364 297 q 311 211 325 233 q 292 179 297 189 q 243 110 268 146 q 201 64 218 75 q 197 61 200 63 q 186 63 193 60 q 124 81 161 71 q 60 97 86 92 q 24 95 33 104 q 26 63 15 86 q 35 45 28 56 q 51 24 42 35 q 72 6 61 14 q 96 -1 83 -1 q 132 8 114 -1 q 157 15 150 17 q 223 -8 179 7 q 324 -40 267 -24 q 445 -74 381 -57 q 573 -106 510 -92 q 694 -128 636 -119 q 793 -135 751 -136 q 845 -130 824 -135 q 881 -117 867 -125 q 906 -101 896 -110 q 926 -81 917 -92 q 938 -59 940 -65 q 915 -71 935 -53 q 894 -87 904 -81 q 871 -99 883 -94 q 842 -106 858 -104 q 799 -107 825 -107 q 721 -99 767 -107 q 622 -80 675 -92 q 514 -53 569 -68 q 406 -21 458 -37 q 308 13 354 -4 q 232 42 263 29 q 216 51 214 49 q 226 60 218 54 q 295 113 269 82 q 353 188 321 144 q 444 320 406 258 q 517 439 483 382 q 572 456 544 447 q 626 472 600 464 q 661 503 671 483 q 629 504 658 515 l 539 479 q 622 610 579 549 q 728 735 665 672 q 833 810 786 793 q 899 815 879 828 q 923 788 921 800 q 931 761 925 776 q 950 744 936 740 q 967 771 964 747 q 970 797 969 782 q 964 831 971 813 q 922 856 954 857 q 851 840 890 856 q 772 801 813 825 q 706 756 732 776 q 647 702 678 735 q 586 630 617 669 q 524 547 556 590 q 464 458 493 503 l 325 419 q 279 385 272 407 q 310 381 281 374 z "},"\u001e":{"ha":1029,"x_min":-10,"x_max":1149,"o":"m 368 529 q 331 717 338 622 q 333 747 329 729 q 349 783 336 765 q 384 817 361 801 q 444 840 407 832 q 601 858 515 857 q 769 853 688 860 q 919 835 851 846 q 1018 819 986 825 q 1039 812 1033 815 q 1044 805 1044 808 q 1036 798 1043 801 q 1019 790 1029 794 q 854 679 939 756 q 672 472 769 603 q 668 467 669 467 q 660 465 667 468 q 638 465 654 465 q 601 465 621 465 q 567 465 583 465 q 544 465 550 465 q 529 461 535 465 q 523 451 524 457 q 526 442 522 446 q 539 439 531 439 l 639 439 q 649 435 654 439 q 640 424 644 431 q 578 340 614 386 q 503 248 542 293 q 425 164 464 203 q 354 104 386 125 q 336 98 343 97 q 322 101 329 99 q 265 121 300 110 q 193 142 231 132 q 119 159 156 153 q 56 164 82 165 q 2 142 14 164 q 6 94 -10 119 q 42 55 18 71 q 94 28 67 39 q 147 13 121 18 q 188 10 172 8 q 259 20 224 11 q 314 42 294 29 q 339 46 329 50 q 432 16 372 33 q 563 -18 492 -1 q 710 -47 633 -35 q 853 -61 786 -60 q 903 -62 883 -62 q 938 -58 924 -61 q 964 -48 951 -54 q 993 -32 976 -42 q 1006 -15 1011 -21 q 979 -24 1000 -8 q 919 -41 956 -39 q 853 -40 883 -43 q 746 -25 803 -36 q 629 2 689 -14 q 510 37 569 18 q 399 74 451 56 q 388 83 388 76 q 403 96 389 89 q 483 153 439 113 q 569 244 526 194 q 651 344 613 293 q 715 432 690 394 q 721 439 718 438 q 731 440 724 440 l 806 440 q 824 444 815 440 q 835 451 832 447 q 835 460 839 456 q 819 464 832 464 l 750 464 q 743 468 742 464 q 749 479 744 472 q 828 583 792 535 q 901 669 865 631 q 976 738 938 708 q 1064 785 1015 767 q 1078 793 1072 790 q 1090 796 1083 796 q 1110 799 1101 796 q 1131 807 1119 801 q 1146 823 1143 813 q 1145 842 1149 833 q 1133 855 1142 850 q 1111 856 1124 860 q 1094 849 1106 854 q 1075 843 1082 843 q 983 849 1036 843 q 869 862 931 854 q 744 877 808 869 q 618 890 679 885 q 503 894 557 894 q 408 886 449 894 q 324 852 353 875 q 284 803 296 829 q 272 750 272 776 q 274 707 271 724 q 283 665 275 690 q 303 612 292 639 q 326 560 314 585 q 350 519 339 536 q 365 502 360 506 q 372 502 371 499 q 372 513 374 506 q 368 529 371 521 m 44 90 q 39 120 28 111 q 61 125 50 129 q 101 116 75 122 q 156 101 126 110 q 214 85 185 93 q 264 69 243 76 q 272 58 279 63 q 253 50 265 54 q 197 41 228 42 q 138 45 167 40 q 83 62 108 50 q 44 90 58 74 m 701 989 q 667 1014 693 988 q 625 1060 646 1035 q 617 1065 621 1067 q 613 1057 613 1063 q 615 1044 613 1056 q 699 932 696 933 q 747 976 700 929 q 792 1019 775 1003 q 817 1040 810 1035 q 822 1054 822 1046 q 811 1057 822 1067 q 751 1015 779 1032 q 701 989 724 999 z "},"":{"ha":779,"x_min":25,"x_max":928,"o":"m 921 331 q 922 340 928 338 q 908 336 917 343 q 871 309 894 321 q 819 292 847 297 q 717 287 781 288 q 590 286 653 286 q 692 319 644 297 q 760 372 739 342 q 767 412 768 390 q 755 451 765 433 q 726 478 744 469 q 685 478 708 486 q 536 371 617 451 q 539 385 539 378 q 540 400 539 393 q 538 415 540 407 q 538 425 535 419 q 593 442 551 442 q 614 449 614 442 q 593 456 614 453 q 413 460 474 458 q 403 465 406 461 q 340 490 365 493 q 279 460 310 489 q 264 456 268 456 q 211 454 263 456 q 175 446 179 453 q 171 433 171 439 q 183 417 171 426 q 208 400 194 408 q 211 388 215 397 q 25 47 28 163 q 31 27 25 36 q 47 11 38 18 q 67 1 56 4 q 88 -1 78 -3 q 372 156 211 18 q 389 170 381 163 q 404 185 397 178 q 386 130 393 157 q 378 75 379 103 q 388 31 376 51 q 417 -4 399 11 q 456 -27 435 -19 q 497 -31 478 -35 q 542 -20 519 -29 q 586 -1 565 -11 q 625 22 607 10 q 657 42 643 33 q 662 53 667 49 q 646 51 657 58 q 569 16 614 33 q 486 -6 525 -1 q 456 -6 471 -8 q 428 6 440 -3 q 410 32 417 15 q 407 75 404 49 q 438 180 410 129 q 494 268 467 231 q 579 268 532 268 q 674 269 628 268 q 760 272 721 269 q 819 276 800 274 q 881 300 854 282 q 921 331 908 318 m 67 72 q 296 400 150 263 q 321 413 317 414 q 438 426 369 433 q 490 378 500 419 q 331 151 469 276 q 104 15 199 32 q 60 42 60 8 q 67 72 60 54 m 729 385 q 635 315 697 343 q 507 286 574 286 q 594 371 547 331 q 685 439 640 411 q 715 447 701 447 q 737 440 729 447 q 743 417 744 432 q 729 385 742 403 z "},"":{"ha":1211,"x_min":19,"x_max":1190,"o":"m 36 443 q 24 381 29 411 q 19 322 19 351 q 133 82 19 175 q 374 -4 232 1 q 700 67 528 -12 q 871 166 793 110 q 1011 294 949 222 q 1188 665 1157 463 q 1190 681 1189 672 q 1190 700 1190 690 q 1110 939 1190 822 q 851 1104 1013 1079 q 747 1113 799 1113 q 485 1063 610 1113 q 269 911 350 1006 q 197 746 197 826 q 201 706 197 726 q 36 443 74 578 m 901 989 q 863 994 882 992 q 822 996 843 996 q 481 907 667 996 q 335 824 399 868 q 221 732 271 781 q 218 760 218 746 q 286 900 218 828 q 486 1029 363 981 q 751 1083 617 1083 q 792 1082 772 1083 q 832 1078 813 1081 q 981 1031 917 1064 q 1089 942 1044 999 q 1167 708 1167 843 q 1035 378 1167 540 q 724 128 914 228 q 374 39 538 31 q 131 122 218 46 q 44 326 44 197 q 48 383 44 354 q 60 442 51 411 q 121 575 76 497 q 165 639 144 613 q 206 683 186 665 q 271 600 221 638 q 324 570 297 581 q 383 558 351 560 q 404 568 404 554 q 389 578 404 578 q 281 617 335 578 q 225 703 231 657 q 454 871 279 781 q 822 978 656 978 q 900 969 863 978 q 915 979 915 965 q 901 989 915 988 m 724 1249 q 683 1287 706 1265 q 636 1331 660 1308 q 590 1373 613 1353 q 553 1408 568 1393 q 535 1413 544 1415 q 518 1403 525 1410 q 510 1386 511 1396 q 517 1371 508 1376 q 560 1340 535 1357 q 613 1303 586 1322 q 667 1267 640 1285 q 715 1236 694 1250 q 726 1237 721 1232 q 724 1249 732 1242 z "},"":{"ha":1211,"x_min":19,"x_max":1190,"o":"m 36 443 q 24 381 29 411 q 19 322 19 351 q 133 82 19 175 q 374 -4 232 1 q 700 67 528 -12 q 871 166 793 110 q 1011 294 949 222 q 1188 665 1157 463 q 1190 681 1189 672 q 1190 700 1190 690 q 1110 939 1190 822 q 851 1104 1013 1079 q 747 1113 799 1113 q 485 1063 610 1113 q 269 911 350 1006 q 197 746 197 826 q 201 706 197 726 q 36 443 74 578 m 901 989 q 863 994 882 992 q 822 996 843 996 q 481 907 667 996 q 335 824 399 868 q 221 732 271 781 q 218 760 218 746 q 286 900 218 828 q 486 1029 363 981 q 751 1083 617 1083 q 792 1082 772 1083 q 832 1078 813 1081 q 981 1031 917 1064 q 1089 942 1044 999 q 1167 708 1167 843 q 1035 378 1167 540 q 724 128 914 228 q 374 39 538 31 q 131 122 218 46 q 44 326 44 197 q 48 383 44 354 q 60 442 51 411 q 121 575 76 497 q 165 639 144 613 q 206 683 186 665 q 271 600 221 638 q 324 570 297 581 q 383 558 351 560 q 404 568 404 554 q 389 578 404 578 q 281 617 335 578 q 225 703 231 657 q 454 871 279 781 q 822 978 656 978 q 900 969 863 978 q 915 979 915 965 q 901 989 915 988 m 504 1254 q 563 1275 531 1264 q 627 1297 594 1286 q 689 1317 660 1307 q 739 1333 718 1326 q 752 1347 750 1338 q 751 1365 754 1356 q 740 1381 747 1375 q 722 1383 732 1388 q 674 1359 703 1374 q 615 1328 646 1344 q 553 1297 583 1313 q 497 1271 522 1282 q 491 1259 488 1267 q 504 1254 494 1251 z "},"":{"ha":1211,"x_min":19,"x_max":1190,"o":"m 36 443 q 24 381 29 411 q 19 322 19 351 q 133 82 19 175 q 374 -4 232 1 q 700 67 528 -12 q 871 166 793 110 q 1011 294 949 222 q 1188 665 1157 463 q 1190 681 1189 672 q 1190 700 1190 690 q 1110 939 1190 822 q 851 1104 1013 1079 q 747 1113 799 1113 q 485 1063 610 1113 q 269 911 350 1006 q 197 746 197 826 q 201 706 197 726 q 36 443 74 578 m 901 989 q 863 994 882 992 q 822 996 843 996 q 481 907 667 996 q 335 824 399 868 q 221 732 271 781 q 218 760 218 746 q 286 900 218 828 q 486 1029 363 981 q 751 1083 617 1083 q 792 1082 772 1083 q 832 1078 813 1081 q 981 1031 917 1064 q 1089 942 1044 999 q 1167 708 1167 843 q 1035 378 1167 540 q 724 128 914 228 q 374 39 538 31 q 131 122 218 46 q 44 326 44 197 q 48 383 44 354 q 60 442 51 411 q 121 575 76 497 q 165 639 144 613 q 206 683 186 665 q 271 600 221 638 q 324 570 297 581 q 383 558 351 560 q 404 568 404 554 q 389 578 404 578 q 281 617 335 578 q 225 703 231 657 q 454 871 279 781 q 822 978 656 978 q 900 969 863 978 q 915 979 915 965 q 901 989 915 988 m 669 1322 q 711 1300 676 1324 q 735 1283 722 1292 q 758 1265 747 1275 q 765 1263 763 1261 q 771 1268 771 1265 q 767 1276 771 1269 q 672 1365 679 1361 q 617 1332 671 1368 q 565 1297 585 1310 q 536 1281 544 1285 q 532 1269 532 1274 q 543 1268 532 1261 q 669 1322 617 1307 z "},"":{"ha":1211,"x_min":19,"x_max":1190,"o":"m 36 443 q 24 381 29 411 q 19 322 19 351 q 133 82 19 175 q 374 -4 232 1 q 700 67 528 -12 q 871 166 793 110 q 1011 294 949 222 q 1188 665 1157 463 q 1190 681 1189 672 q 1190 700 1190 690 q 1110 939 1190 822 q 851 1104 1013 1079 q 747 1113 799 1113 q 485 1063 610 1113 q 269 911 350 1006 q 197 746 197 826 q 201 706 197 726 q 36 443 74 578 m 901 989 q 863 994 882 992 q 822 996 843 996 q 481 907 667 996 q 335 824 399 868 q 221 732 271 781 q 218 760 218 746 q 286 900 218 828 q 486 1029 363 981 q 751 1083 617 1083 q 792 1082 772 1083 q 832 1078 813 1081 q 981 1031 917 1064 q 1089 942 1044 999 q 1167 708 1167 843 q 1035 378 1167 540 q 724 128 914 228 q 374 39 538 31 q 131 122 218 46 q 44 326 44 197 q 48 383 44 354 q 60 442 51 411 q 121 575 76 497 q 165 639 144 613 q 206 683 186 665 q 271 600 221 638 q 324 570 297 581 q 383 558 351 560 q 404 568 404 554 q 389 578 404 578 q 281 617 335 578 q 225 703 231 657 q 454 871 279 781 q 822 978 656 978 q 900 969 863 978 q 915 979 915 965 q 901 989 915 988 m 460 1261 q 496 1281 475 1272 q 540 1289 517 1289 q 574 1281 554 1289 q 615 1265 594 1274 q 656 1249 636 1257 q 689 1242 675 1242 q 735 1262 713 1242 q 771 1296 757 1282 q 778 1314 782 1310 q 760 1307 774 1318 q 733 1288 744 1292 q 689 1283 721 1283 q 655 1291 675 1283 q 614 1307 635 1299 q 574 1323 593 1315 q 540 1331 554 1331 q 517 1324 529 1331 q 492 1309 504 1318 q 470 1290 481 1300 q 453 1272 460 1281 q 443 1253 442 1260 q 460 1261 444 1247 z "},"":{"ha":1211,"x_min":19,"x_max":1190,"o":"m 36 443 q 24 381 29 411 q 19 322 19 351 q 133 82 19 175 q 374 -4 232 1 q 700 67 528 -12 q 871 166 793 110 q 1011 294 949 222 q 1188 665 1157 463 q 1190 681 1189 672 q 1190 700 1190 690 q 1110 939 1190 822 q 851 1104 1013 1079 q 747 1113 799 1113 q 485 1063 610 1113 q 269 911 350 1006 q 197 746 197 826 q 201 706 197 726 q 36 443 74 578 m 901 989 q 863 994 882 992 q 822 996 843 996 q 481 907 667 996 q 335 824 399 868 q 221 732 271 781 q 218 760 218 746 q 286 900 218 828 q 486 1029 363 981 q 751 1083 617 1083 q 792 1082 772 1083 q 832 1078 813 1081 q 981 1031 917 1064 q 1089 942 1044 999 q 1167 708 1167 843 q 1035 378 1167 540 q 724 128 914 228 q 374 39 538 31 q 131 122 218 46 q 44 326 44 197 q 48 383 44 354 q 60 442 51 411 q 121 575 76 497 q 165 639 144 613 q 206 683 186 665 q 271 600 221 638 q 324 570 297 581 q 383 558 351 560 q 404 568 404 554 q 389 578 404 578 q 281 617 335 578 q 225 703 231 657 q 454 871 279 781 q 822 978 656 978 q 900 969 863 978 q 915 979 915 965 q 901 989 915 988 m 749 1257 q 748 1272 749 1261 q 746 1295 747 1283 q 742 1317 744 1307 q 736 1329 740 1326 q 725 1332 733 1333 q 706 1326 717 1331 q 688 1317 696 1322 q 676 1307 679 1311 q 674 1293 674 1303 q 675 1272 674 1283 q 679 1249 676 1260 q 685 1235 682 1239 q 700 1232 689 1231 q 722 1238 711 1233 q 740 1247 732 1242 q 749 1257 749 1253 m 608 1258 q 608 1274 608 1263 q 606 1297 607 1285 q 603 1318 606 1308 q 599 1331 601 1328 q 586 1333 594 1335 q 568 1328 578 1332 q 549 1318 558 1324 q 538 1308 540 1313 q 535 1294 535 1304 q 538 1273 536 1285 q 542 1251 539 1261 q 547 1236 544 1240 q 560 1233 550 1232 q 581 1239 571 1235 q 600 1249 592 1243 q 608 1258 608 1254 z "},"":{"ha":996,"x_min":28,"x_max":1028,"o":"m 117 -72 q 172 56 118 -31 q 274 23 219 31 q 385 26 328 15 q 585 100 486 44 q 765 231 685 156 q 899 393 844 307 q 968 558 954 479 q 964 721 985 653 q 903 838 943 789 q 957 883 931 861 q 1010 926 983 906 q 1025 951 1028 940 q 1007 964 1024 964 q 976 951 990 964 q 926 912 953 932 q 874 868 900 892 q 821 909 849 892 q 767 938 793 926 q 638 978 707 964 q 500 996 569 992 q 363 994 431 1000 q 240 976 296 989 q 145 942 185 963 q 89 897 106 922 q 70 842 71 869 q 81 786 69 814 q 117 732 93 758 q 172 681 140 706 q 174 671 176 676 q 168 663 171 665 q 106 576 136 626 q 56 465 75 525 q 32 337 36 404 q 50 201 28 269 q 149 71 79 114 q 93 -67 89 -24 q 104 -104 99 -96 q 117 -72 113 -104 m 211 640 q 218 644 215 644 q 228 642 221 644 q 288 613 254 628 q 340 592 322 597 q 371 589 371 583 q 342 610 371 594 q 323 620 335 614 q 298 634 311 626 q 272 651 285 642 q 249 668 258 660 q 247 682 243 672 q 278 714 257 694 q 330 752 300 733 q 396 786 360 771 q 469 807 432 801 q 505 796 488 808 q 546 782 522 783 q 570 785 560 782 q 585 795 581 789 q 584 809 589 801 q 563 824 579 817 q 481 832 526 836 q 390 812 436 828 q 297 770 343 796 q 217 713 251 744 q 207 707 211 707 q 197 714 204 707 q 165 748 181 729 q 138 787 149 767 q 124 829 128 807 q 126 872 119 851 q 172 917 135 897 q 262 947 208 936 q 381 962 315 958 q 515 960 447 965 q 647 938 583 954 q 761 896 711 922 q 802 869 783 885 q 840 838 821 854 q 648 652 749 756 q 432 422 547 549 q 288 256 349 331 q 183 121 226 181 q 153 156 168 136 q 131 200 139 175 q 104 326 106 263 q 117 447 103 389 q 156 554 131 504 q 211 640 182 604 m 938 561 q 863 385 918 468 q 734 236 807 301 q 581 128 661 171 q 432 76 500 86 q 380 70 408 72 q 322 70 351 68 q 262 80 292 72 q 206 104 232 88 q 315 240 250 164 q 465 410 379 317 q 677 627 578 528 q 868 807 776 726 q 933 690 913 754 q 938 561 953 626 z "},"":{"ha":383,"x_min":15,"x_max":368,"o":"m 351 746 q 365 758 363 749 q 357 768 368 768 l 231 768 q 261 854 251 825 q 278 904 271 883 q 296 947 286 925 q 325 1011 306 968 q 326 1031 332 1026 q 308 1031 319 1035 q 284 1019 296 1028 q 268 999 272 1010 q 244 936 253 958 q 231 901 236 914 q 223 879 226 888 q 216 859 219 871 q 206 827 213 847 q 189 769 200 807 q 159 769 181 768 q 115 770 138 769 q 72 771 92 771 q 49 767 53 771 q 63 751 47 761 q 97 731 78 742 q 135 708 117 719 q 161 689 154 697 q 162 673 164 685 q 156 646 160 661 q 147 613 151 631 q 139 581 142 596 q 100 420 122 507 q 58 248 78 333 q 27 86 39 163 q 19 -43 15 10 l 200 672 q 233 699 213 688 q 274 719 253 711 q 317 735 296 728 q 351 746 338 742 z "},"":{"ha":440,"x_min":25,"x_max":425,"o":"m 408 746 q 422 758 419 749 q 414 768 425 768 l 288 768 q 315 853 306 824 q 331 903 324 882 q 349 946 339 924 q 378 1013 358 968 q 377 1032 383 1028 q 360 1033 371 1036 q 336 1020 349 1029 q 319 1001 324 1011 q 296 938 304 961 q 283 902 288 915 q 277 881 279 889 q 272 860 275 872 q 263 827 268 847 q 246 769 257 807 q 215 769 236 768 q 170 770 193 769 q 128 771 147 771 q 106 767 110 771 q 119 751 104 761 q 154 731 135 742 q 192 708 174 719 q 217 689 210 697 q 219 672 221 685 q 212 644 217 660 q 202 610 207 628 q 194 578 197 592 q 175 510 185 550 q 161 438 165 469 q 135 440 153 438 q 98 442 118 442 q 58 442 78 443 q 26 435 39 440 q 40 419 25 429 q 74 399 54 410 q 113 376 94 388 q 138 357 131 365 l 142 357 q 122 279 135 331 q 98 168 110 228 q 79 51 86 108 q 76 -43 72 -6 l 178 357 q 221 381 196 367 q 268 407 246 394 q 305 428 290 419 q 319 438 319 438 l 197 438 l 257 672 q 290 699 269 688 q 331 719 310 711 q 373 735 353 728 q 408 746 393 742 z "},"_":{"ha":715,"x_min":35,"x_max":690,"o":"m 63 -57 l 656 -57 q 690 -46 690 -57 q 665 -39 690 -39 l 75 -39 q 35 -49 35 -39 q 63 -57 35 -57 z "},"":{"ha":663,"x_min":-14,"x_max":617,"o":"m 417 -74 q 428 -49 429 -62 q 408 -50 426 -36 q 378 -67 397 -58 q 349 -78 358 -75 q 314 -74 318 -86 q 315 -21 310 -61 q 338 33 318 -1 q 387 108 358 67 q 449 194 415 149 q 515 282 483 239 q 571 363 546 325 q 608 426 596 400 q 599 461 617 444 q 560 476 582 478 q 468 435 525 474 q 347 342 411 397 q 219 224 282 286 q 108 111 156 163 q 92 99 101 103 q 77 98 83 96 q 69 108 71 100 q 76 132 68 117 q 137 237 103 179 q 207 349 171 294 q 277 449 243 404 q 338 517 311 494 q 351 540 351 529 q 343 560 351 553 q 322 567 335 568 q 296 554 308 567 q 242 489 272 529 q 181 399 213 449 q 118 297 149 350 q 61 194 88 243 q 16 105 35 146 q -10 40 -3 64 q -13 10 -14 25 q -8 -13 -12 -4 q 3 -24 -4 -22 q 18 -17 10 -25 q 130 105 69 42 q 253 227 190 168 q 377 335 317 286 q 489 417 438 385 q 518 428 506 428 q 540 422 532 428 q 548 403 547 415 q 543 381 549 392 q 511 335 535 365 q 456 267 488 306 q 390 184 425 228 q 327 99 356 140 q 281 24 299 58 q 263 -31 263 -10 q 267 -57 261 -43 q 282 -83 272 -71 q 304 -105 292 -96 q 332 -115 317 -114 q 374 -103 347 -118 q 417 -74 401 -87 m 249 674 q 285 694 264 685 q 331 703 307 703 q 364 695 344 703 q 404 679 383 688 q 444 663 425 671 q 478 656 464 656 q 524 675 501 656 q 561 708 547 694 q 567 727 572 724 q 549 719 563 731 q 522 701 535 706 q 478 697 510 697 q 444 705 464 697 q 403 721 424 713 q 363 737 382 729 q 331 744 343 744 q 307 738 319 744 q 282 723 294 732 q 259 703 269 714 q 242 686 249 693 q 232 667 231 674 q 249 674 233 661 z "},"":{"ha":928,"x_min":-696,"x_max":1064,"o":"m 1053 553 q 1019 600 1042 581 q 975 629 996 619 q 957 631 961 636 q 965 617 953 625 q 1003 584 986 604 q 1028 540 1021 564 q 1028 500 1032 521 q 1017 460 1025 479 q 999 425 1008 442 q 982 399 989 408 q 917 326 961 365 q 815 245 872 286 q 692 165 757 204 q 564 94 626 126 q 583 212 575 146 q 586 340 590 278 q 592 381 596 364 q 579 406 589 397 q 556 413 569 414 q 533 401 543 413 q 453 317 501 365 q 350 223 404 269 q 242 135 296 176 q 149 72 189 94 q 85 53 104 44 q 86 113 67 61 q 126 201 100 150 q 183 303 151 251 q 245 401 214 354 q 301 479 276 449 q 311 506 314 496 q 298 519 308 517 q 273 514 288 521 q 246 489 258 507 q 188 407 222 457 q 120 299 154 357 q 58 181 86 242 q 18 67 29 121 q 23 39 15 53 q 44 15 31 25 q 75 1 58 4 q 107 6 92 -3 q 202 64 151 28 q 302 142 253 100 q 397 226 351 183 q 475 304 442 269 q 525 292 521 354 q 526 244 526 272 q 522 184 525 215 q 515 122 519 153 q 507 65 511 90 q 326 -31 421 18 q 132 -131 231 -81 q -64 -235 33 -182 q -251 -340 -161 -287 q -421 -445 -342 -393 q -561 -549 -500 -497 q -644 -635 -614 -593 q -685 -717 -675 -678 q -689 -794 -696 -757 q -661 -864 -682 -831 q -596 -921 -637 -900 q -501 -949 -554 -942 q -387 -953 -447 -957 q -264 -937 -326 -950 q 44 -810 -93 -903 q 284 -583 181 -717 q 457 -284 388 -449 q 561 58 526 -119 q 681 124 614 88 q 813 203 747 161 q 933 292 878 246 q 1019 383 989 338 q 1042 423 1032 401 q 1058 466 1053 444 q 1063 510 1064 488 q 1053 553 1063 532 m 503 33 q 403 -293 472 -136 q 233 -578 333 -450 q 5 -795 132 -706 q -268 -917 -122 -885 q -374 -932 -318 -928 q -478 -928 -429 -936 q -567 -900 -528 -921 q -626 -839 -607 -879 q -641 -767 -643 -804 q -624 -694 -639 -729 q -583 -627 -608 -658 q -531 -571 -558 -596 q -280 -391 -414 -475 q -9 -233 -146 -307 q 259 -94 128 -160 q 503 33 390 -28 m 418 667 q 476 688 444 676 q 541 709 508 699 q 603 729 574 719 q 654 746 633 739 q 667 758 665 749 q 666 777 669 768 q 654 792 663 786 q 638 794 646 799 q 589 770 618 785 q 528 740 560 756 q 467 710 497 725 q 411 683 436 694 q 406 670 401 678 q 418 667 410 663 z "},"":{"ha":928,"x_min":-696,"x_max":1064,"o":"m 1053 553 q 1019 600 1042 581 q 975 629 996 619 q 957 631 961 636 q 965 617 953 625 q 1003 584 986 604 q 1028 540 1021 564 q 1028 500 1032 521 q 1017 460 1025 479 q 999 425 1008 442 q 982 399 989 408 q 917 326 961 365 q 815 245 872 286 q 692 165 757 204 q 564 94 626 126 q 583 212 575 146 q 586 340 590 278 q 592 381 596 364 q 579 406 589 397 q 556 413 569 414 q 533 401 543 413 q 453 317 501 365 q 350 223 404 269 q 242 135 296 176 q 149 72 189 94 q 85 53 104 44 q 86 113 67 61 q 126 201 100 150 q 183 303 151 251 q 245 401 214 354 q 301 479 276 449 q 311 506 314 496 q 298 519 308 517 q 273 514 288 521 q 246 489 258 507 q 188 407 222 457 q 120 299 154 357 q 58 181 86 242 q 18 67 29 121 q 23 39 15 53 q 44 15 31 25 q 75 1 58 4 q 107 6 92 -3 q 202 64 151 28 q 302 142 253 100 q 397 226 351 183 q 475 304 442 269 q 525 292 521 354 q 526 244 526 272 q 522 184 525 215 q 515 122 519 153 q 507 65 511 90 q 326 -31 421 18 q 132 -131 231 -81 q -64 -235 33 -182 q -251 -340 -161 -287 q -421 -445 -342 -393 q -561 -549 -500 -497 q -644 -635 -614 -593 q -685 -717 -675 -678 q -689 -794 -696 -757 q -661 -864 -682 -831 q -596 -921 -637 -900 q -501 -949 -554 -942 q -387 -953 -447 -957 q -264 -937 -326 -950 q 44 -810 -93 -903 q 284 -583 181 -717 q 457 -284 388 -449 q 561 58 526 -119 q 681 124 614 88 q 813 203 747 161 q 933 292 878 246 q 1019 383 989 338 q 1042 423 1032 401 q 1058 466 1053 444 q 1063 510 1064 488 q 1053 553 1063 532 m 503 33 q 403 -293 472 -136 q 233 -578 333 -450 q 5 -795 132 -706 q -268 -917 -122 -885 q -374 -932 -318 -928 q -478 -928 -429 -936 q -567 -900 -528 -921 q -626 -839 -607 -879 q -641 -767 -643 -804 q -624 -694 -639 -729 q -583 -627 -608 -658 q -531 -571 -558 -596 q -280 -391 -414 -475 q -9 -233 -146 -307 q 259 -94 128 -160 q 503 33 390 -28 m 586 629 q 585 644 586 633 q 583 667 585 656 q 580 688 582 678 q 575 701 578 699 q 563 704 572 706 q 544 698 554 703 q 526 688 535 693 q 515 678 517 682 q 513 664 513 675 q 514 643 513 654 q 517 622 515 632 q 522 607 519 611 q 538 604 526 603 q 559 610 549 606 q 578 619 569 614 q 586 629 586 625 m 446 631 q 446 646 446 635 q 444 669 446 657 q 442 690 443 681 q 438 703 440 700 q 424 706 433 707 q 406 700 415 704 q 388 690 396 696 q 376 681 379 685 q 374 667 374 676 q 375 645 374 657 q 379 623 376 633 q 385 608 382 613 q 399 606 389 604 q 419 611 408 607 q 438 621 429 615 q 446 631 446 626 z "},"":{"ha":499,"x_min":-39,"x_max":606,"o":"m -26 -85 q -4 -38 -21 -65 q 44 26 13 -11 q 72 4 56 14 q 104 -11 88 -6 q 136 -18 121 -17 q 163 -15 151 -19 q 272 57 215 8 q 379 167 329 106 q 466 295 429 228 q 518 425 503 363 q 508 478 524 453 q 551 515 531 497 q 593 549 572 533 q 606 564 606 553 q 596 571 606 571 q 578 564 589 571 q 538 532 558 549 q 494 497 517 515 q 439 532 471 521 q 400 533 428 535 q 349 524 372 531 q 349 553 356 539 q 322 553 343 567 q 265 506 297 536 q 197 434 232 475 q 129 345 163 393 q 72 248 96 297 q 35 149 47 199 q 31 57 24 100 q 32 47 31 51 q 35 40 33 43 q -39 -81 -32 -43 q -37 -96 -39 -90 q -36 -104 -36 -101 q -26 -85 -31 -104 m 476 425 q 438 320 469 379 q 365 203 407 261 q 278 99 324 146 q 194 31 232 51 q 114 10 149 7 q 75 60 79 14 q 142 133 104 93 q 228 219 181 172 q 359 346 297 288 q 478 454 421 404 q 478 439 478 447 q 476 425 478 432 m 75 97 q 103 191 81 140 q 156 292 125 242 q 224 386 188 342 q 294 461 260 431 q 347 477 322 472 q 411 488 371 482 q 447 488 432 490 q 469 475 461 486 q 211 229 357 376 q 135 151 169 188 q 74 85 101 115 q 75 97 74 93 z "},"":{"ha":850,"x_min":4,"x_max":843,"o":"m 836 204 q 835 220 843 217 q 822 214 828 224 q 778 169 807 185 q 713 152 749 153 q 635 169 676 151 q 551 225 593 186 q 497 292 524 251 q 446 382 469 333 q 405 483 422 431 q 381 583 388 535 q 451 635 414 608 q 525 685 489 661 q 593 729 561 708 q 647 763 625 750 q 656 772 654 765 q 656 785 658 779 q 648 794 654 792 q 632 792 642 797 q 573 756 606 776 q 505 712 540 735 q 435 665 469 689 q 372 619 401 640 q 365 660 368 636 q 359 710 361 685 q 356 759 357 735 q 357 800 356 783 q 349 822 357 817 q 331 824 342 826 q 313 812 321 821 q 303 793 304 803 q 300 751 300 776 q 303 698 300 726 q 310 640 306 669 q 322 582 315 610 q 235 506 282 549 q 144 420 188 463 q 66 338 100 378 q 18 271 32 299 q 13 217 4 242 q 31 189 21 193 q 49 186 42 186 q 63 186 56 186 q 72 193 72 186 q 60 203 72 201 q 35 213 49 203 q 28 238 24 219 q 44 271 33 257 q 112 349 72 308 q 192 429 151 390 q 270 499 233 468 q 331 546 307 529 q 407 358 358 450 q 529 203 456 267 q 601 157 560 176 q 686 133 643 138 q 769 144 729 129 q 836 204 808 160 z "},"":{"ha":850,"x_min":86,"x_max":778,"o":"m 472 58 q 472 74 472 63 q 469 96 471 85 q 466 117 468 107 q 460 131 464 128 q 449 133 457 135 q 430 126 440 131 q 411 117 419 122 q 400 107 403 111 q 397 93 397 103 q 399 72 397 83 q 403 49 400 60 q 408 35 406 39 q 423 32 413 31 q 444 38 433 33 q 464 48 456 42 q 472 58 472 54 m 778 53 q 777 68 778 57 q 775 91 776 79 q 772 113 774 103 q 765 125 769 122 q 754 128 763 129 q 735 122 746 126 q 717 113 725 118 q 706 103 708 107 q 703 89 703 99 q 704 67 703 79 q 708 45 706 56 q 714 31 711 35 q 728 28 718 26 q 750 33 739 29 q 769 43 761 38 q 778 53 778 49 m 158 58 q 158 74 158 63 q 157 96 158 85 q 154 117 156 107 q 150 131 153 128 q 137 133 146 135 q 118 126 128 131 q 100 117 108 122 q 89 107 92 111 q 86 93 86 103 q 88 72 86 83 q 92 49 89 60 q 97 35 94 39 q 111 32 101 31 q 131 38 121 33 q 150 48 142 42 q 158 58 158 54 z "},"":{"ha":382,"x_min":28,"x_max":360,"o":"m 214 -82 q 356 88 331 18 q 351 133 360 100 q 332 167 343 164 q 296 150 322 169 q 276 122 269 131 q 292 69 293 86 q 201 -67 285 -10 q 197 -76 197 -74 q 206 -86 197 -86 q 214 -82 211 -86 m 44 -82 q 186 88 161 18 q 182 133 190 100 q 163 167 174 164 q 126 150 153 169 q 107 122 100 131 q 122 69 124 86 q 32 -67 115 -10 q 28 -76 28 -74 q 36 -86 28 -86 q 44 -82 42 -86 z "},"":{"ha":219,"x_min":25,"x_max":188,"o":"m 42 -81 q 183 89 158 19 q 179 135 188 101 q 158 168 168 167 q 124 151 149 171 q 104 124 97 132 q 116 94 111 107 q 119 71 121 82 q 29 -65 111 -10 q 25 -75 25 -72 q 33 -85 25 -85 q 42 -81 38 -85 z "},"":{"ha":157,"x_min":42,"x_max":114,"o":"m 114 58 q 114 74 114 63 q 113 96 114 85 q 110 117 111 107 q 106 131 108 128 q 92 133 101 135 q 74 126 83 131 q 56 117 64 122 q 44 107 47 111 q 42 93 42 103 q 44 72 43 83 q 48 49 46 60 q 53 35 50 39 q 67 32 57 31 q 87 38 76 33 q 106 48 97 42 q 114 58 114 54 z "},"\u001d":{"ha":547,"x_min":32,"x_max":613,"o":"m 599 926 q 601 961 613 946 q 569 976 589 976 q 524 958 532 976 q 517 917 517 939 q 506 886 517 903 q 403 721 465 818 q 274 515 340 624 l 164 471 q 129 451 139 461 q 122 432 119 440 q 151 431 126 422 q 201 452 176 442 q 249 474 225 463 q 164 326 204 400 q 94 187 124 253 q 48 65 64 121 q 36 -31 32 8 q 71 -92 43 -76 q 118 -104 99 -107 q 133 -100 128 -101 q 142 -97 138 -99 q 153 -91 147 -94 q 171 -81 160 -87 q 200 -51 207 -61 q 161 -58 193 -40 q 91 -70 117 -81 q 71 -17 65 -60 q 97 91 75 31 q 152 219 118 151 q 228 358 186 286 q 317 501 271 429 q 347 513 338 510 q 358 517 356 517 q 360 519 360 518 q 367 522 361 519 q 387 530 372 524 q 432 549 401 536 q 463 581 471 565 q 432 581 460 593 l 344 544 l 346 546 q 486 755 418 656 q 599 926 554 854 z "},"+":{"ha":581,"x_min":17,"x_max":574,"o":"m 547 368 q 565 378 557 369 q 560 404 574 388 q 535 428 553 415 q 508 442 517 440 q 500 439 501 442 q 506 433 499 436 q 529 415 519 428 q 536 403 536 408 q 531 395 536 399 q 520 390 526 392 q 508 388 514 388 q 415 373 467 376 q 306 369 363 369 q 381 491 342 432 q 454 594 421 550 q 475 615 461 604 q 500 631 489 626 q 501 635 503 632 q 492 638 499 639 q 476 632 486 636 q 456 623 467 628 q 438 613 446 618 q 428 604 429 607 q 361 507 401 569 q 281 369 321 444 q 168 375 222 371 q 71 386 114 379 q 45 396 60 390 q 21 410 31 401 q 18 408 19 411 q 21 399 17 406 q 32 388 25 394 q 47 375 39 382 q 61 363 54 368 q 72 357 68 357 q 156 350 104 353 q 269 347 207 347 q 209 231 238 289 q 165 125 181 172 q 163 113 164 119 q 163 101 161 106 q 171 94 165 96 q 188 94 176 92 q 221 110 200 97 q 247 131 242 122 q 251 140 253 138 q 244 135 249 142 q 229 128 236 132 q 215 121 222 124 q 201 119 206 117 q 197 127 197 121 q 198 141 196 133 q 203 154 200 149 q 242 247 218 197 q 293 347 265 296 q 430 353 363 349 q 547 368 497 357 z "},"\r":{"ha":319,"x_min":35,"x_max":436,"o":"m 419 181 q 432 196 428 188 q 435 208 436 204 q 429 211 435 213 q 411 197 424 210 q 356 153 392 179 q 278 100 319 126 q 197 53 236 74 q 131 26 157 32 q 102 23 117 24 q 78 31 88 22 q 69 58 68 39 q 86 111 69 76 q 108 157 103 146 q 114 172 113 168 q 117 181 115 176 q 131 208 119 186 q 167 278 142 231 q 240 415 193 326 q 247 456 253 440 q 229 475 242 471 q 203 473 217 479 q 186 450 189 467 q 174 420 185 444 q 146 362 163 396 q 110 287 129 328 q 74 206 90 246 q 46 131 57 167 q 35 74 35 96 q 48 31 35 49 q 78 3 61 14 q 113 -10 96 -7 q 139 -10 131 -12 q 211 29 169 4 q 294 83 253 54 q 369 138 335 111 q 419 181 403 164 z "},"":{"ha":822,"x_min":-111,"x_max":901,"o":"m 886 782 q 900 822 899 799 q 895 867 901 844 q 877 906 889 889 q 850 929 865 922 q 703 965 786 956 q 533 981 619 974 q 526 1007 532 993 q 510 1030 519 1021 q 490 1042 501 1039 q 468 1038 479 1046 q 410 969 436 1014 q 292 962 357 967 q 160 950 226 957 q 28 932 93 943 q -86 906 -36 921 q -103 894 -97 904 q -110 874 -110 885 q -106 856 -111 864 q -87 851 -100 849 q -28 860 -62 857 q 42 862 7 863 q 107 859 76 861 q 154 856 138 857 q 167 862 165 853 q 161 874 168 871 q 154 881 156 876 q 146 888 153 885 q 135 898 132 890 q 147 908 138 906 q 259 924 199 919 q 383 931 319 929 q 318 847 353 896 q 249 743 283 797 q 184 633 215 689 q 128 529 153 576 q 88 519 110 524 q 50 510 67 515 q 31 498 36 506 q 28 482 26 490 q 38 466 31 474 q 56 454 44 458 q 76 444 67 447 q 96 440 85 440 q 58 308 72 378 q 46 171 43 239 q 70 75 50 117 q 122 6 90 33 q 192 -36 153 -22 q 269 -49 231 -50 q 408 -27 339 -49 q 538 26 476 -6 q 652 93 600 57 q 740 161 704 129 q 747 177 750 168 q 733 179 744 186 q 644 126 696 156 q 530 72 592 97 q 400 27 468 46 q 264 7 332 8 q 194 15 226 7 q 140 43 163 24 q 103 96 117 63 q 89 179 89 129 q 110 331 88 256 q 164 472 132 406 q 249 486 197 478 q 360 502 300 494 q 484 515 419 510 q 609 520 549 519 q 722 516 669 521 q 808 497 774 511 q 831 496 825 490 q 835 510 838 501 q 822 528 832 519 q 800 540 813 538 q 664 558 742 554 q 502 558 586 561 q 335 547 418 554 q 188 532 253 540 q 240 623 207 568 q 313 735 274 678 q 394 847 353 793 q 468 935 435 900 q 561 939 513 939 q 659 935 610 939 q 754 922 708 931 q 838 901 800 914 q 861 873 853 893 q 858 829 869 853 q 795 749 831 776 q 717 699 760 721 q 708 681 707 692 q 724 676 708 671 q 824 724 776 694 q 886 782 871 754 m 529 1175 q 486 1216 510 1193 q 439 1263 463 1239 q 393 1308 415 1286 q 354 1347 371 1331 q 336 1353 346 1356 q 319 1343 326 1351 q 311 1324 313 1335 q 318 1307 310 1314 q 363 1273 336 1292 q 417 1235 389 1254 q 472 1196 444 1215 q 519 1161 499 1176 q 531 1162 526 1157 q 529 1175 536 1167 z "},"":{"ha":829,"x_min":-103,"x_max":906,"o":"m 890 749 q 904 788 903 765 q 900 831 906 810 q 882 868 894 851 q 854 890 869 885 q 708 925 790 915 q 539 942 626 935 q 531 967 538 954 q 516 989 525 981 q 496 1000 507 997 q 474 994 485 1003 q 415 931 440 969 q 298 922 363 926 q 167 911 233 918 q 36 894 100 904 q -78 869 -28 883 q -95 858 -89 867 q -102 838 -101 849 q -97 821 -103 828 q -79 815 -92 814 q -19 824 -54 821 q 49 826 15 826 q 114 824 83 826 q 161 821 144 822 q 173 826 171 817 q 167 840 175 836 q 161 845 163 842 q 151 851 160 849 q 142 862 140 854 q 153 872 144 869 q 265 886 204 882 q 389 892 325 890 q 324 812 358 858 q 256 713 289 765 q 191 606 222 660 q 136 506 160 551 q 95 497 117 503 q 58 489 74 492 q 40 477 44 485 q 36 461 35 469 q 44 446 38 453 q 63 435 51 439 q 83 425 74 428 q 104 422 93 422 q 65 294 81 361 q 53 163 50 228 q 77 69 57 110 q 128 3 97 29 q 198 -37 160 -24 q 275 -49 236 -50 q 413 -28 344 -49 q 544 23 482 -7 q 658 88 606 53 q 746 153 710 124 q 752 168 756 160 q 738 169 749 176 q 649 119 701 147 q 536 67 597 92 q 407 24 475 42 q 271 6 339 7 q 201 13 233 6 q 146 40 169 21 q 109 90 122 58 q 96 169 96 122 q 116 317 94 244 q 169 450 138 389 q 254 465 203 457 q 365 480 306 472 q 490 492 425 488 q 615 498 554 497 q 726 494 675 499 q 813 476 778 489 q 835 476 829 471 q 839 489 842 481 q 827 506 836 497 q 806 518 818 515 q 670 533 749 531 q 508 533 592 536 q 342 524 424 531 q 194 508 260 517 q 246 597 213 544 q 319 705 279 650 q 399 812 358 760 q 474 897 440 864 q 567 901 518 901 q 665 896 617 900 q 758 883 713 892 q 842 863 804 875 q 865 837 857 856 q 863 794 874 818 q 799 718 835 746 q 721 671 764 690 q 713 653 711 663 q 729 650 714 643 q 780 670 754 658 q 828 695 806 682 q 867 722 850 708 q 890 749 883 736 m 357 1081 q 417 1102 383 1090 q 483 1125 450 1114 q 545 1146 515 1136 q 597 1163 575 1156 q 610 1176 608 1167 q 609 1195 613 1186 q 598 1210 606 1204 q 581 1213 590 1217 q 532 1188 561 1203 q 471 1156 503 1172 q 407 1123 439 1139 q 350 1096 375 1107 q 344 1083 340 1090 q 357 1081 349 1075 z "},"":{"ha":835,"x_min":-99,"x_max":906,"o":"m 890 754 q 903 793 901 771 q 899 836 906 815 q 881 874 893 857 q 853 897 869 890 q 708 931 790 922 q 540 946 625 939 q 533 972 539 958 q 517 994 526 985 q 496 1007 507 1004 q 474 1001 485 1010 q 417 936 443 976 q 300 928 364 933 q 169 917 236 924 q 40 899 103 910 q -74 874 -24 889 q -91 863 -85 872 q -98 843 -97 853 q -93 826 -99 833 q -75 822 -87 819 q -16 830 -50 828 q 51 832 18 832 q 117 830 86 832 q 165 826 147 828 q 178 832 176 824 q 171 843 179 840 q 165 850 167 846 q 154 857 164 854 q 144 867 142 860 q 156 876 146 874 q 267 892 208 888 q 392 899 326 897 q 326 817 360 865 q 258 717 292 769 q 193 610 224 664 q 138 508 163 556 q 97 501 118 506 q 61 492 76 497 q 42 480 47 488 q 40 464 38 472 q 49 449 42 456 q 65 438 56 442 q 107 425 88 425 q 68 297 83 364 q 57 165 53 229 q 81 71 60 111 q 133 3 101 31 q 202 -37 164 -24 q 278 -49 240 -50 q 414 -28 346 -49 q 544 23 482 -7 q 657 88 606 53 q 746 153 708 124 q 752 170 756 163 q 738 171 749 178 q 649 120 700 149 q 536 67 597 92 q 408 24 475 42 q 274 6 342 7 q 204 13 236 6 q 149 40 172 21 q 113 91 126 60 q 99 171 100 122 q 119 319 97 246 q 174 454 142 392 q 257 467 207 460 q 367 483 307 475 q 490 495 426 490 q 615 501 554 500 q 726 497 675 501 q 813 478 778 492 q 835 478 829 472 q 838 492 840 483 q 826 510 835 500 q 806 522 818 519 q 669 538 747 535 q 508 538 592 540 q 344 528 425 535 q 199 513 263 521 q 249 600 217 547 q 321 708 282 653 q 400 816 360 764 q 474 903 440 868 q 567 907 518 907 q 665 903 617 907 q 758 890 713 899 q 840 869 803 882 q 865 843 856 863 q 861 800 874 824 q 799 722 833 750 q 722 674 764 694 q 715 657 714 667 q 729 654 715 647 q 780 674 754 663 q 828 698 806 685 q 867 726 850 711 q 890 754 883 740 m 468 1181 q 508 1158 475 1182 q 534 1140 521 1150 q 558 1121 547 1131 q 565 1118 563 1117 q 569 1120 568 1119 q 571 1125 571 1121 q 567 1132 571 1128 q 471 1226 478 1224 q 415 1192 468 1229 q 363 1155 383 1168 q 335 1136 343 1142 q 329 1126 329 1131 q 332 1121 329 1121 q 340 1125 336 1121 q 410 1159 379 1144 q 468 1181 442 1174 z "},"":{"ha":831,"x_min":-101,"x_max":906,"o":"m 890 749 q 904 787 903 765 q 900 829 906 808 q 883 867 894 850 q 854 889 871 883 q 708 923 790 914 q 539 939 625 932 q 531 965 538 951 q 516 988 525 979 q 496 999 507 997 q 474 993 485 1001 q 444 965 458 982 q 415 929 429 949 q 298 921 363 925 q 167 910 233 917 q 37 892 100 903 q -76 868 -26 882 q -94 856 -87 865 q -101 837 -100 847 q -96 819 -101 826 q -78 814 -90 811 q -19 822 -53 819 q 50 825 15 825 q 115 824 85 825 q 163 821 146 822 q 175 824 174 815 q 168 838 176 833 q 163 844 164 840 q 153 850 161 847 q 142 860 140 853 q 154 871 144 868 q 267 885 207 881 q 389 890 326 889 q 324 810 358 857 q 257 710 290 763 q 192 605 224 658 q 136 504 161 551 q 96 497 117 501 q 58 488 75 492 q 36 460 31 479 q 63 433 42 442 q 85 423 75 426 q 106 419 94 419 q 66 294 82 360 q 53 164 50 228 q 77 69 57 110 q 128 3 97 29 q 199 -37 160 -24 q 276 -49 238 -50 q 414 -28 346 -49 q 543 22 482 -8 q 656 88 604 53 q 746 151 708 122 q 752 169 756 161 q 738 169 749 176 q 649 119 700 147 q 536 67 597 92 q 408 24 475 42 q 272 4 340 6 q 203 12 235 4 q 147 39 171 19 q 110 90 124 58 q 97 169 97 121 q 117 316 96 244 q 171 450 139 388 q 256 464 204 456 q 367 479 307 472 q 491 492 426 486 q 615 498 556 497 q 727 493 675 499 q 814 475 779 488 q 836 474 831 469 q 839 488 842 479 q 828 506 836 496 q 807 518 819 515 q 670 533 749 531 q 508 533 592 536 q 343 523 425 531 q 197 507 261 515 q 248 594 215 542 q 319 703 281 647 q 399 810 358 758 q 474 897 440 863 q 567 900 518 900 q 665 896 617 900 q 758 883 713 892 q 842 863 804 875 q 865 837 857 856 q 863 794 874 818 q 800 717 835 744 q 722 669 765 689 q 715 651 714 661 q 729 647 715 642 q 828 693 782 665 q 890 749 875 721 m 600 1139 q 599 1154 600 1143 q 597 1177 599 1165 q 594 1199 596 1189 q 589 1213 592 1210 q 577 1215 586 1217 q 558 1209 568 1214 q 538 1199 547 1204 q 528 1189 529 1193 q 525 1174 525 1185 q 526 1152 525 1164 q 530 1129 528 1140 q 535 1114 532 1118 q 550 1111 539 1110 q 572 1117 561 1113 q 592 1128 583 1122 q 600 1139 600 1135 m 458 1140 q 458 1156 458 1144 q 456 1179 457 1167 q 452 1202 454 1192 q 447 1215 450 1213 q 435 1217 443 1219 q 417 1211 426 1215 q 398 1201 407 1207 q 386 1190 389 1194 q 384 1176 383 1186 q 386 1153 385 1165 q 390 1131 388 1142 q 396 1115 393 1119 q 409 1113 399 1111 q 431 1119 419 1114 q 450 1130 442 1124 q 458 1140 458 1136 z "},"":{"ha":469,"x_min":11,"x_max":644,"o":"m 638 410 q 639 424 644 421 q 626 415 633 426 q 582 383 611 400 q 522 363 553 365 q 469 357 500 358 q 403 355 439 356 q 329 354 368 354 q 254 354 292 354 q 376 395 322 365 q 449 468 429 425 q 460 517 461 489 q 447 566 458 544 q 415 599 435 588 q 368 600 394 610 q 260 527 321 579 q 147 403 200 475 q 55 249 93 332 q 13 82 17 165 q 25 25 11 51 q 60 -21 39 -1 q 105 -51 81 -40 q 150 -57 129 -61 q 201 -42 175 -53 q 252 -17 228 -31 q 297 13 276 -3 q 333 40 318 28 q 339 53 344 47 q 322 50 333 58 q 281 26 304 38 q 234 4 258 14 q 185 -13 210 -6 q 138 -24 160 -21 q 103 -22 119 -25 q 73 -6 86 -18 q 52 27 60 6 q 46 82 44 49 q 58 153 47 118 q 84 219 69 188 q 116 278 99 250 q 149 331 133 307 q 244 331 190 331 q 354 331 300 331 q 453 333 408 332 q 522 339 499 335 q 594 369 563 346 q 638 410 625 393 m 415 481 q 371 430 399 453 q 309 390 343 407 q 238 364 275 374 q 164 354 200 354 q 261 463 210 411 q 365 549 313 515 q 400 561 385 561 q 425 551 417 561 q 432 524 433 542 q 415 481 431 506 m 465 689 q 424 727 447 706 q 378 771 401 749 q 332 814 354 793 q 294 850 310 835 q 276 854 286 857 q 260 844 267 851 q 251 826 253 836 q 258 811 250 817 q 302 780 276 797 q 355 744 328 763 q 409 708 382 726 q 457 676 436 690 q 468 677 463 672 q 465 689 474 682 z "},"":{"ha":469,"x_min":11,"x_max":644,"o":"m 638 410 q 639 424 644 421 q 626 415 633 426 q 582 383 611 400 q 522 363 553 365 q 469 357 500 358 q 403 355 439 356 q 329 354 368 354 q 254 354 292 354 q 376 395 322 365 q 449 468 429 425 q 460 517 461 489 q 447 566 458 544 q 415 599 435 588 q 368 600 394 610 q 260 527 321 579 q 147 403 200 475 q 55 249 93 332 q 13 82 17 165 q 25 25 11 51 q 60 -21 39 -1 q 105 -51 81 -40 q 150 -57 129 -61 q 201 -42 175 -53 q 252 -17 228 -31 q 297 13 276 -3 q 333 40 318 28 q 339 53 344 47 q 322 50 333 58 q 281 26 304 38 q 234 4 258 14 q 185 -13 210 -6 q 138 -24 160 -21 q 103 -22 119 -25 q 73 -6 86 -18 q 52 27 60 6 q 46 82 44 49 q 58 153 47 118 q 84 219 69 188 q 116 278 99 250 q 149 331 133 307 q 244 331 190 331 q 354 331 300 331 q 453 333 408 332 q 522 339 499 335 q 594 369 563 346 q 638 410 625 393 m 415 481 q 371 430 399 453 q 309 390 343 407 q 238 364 275 374 q 164 354 200 354 q 261 463 210 411 q 365 549 313 515 q 400 561 385 561 q 425 551 417 561 q 432 524 433 542 q 415 481 431 506 m 415 676 q 466 712 438 693 q 524 749 494 731 q 578 785 553 768 q 624 814 604 801 q 631 829 632 819 q 624 847 631 839 q 609 860 618 856 q 593 858 600 864 q 553 823 576 844 q 503 778 529 801 q 451 731 476 754 q 404 690 425 707 q 403 677 397 683 q 415 676 408 671 z "},"":{"ha":469,"x_min":11,"x_max":644,"o":"m 638 410 q 639 424 644 421 q 626 415 633 426 q 582 383 611 400 q 522 363 553 365 q 469 357 500 358 q 403 355 439 356 q 329 354 368 354 q 254 354 292 354 q 376 395 322 365 q 449 468 429 425 q 460 517 461 489 q 447 566 458 544 q 415 599 435 588 q 368 600 394 610 q 260 527 321 579 q 147 403 200 475 q 55 249 93 332 q 13 82 17 165 q 25 25 11 51 q 60 -21 39 -1 q 105 -51 81 -40 q 150 -57 129 -61 q 201 -42 175 -53 q 252 -17 228 -31 q 297 13 276 -3 q 333 40 318 28 q 339 53 344 47 q 322 50 333 58 q 281 26 304 38 q 234 4 258 14 q 185 -13 210 -6 q 138 -24 160 -21 q 103 -22 119 -25 q 73 -6 86 -18 q 52 27 60 6 q 46 82 44 49 q 58 153 47 118 q 84 219 69 188 q 116 278 99 250 q 149 331 133 307 q 244 331 190 331 q 354 331 300 331 q 453 333 408 332 q 522 339 499 335 q 594 369 563 346 q 638 410 625 393 m 415 481 q 371 430 399 453 q 309 390 343 407 q 238 364 275 374 q 164 354 200 354 q 261 463 210 411 q 365 549 313 515 q 400 561 385 561 q 425 551 417 561 q 432 524 433 542 q 415 481 431 506 m 365 740 q 407 719 372 743 q 431 703 418 711 q 454 685 443 694 q 461 682 458 681 q 468 688 468 685 q 463 696 468 688 q 368 785 375 781 q 314 751 365 786 q 261 717 282 729 q 232 700 240 704 q 228 689 228 693 q 239 688 228 681 q 365 740 315 728 z "},"":{"ha":469,"x_min":11,"x_max":644,"o":"m 638 410 q 639 424 644 421 q 626 415 633 426 q 582 383 611 400 q 522 363 553 365 q 469 357 500 358 q 403 355 439 356 q 329 354 368 354 q 254 354 292 354 q 376 395 322 365 q 449 468 429 425 q 460 517 461 489 q 447 566 458 544 q 415 599 435 588 q 368 600 394 610 q 260 527 321 579 q 147 403 200 475 q 55 249 93 332 q 13 82 17 165 q 25 25 11 51 q 60 -21 39 -1 q 105 -51 81 -40 q 150 -57 129 -61 q 201 -42 175 -53 q 252 -17 228 -31 q 297 13 276 -3 q 333 40 318 28 q 339 53 344 47 q 322 50 333 58 q 281 26 304 38 q 234 4 258 14 q 185 -13 210 -6 q 138 -24 160 -21 q 103 -22 119 -25 q 73 -6 86 -18 q 52 27 60 6 q 46 82 44 49 q 58 153 47 118 q 84 219 69 188 q 116 278 99 250 q 149 331 133 307 q 244 331 190 331 q 354 331 300 331 q 453 333 408 332 q 522 339 499 335 q 594 369 563 346 q 638 410 625 393 m 415 481 q 371 430 399 453 q 309 390 343 407 q 238 364 275 374 q 164 354 200 354 q 261 463 210 411 q 365 549 313 515 q 400 561 385 561 q 425 551 417 561 q 432 524 433 542 q 415 481 431 506 m 475 735 q 474 750 475 739 q 472 772 474 761 q 469 794 471 783 q 463 807 467 804 q 451 809 460 811 q 433 803 443 807 q 414 793 422 799 q 403 783 406 788 q 400 769 400 781 q 401 749 400 760 q 406 727 403 738 q 411 713 408 717 q 426 710 415 708 q 448 715 438 711 q 467 725 458 719 q 475 735 475 731 m 335 736 q 334 751 335 740 q 333 774 333 763 q 330 795 332 785 q 325 808 328 806 q 313 811 321 813 q 294 805 304 810 q 276 794 285 800 q 264 785 267 789 q 262 772 261 782 q 264 750 263 761 q 268 728 265 739 q 274 714 271 718 q 288 711 278 710 q 308 717 297 713 q 326 726 318 721 q 335 736 335 732 z "},"":{"ha":333,"x_min":18,"x_max":419,"o":"m 403 181 q 415 196 411 188 q 419 208 419 204 q 413 211 418 213 q 394 197 407 210 q 339 153 375 179 q 261 100 303 126 q 179 53 219 74 q 113 26 139 32 q 86 23 100 24 q 63 30 72 22 q 54 56 54 38 q 71 111 54 75 q 113 195 89 153 q 163 277 136 238 q 214 350 189 317 q 258 407 239 383 q 272 443 276 429 q 253 463 267 457 q 223 463 239 468 q 204 442 207 458 q 189 412 203 435 q 155 356 175 389 q 110 283 135 322 q 66 204 86 243 q 32 131 46 165 q 18 74 18 96 q 31 31 18 49 q 62 3 44 14 q 97 -10 79 -7 q 122 -10 114 -12 q 194 29 153 4 q 276 83 235 54 q 351 138 317 111 q 403 181 386 164 m 361 551 q 291 619 328 581 q 224 693 254 658 q 204 701 215 703 q 185 692 193 700 q 177 674 178 685 q 189 654 176 663 q 232 621 210 638 q 275 588 254 604 q 315 558 296 572 q 347 533 333 544 q 370 529 365 519 q 361 551 375 539 z "},"":{"ha":342,"x_min":18,"x_max":451,"o":"m 403 181 q 415 196 411 188 q 419 208 419 204 q 413 211 418 213 q 394 197 407 210 q 339 153 375 179 q 261 100 303 126 q 179 53 219 74 q 113 26 139 32 q 86 23 100 24 q 63 30 72 22 q 54 56 54 38 q 71 111 54 75 q 113 195 89 153 q 163 277 136 238 q 214 350 189 317 q 258 407 239 383 q 272 443 276 429 q 253 463 267 457 q 223 463 239 468 q 204 442 207 458 q 189 412 203 435 q 155 356 175 389 q 110 283 135 322 q 66 204 86 243 q 32 131 46 165 q 18 74 18 96 q 31 31 18 49 q 62 3 44 14 q 97 -10 79 -7 q 122 -10 114 -12 q 194 29 153 4 q 276 83 235 54 q 351 138 317 111 q 403 181 386 164 m 433 643 q 449 658 447 649 q 447 676 451 668 q 431 688 442 685 q 410 683 421 692 q 368 653 392 669 q 320 619 344 636 q 272 588 296 603 q 231 561 249 572 q 217 542 214 553 q 240 543 219 532 q 278 563 256 551 q 328 589 301 575 q 383 617 356 603 q 433 643 410 631 z "},"":{"ha":333,"x_min":18,"x_max":432,"o":"m 403 181 q 415 196 411 188 q 419 208 419 204 q 413 211 418 213 q 394 197 407 210 q 339 153 375 179 q 261 100 303 126 q 179 53 219 74 q 113 26 139 32 q 86 23 100 24 q 63 30 72 22 q 54 56 54 38 q 71 111 54 75 q 113 195 89 153 q 163 277 136 238 q 214 350 189 317 q 258 407 239 383 q 272 443 276 429 q 253 463 267 457 q 223 463 239 468 q 204 442 207 458 q 189 412 203 435 q 155 356 175 389 q 110 283 135 322 q 66 204 86 243 q 32 131 46 165 q 18 74 18 96 q 31 31 18 49 q 62 3 44 14 q 97 -10 79 -7 q 122 -10 114 -12 q 194 29 153 4 q 276 83 235 54 q 351 138 317 111 q 403 181 386 164 m 424 558 q 392 610 408 582 q 357 663 375 638 q 334 674 350 672 q 304 667 318 675 q 270 645 293 660 q 221 614 247 631 q 169 581 194 597 q 128 554 144 565 q 119 535 114 546 q 140 536 124 525 q 176 556 154 546 q 222 578 197 567 q 272 599 246 589 q 319 621 297 610 q 323 622 321 621 q 332 619 325 622 q 368 587 346 608 q 407 546 390 565 q 426 535 419 531 q 424 558 432 540 z "},"":{"ha":333,"x_min":18,"x_max":419,"o":"m 403 181 q 415 196 411 188 q 419 208 419 204 q 413 211 418 213 q 394 197 407 210 q 339 153 375 179 q 261 100 303 126 q 179 53 219 74 q 113 26 139 32 q 86 23 100 24 q 63 30 72 22 q 54 56 54 38 q 71 111 54 75 q 113 195 89 153 q 163 277 136 238 q 214 350 189 317 q 258 407 239 383 q 272 443 276 429 q 253 463 267 457 q 223 463 239 468 q 204 442 207 458 q 189 412 203 435 q 155 356 175 389 q 110 283 135 322 q 66 204 86 243 q 32 131 46 165 q 18 74 18 96 q 31 31 18 49 q 62 3 44 14 q 97 -10 79 -7 q 122 -10 114 -12 q 194 29 153 4 q 276 83 235 54 q 351 138 317 111 q 403 181 386 164 m 364 568 q 363 583 364 572 q 361 606 363 594 q 358 627 360 617 q 351 640 356 638 q 340 643 349 644 q 322 637 332 642 q 303 626 311 632 q 292 617 294 621 q 289 603 289 614 q 290 582 289 593 q 294 560 292 571 q 300 546 297 550 q 315 543 304 542 q 336 549 325 544 q 356 558 347 553 q 364 568 364 564 m 224 569 q 223 585 224 574 q 222 608 222 596 q 219 629 221 619 q 214 642 217 639 q 201 644 210 646 q 182 639 192 643 q 164 629 172 635 q 153 619 156 624 q 151 606 150 615 q 153 584 151 596 q 157 562 154 572 q 163 547 160 551 q 176 544 165 543 q 197 550 186 546 q 215 560 207 554 q 224 569 224 565 z "},"":{"ha":515,"x_min":26,"x_max":615,"o":"m 89 -24 q 374 135 211 -6 q 498 266 457 206 q 543 379 539 326 q 542 386 543 382 q 539 394 540 390 q 539 403 536 399 q 594 419 551 419 q 615 428 615 419 q 594 433 615 431 q 491 436 536 435 q 414 439 446 438 q 409 442 411 440 q 404 444 407 443 q 342 469 364 471 q 281 439 311 468 q 265 433 271 433 q 213 432 264 433 q 176 424 181 431 q 172 413 172 417 q 185 395 172 404 q 210 379 197 386 q 213 367 218 376 q 26 26 29 142 q 33 6 26 15 q 48 -11 39 -4 q 68 -22 57 -18 q 89 -24 79 -25 m 69 50 q 299 379 150 242 q 322 392 319 393 q 376 405 347 401 q 439 404 406 408 q 492 356 501 397 q 332 131 471 254 q 106 -6 200 10 q 61 19 61 -14 q 69 50 61 35 m 508 546 q 467 584 490 563 q 421 628 444 606 q 375 670 397 650 q 338 706 353 690 q 319 710 329 713 q 303 700 310 707 q 294 683 296 693 q 301 668 293 674 q 345 637 319 654 q 398 601 371 619 q 452 565 425 582 q 500 533 479 547 q 511 534 506 529 q 508 546 517 539 z "},"":{"ha":515,"x_min":26,"x_max":615,"o":"m 89 -24 q 374 135 211 -6 q 498 266 457 206 q 543 379 539 326 q 542 386 543 382 q 539 394 540 390 q 539 403 536 399 q 594 419 551 419 q 615 428 615 419 q 594 433 615 431 q 491 436 536 435 q 414 439 446 438 q 409 442 411 440 q 404 444 407 443 q 342 469 364 471 q 281 439 311 468 q 265 433 271 433 q 213 432 264 433 q 176 424 181 431 q 172 413 172 417 q 185 395 172 404 q 210 379 197 386 q 213 367 218 376 q 26 26 29 142 q 33 6 26 15 q 48 -11 39 -4 q 68 -22 57 -18 q 89 -24 79 -25 m 69 50 q 299 379 150 242 q 322 392 319 393 q 376 405 347 401 q 439 404 406 408 q 492 356 501 397 q 332 131 471 254 q 106 -6 200 10 q 61 19 61 -14 q 69 50 61 35 m 311 571 q 362 606 333 588 q 419 644 390 625 q 474 679 449 663 q 519 708 500 696 q 528 724 529 714 q 520 742 526 733 q 505 754 514 750 q 489 753 496 758 q 449 717 472 739 q 399 672 425 696 q 347 625 372 649 q 301 585 321 601 q 299 572 293 578 q 311 571 304 565 z "},"":{"ha":515,"x_min":26,"x_max":615,"o":"m 89 -24 q 374 135 211 -6 q 498 266 457 206 q 543 379 539 326 q 542 386 543 382 q 539 394 540 390 q 539 403 536 399 q 594 419 551 419 q 615 428 615 419 q 594 433 615 431 q 491 436 536 435 q 414 439 446 438 q 409 442 411 440 q 404 444 407 443 q 342 469 364 471 q 281 439 311 468 q 265 433 271 433 q 213 432 264 433 q 176 424 181 431 q 172 413 172 417 q 185 395 172 404 q 210 379 197 386 q 213 367 218 376 q 26 26 29 142 q 33 6 26 15 q 48 -11 39 -4 q 68 -22 57 -18 q 89 -24 79 -25 m 69 50 q 299 379 150 242 q 322 392 319 393 q 376 405 347 401 q 439 404 406 408 q 492 356 501 397 q 332 131 471 254 q 106 -6 200 10 q 61 19 61 -14 q 69 50 61 35 m 425 621 q 465 599 432 622 q 490 583 476 592 q 514 564 503 574 q 521 561 518 560 q 528 567 528 564 q 522 575 528 567 q 454 641 478 619 q 428 665 431 663 q 372 631 426 667 q 320 596 340 608 q 292 579 300 583 q 288 574 289 576 q 288 568 288 572 q 299 567 288 560 q 425 621 372 606 z "},"":{"ha":515,"x_min":26,"x_max":615,"o":"m 89 -24 q 374 135 211 -6 q 498 266 457 206 q 543 379 539 326 q 542 386 543 382 q 539 394 540 390 q 539 403 536 399 q 594 419 551 419 q 615 428 615 419 q 594 433 615 431 q 491 436 536 435 q 414 439 446 438 q 409 442 411 440 q 404 444 407 443 q 342 469 364 471 q 281 439 311 468 q 265 433 271 433 q 213 432 264 433 q 176 424 181 431 q 172 413 172 417 q 185 395 172 404 q 210 379 197 386 q 213 367 218 376 q 26 26 29 142 q 33 6 26 15 q 48 -11 39 -4 q 68 -22 57 -18 q 89 -24 79 -25 m 69 50 q 299 379 150 242 q 322 392 319 393 q 376 405 347 401 q 439 404 406 408 q 492 356 501 397 q 332 131 471 254 q 106 -6 200 10 q 61 19 61 -14 q 69 50 61 35 m 265 607 q 302 627 281 618 q 347 636 324 636 q 381 628 361 636 q 421 613 400 621 q 461 597 442 604 q 494 589 481 589 q 542 608 519 589 q 578 642 564 628 q 584 660 589 656 q 565 653 579 664 q 539 634 551 639 q 494 629 526 629 q 460 637 481 629 q 419 653 440 644 q 379 669 399 661 q 347 676 360 676 q 324 670 336 676 q 299 655 311 664 q 276 636 286 646 q 258 619 265 626 q 249 600 247 606 q 265 607 250 594 z "},"":{"ha":515,"x_min":26,"x_max":615,"o":"m 89 -24 q 374 135 211 -6 q 498 266 457 206 q 543 379 539 326 q 542 386 543 382 q 539 394 540 390 q 539 403 536 399 q 594 419 551 419 q 615 428 615 419 q 594 433 615 431 q 491 436 536 435 q 414 439 446 438 q 409 442 411 440 q 404 444 407 443 q 342 469 364 471 q 281 439 311 468 q 265 433 271 433 q 213 432 264 433 q 176 424 181 431 q 172 413 172 417 q 185 395 172 404 q 210 379 197 386 q 213 367 218 376 q 26 26 29 142 q 33 6 26 15 q 48 -11 39 -4 q 68 -22 57 -18 q 89 -24 79 -25 m 69 50 q 299 379 150 242 q 322 392 319 393 q 376 405 347 401 q 439 404 406 408 q 492 356 501 397 q 332 131 471 254 q 106 -6 200 10 q 61 19 61 -14 q 69 50 61 35 m 522 585 q 522 600 522 589 q 519 623 521 611 q 516 644 518 635 q 510 657 514 654 q 499 660 507 661 q 480 654 490 658 q 461 644 469 650 q 450 635 453 639 q 447 621 447 631 q 449 599 447 611 q 453 577 451 588 q 458 563 456 567 q 474 560 463 558 q 495 565 485 561 q 514 575 506 569 q 522 585 522 581 m 382 586 q 381 601 382 590 q 380 624 381 613 q 377 646 379 636 q 372 658 375 656 q 360 661 368 663 q 342 656 351 660 q 323 646 332 651 q 311 636 314 640 q 309 622 308 632 q 311 601 310 613 q 315 578 313 589 q 321 564 318 568 q 335 561 325 560 q 355 567 344 563 q 374 576 365 571 q 382 586 382 582 z "},"":{"ha":617,"x_min":17,"x_max":611,"o":"m 303 381 q 449 389 375 383 q 578 410 522 394 q 601 426 590 415 q 599 458 611 436 q 576 484 592 469 q 549 500 560 499 q 546 490 531 506 q 558 481 553 486 q 568 472 564 475 q 574 458 575 464 q 567 447 572 451 q 554 440 563 443 q 539 435 546 436 q 421 414 488 418 q 286 411 354 410 l 260 413 q 158 420 207 415 q 71 432 110 425 q 44 441 60 435 q 22 458 29 447 q 19 458 21 461 q 19 446 17 456 q 29 433 22 440 q 44 417 36 425 q 59 402 51 408 q 71 394 67 396 q 158 385 103 389 q 281 381 214 382 l 303 381 m 329 550 q 314 549 325 550 q 290 547 303 549 q 268 541 278 544 q 256 533 258 538 q 253 517 251 529 q 260 492 256 506 q 269 468 264 479 q 278 454 274 457 q 292 450 282 450 q 315 452 303 450 q 337 458 326 454 q 351 464 347 461 q 354 484 356 469 q 349 513 353 499 q 339 539 344 528 q 329 550 333 550 m 335 335 q 319 334 331 335 q 297 333 308 333 q 274 329 285 332 q 261 322 264 326 q 258 305 257 317 q 265 281 260 293 q 275 257 269 268 q 285 242 281 246 q 299 239 289 239 q 321 241 310 239 q 342 247 332 243 q 356 254 353 250 q 359 272 360 258 q 354 299 358 285 q 344 324 350 313 q 335 335 339 335 z "},"":{"ha":653,"x_min":13,"x_max":788,"o":"m 779 -86 q 782 -71 788 -75 q 767 -76 776 -67 q 726 -117 750 -96 q 676 -156 703 -137 q 622 -190 650 -175 q 571 -212 594 -204 q 490 -211 522 -228 q 454 -167 458 -194 q 454 -68 447 -122 q 477 44 461 -14 q 517 159 493 101 q 565 269 540 217 q 613 366 589 322 q 656 439 638 410 q 660 458 661 446 q 654 481 660 471 q 639 494 649 492 q 615 486 629 497 q 513 388 574 449 q 386 264 453 328 q 253 142 319 200 q 132 51 186 85 q 78 44 94 28 q 79 121 63 60 q 117 213 89 158 q 178 327 144 268 q 248 442 213 386 q 310 536 283 497 q 321 561 321 553 q 315 572 321 569 q 301 570 310 574 q 285 558 292 567 q 241 503 267 538 q 186 426 215 468 q 127 335 157 383 q 74 240 97 286 q 34 150 50 193 q 15 74 18 107 q 43 10 13 28 q 132 21 74 -8 q 219 81 168 40 q 324 169 271 122 q 425 263 376 217 q 503 338 474 308 q 523 351 515 350 q 535 348 531 353 q 539 333 539 343 q 535 315 539 325 q 513 269 528 300 q 483 197 499 238 q 451 108 467 156 q 424 12 435 61 q 413 -85 414 -37 q 425 -172 413 -132 q 448 -204 431 -189 q 488 -230 465 -219 q 534 -245 510 -240 q 579 -243 558 -250 q 635 -219 606 -236 q 690 -179 664 -201 q 740 -132 717 -157 q 779 -86 763 -107 m 556 647 q 487 716 524 676 q 418 790 450 756 q 399 798 410 800 q 381 789 389 796 q 373 771 374 782 q 385 750 372 760 q 428 717 406 733 q 471 684 450 700 q 510 654 492 668 q 543 629 529 640 q 566 625 561 615 q 556 647 571 635 z "},"":{"ha":653,"x_min":13,"x_max":788,"o":"m 779 -86 q 782 -71 788 -75 q 767 -76 776 -67 q 726 -117 750 -96 q 676 -156 703 -137 q 622 -190 650 -175 q 571 -212 594 -204 q 490 -211 522 -228 q 454 -167 458 -194 q 454 -68 447 -122 q 477 44 461 -14 q 517 159 493 101 q 565 269 540 217 q 613 366 589 322 q 656 439 638 410 q 660 458 661 446 q 654 481 660 471 q 639 494 649 492 q 615 486 629 497 q 513 388 574 449 q 386 264 453 328 q 253 142 319 200 q 132 51 186 85 q 78 44 94 28 q 79 121 63 60 q 117 213 89 158 q 178 327 144 268 q 248 442 213 386 q 310 536 283 497 q 321 561 321 553 q 315 572 321 569 q 301 570 310 574 q 285 558 292 567 q 241 503 267 538 q 186 426 215 468 q 127 335 157 383 q 74 240 97 286 q 34 150 50 193 q 15 74 18 107 q 43 10 13 28 q 132 21 74 -8 q 219 81 168 40 q 324 169 271 122 q 425 263 376 217 q 503 338 474 308 q 523 351 515 350 q 535 348 531 353 q 539 333 539 343 q 535 315 539 325 q 513 269 528 300 q 483 197 499 238 q 451 108 467 156 q 424 12 435 61 q 413 -85 414 -37 q 425 -172 413 -132 q 448 -204 431 -189 q 488 -230 465 -219 q 534 -245 510 -240 q 579 -243 558 -250 q 635 -219 606 -236 q 690 -179 664 -201 q 740 -132 717 -157 q 779 -86 763 -107 m 650 682 q 665 697 663 688 q 662 715 667 707 q 647 726 657 724 q 625 721 636 729 q 583 690 607 707 q 535 657 560 674 q 488 625 511 640 q 446 599 464 610 q 432 581 429 592 q 456 581 435 569 q 494 601 471 589 q 544 627 518 613 q 599 656 571 642 q 650 682 626 669 z "},"":{"ha":653,"x_min":13,"x_max":788,"o":"m 779 -86 q 782 -71 788 -75 q 767 -76 776 -67 q 726 -117 750 -96 q 676 -156 703 -137 q 622 -190 650 -175 q 571 -212 594 -204 q 490 -211 522 -228 q 454 -167 458 -194 q 454 -68 447 -122 q 477 44 461 -14 q 517 159 493 101 q 565 269 540 217 q 613 366 589 322 q 656 439 638 410 q 660 458 661 446 q 654 481 660 471 q 639 494 649 492 q 615 486 629 497 q 513 388 574 449 q 386 264 453 328 q 253 142 319 200 q 132 51 186 85 q 78 44 94 28 q 79 121 63 60 q 117 213 89 158 q 178 327 144 268 q 248 442 213 386 q 310 536 283 497 q 321 561 321 553 q 315 572 321 569 q 301 570 310 574 q 285 558 292 567 q 241 503 267 538 q 186 426 215 468 q 127 335 157 383 q 74 240 97 286 q 34 150 50 193 q 15 74 18 107 q 43 10 13 28 q 132 21 74 -8 q 219 81 168 40 q 324 169 271 122 q 425 263 376 217 q 503 338 474 308 q 523 351 515 350 q 535 348 531 353 q 539 333 539 343 q 535 315 539 325 q 513 269 528 300 q 483 197 499 238 q 451 108 467 156 q 424 12 435 61 q 413 -85 414 -37 q 425 -172 413 -132 q 448 -204 431 -189 q 488 -230 465 -219 q 534 -245 510 -240 q 579 -243 558 -250 q 635 -219 606 -236 q 690 -179 664 -201 q 740 -132 717 -157 q 779 -86 763 -107 m 696 646 q 664 698 681 669 q 629 751 647 726 q 606 763 622 761 q 576 754 590 764 q 542 733 565 747 q 493 703 519 719 q 442 670 467 686 q 400 643 417 654 q 390 624 386 633 q 413 625 394 614 q 447 645 426 635 q 493 667 468 656 q 544 688 518 678 q 592 708 569 699 q 595 710 593 708 q 604 707 597 711 q 640 675 618 696 q 678 635 663 654 q 698 624 692 619 q 696 646 704 629 z "},"":{"ha":653,"x_min":13,"x_max":788,"o":"m 779 -86 q 782 -71 788 -75 q 767 -76 776 -67 q 726 -117 750 -96 q 676 -156 703 -137 q 622 -190 650 -175 q 571 -212 594 -204 q 490 -211 522 -228 q 454 -167 458 -194 q 454 -68 447 -122 q 477 44 461 -14 q 517 159 493 101 q 565 269 540 217 q 613 366 589 322 q 656 439 638 410 q 660 458 661 446 q 654 481 660 471 q 639 494 649 492 q 615 486 629 497 q 513 388 574 449 q 386 264 453 328 q 253 142 319 200 q 132 51 186 85 q 78 44 94 28 q 79 121 63 60 q 117 213 89 158 q 178 327 144 268 q 248 442 213 386 q 310 536 283 497 q 321 561 321 553 q 315 572 321 569 q 301 570 310 574 q 285 558 292 567 q 241 503 267 538 q 186 426 215 468 q 127 335 157 383 q 74 240 97 286 q 34 150 50 193 q 15 74 18 107 q 43 10 13 28 q 132 21 74 -8 q 219 81 168 40 q 324 169 271 122 q 425 263 376 217 q 503 338 474 308 q 523 351 515 350 q 535 348 531 353 q 539 333 539 343 q 535 315 539 325 q 513 269 528 300 q 483 197 499 238 q 451 108 467 156 q 424 12 435 61 q 413 -85 414 -37 q 425 -172 413 -132 q 448 -204 431 -189 q 488 -230 465 -219 q 534 -245 510 -240 q 579 -243 558 -250 q 635 -219 606 -236 q 690 -179 664 -201 q 740 -132 717 -157 q 779 -86 763 -107 m 615 668 q 615 683 615 672 q 613 706 614 694 q 609 726 611 717 q 604 739 607 736 q 592 742 601 743 q 574 736 583 740 q 555 726 564 732 q 544 717 546 721 q 542 703 542 713 q 543 681 542 693 q 547 659 544 669 q 551 644 549 649 q 567 642 556 640 q 588 647 578 643 q 607 658 599 651 q 615 668 615 664 m 475 669 q 474 685 475 674 q 473 707 474 696 q 470 728 472 718 q 465 740 468 738 q 453 743 461 744 q 435 738 444 742 q 416 728 425 733 q 404 718 407 722 q 402 704 401 714 q 404 683 403 694 q 408 660 406 671 q 414 646 411 650 q 428 643 418 642 q 448 649 438 644 q 467 659 458 653 q 475 669 475 665 z "},"\u001f":{"ha":596,"x_min":0,"x_max":594,"o":"m 582 469 q 593 488 592 476 q 590 510 594 500 q 576 526 585 521 q 556 528 567 532 q 547 519 551 525 q 535 508 542 514 q 483 502 517 504 q 411 498 449 500 q 339 495 374 496 q 288 494 304 494 q 275 504 278 494 q 263 510 272 514 q 219 497 242 506 q 181 485 196 489 q 172 469 169 479 q 182 451 174 460 q 200 435 190 442 q 217 429 210 428 q 270 434 238 431 q 338 442 303 438 q 406 452 374 447 q 461 460 439 457 q 487 455 481 467 q 478 432 493 443 q 419 384 454 414 q 343 318 383 354 q 261 242 303 282 q 185 167 219 203 q 125 103 150 132 q 92 58 100 74 q 80 47 89 53 q 59 35 71 42 q 35 20 47 28 q 18 4 24 13 q 16 -34 0 -24 q 64 -25 32 -44 q 132 12 93 -4 q 212 39 171 28 q 290 56 253 50 q 354 63 328 63 q 385 62 371 65 q 409 52 399 58 q 426 38 419 46 q 433 22 432 29 q 440 8 435 14 q 449 1 444 3 q 455 5 453 0 q 454 25 457 10 q 434 67 449 44 q 396 101 419 89 q 344 113 375 111 q 278 112 313 115 q 212 99 244 108 q 157 78 179 90 q 137 75 144 71 q 147 94 129 79 q 233 177 176 126 q 355 283 290 228 q 481 388 419 338 q 582 469 542 438 m 383 667 q 349 693 375 665 q 327 716 338 704 q 304 743 317 728 q 296 747 300 749 q 292 739 292 744 q 294 725 292 736 q 358 635 338 665 q 381 604 378 606 q 429 653 382 601 q 477 698 460 681 q 501 721 494 715 q 506 736 506 726 q 494 739 506 749 q 434 694 463 713 q 383 667 406 675 z "},"":{"ha":1039,"x_min":0,"x_max":1024,"o":"m 626 860 q 616 872 625 865 q 596 884 607 878 q 573 895 585 890 q 554 901 561 900 q 543 902 546 903 q 533 897 540 901 q 433 915 492 907 q 311 922 375 922 q 184 911 247 922 q 69 872 121 900 q 16 822 32 851 q 7 763 0 792 q 44 700 17 724 q 52 699 50 697 q 50 703 54 700 q 31 725 42 711 q 19 763 21 739 q 30 810 17 788 q 76 851 43 832 q 164 880 114 871 q 263 892 214 889 q 355 892 313 894 q 419 885 397 889 q 410 858 418 875 q 394 825 401 840 q 352 760 379 803 q 296 669 325 718 q 242 569 267 619 q 210 481 218 518 q 206 475 206 481 q 203 446 203 460 q 211 422 204 432 q 219 410 213 411 q 272 392 235 390 q 350 419 310 394 q 426 478 388 442 q 506 558 465 514 q 588 654 547 603 q 667 760 628 706 q 648 694 658 731 q 629 620 638 657 q 615 552 621 583 q 611 503 610 521 q 638 467 614 479 q 689 475 661 454 q 749 530 719 497 q 805 599 778 563 q 858 674 832 636 q 906 744 883 711 q 880 674 893 711 q 856 601 867 638 q 838 532 844 565 q 831 472 831 499 q 841 430 828 447 q 874 410 854 413 q 904 417 893 407 q 906 424 907 421 q 901 424 904 426 q 878 419 893 417 q 856 439 861 422 q 853 478 850 456 q 867 551 856 510 q 894 635 879 592 q 928 724 910 679 q 965 806 947 768 q 1001 858 985 831 q 1021 904 1018 885 q 1013 922 1024 915 q 994 921 1001 928 q 963 874 978 906 q 932 808 947 842 q 908 767 924 793 q 869 712 892 742 q 822 649 847 682 q 772 586 797 617 q 724 531 747 556 q 682 490 700 506 q 646 477 656 471 q 639 507 636 483 q 649 584 640 542 q 669 670 657 626 q 693 755 681 714 q 717 825 706 796 q 736 856 728 836 q 744 893 744 876 q 734 908 744 904 q 717 901 724 913 q 703 872 710 890 q 690 836 696 854 q 623 737 665 796 q 531 618 581 678 q 431 507 482 558 q 339 431 381 456 q 232 413 269 389 q 229 417 236 417 q 220 433 221 421 q 219 454 219 446 q 251 540 228 492 q 306 640 275 589 q 369 738 336 690 q 425 822 401 786 q 440 854 432 839 q 442 881 449 869 q 538 867 486 878 q 617 838 589 856 q 628 841 624 829 q 626 860 632 853 z "},"":{"ha":210,"x_min":32,"x_max":179,"o":"m 101 44 q 110 13 99 22 q 136 3 122 3 q 165 12 151 3 q 178 36 178 21 q 178 188 179 93 q 173 394 178 283 q 160 620 168 506 q 142 831 153 735 q 128 865 139 868 q 121 825 118 861 q 129 701 128 771 q 129 556 131 631 q 124 403 128 481 q 116 258 121 326 q 107 134 111 190 q 101 44 103 78 m 111 1018 q 101 1049 113 1039 q 75 1058 90 1058 q 48 1050 61 1058 q 35 1025 35 1042 q 33 873 32 968 q 40 667 35 778 q 52 442 44 557 q 71 231 60 326 q 84 197 74 194 q 92 236 94 200 q 83 360 85 290 q 83 506 82 431 q 88 659 85 582 q 97 804 92 736 q 105 928 101 872 q 111 1018 108 985 z "},"":{"ha":581,"x_min":18,"x_max":579,"o":"m 553 472 q 571 483 563 474 q 565 508 579 492 q 540 532 558 519 q 515 546 522 544 q 506 543 507 546 q 513 538 506 540 q 535 519 526 531 q 542 507 542 513 q 538 499 542 503 q 527 494 533 496 q 515 492 521 492 q 420 477 472 481 q 311 474 368 474 q 388 595 349 536 q 460 699 426 654 q 481 719 468 708 q 506 735 494 731 q 507 740 508 736 q 499 740 506 743 q 483 735 493 739 q 463 726 474 732 q 444 716 453 721 q 433 707 436 711 q 367 610 407 672 q 288 474 328 547 q 175 479 229 475 q 76 490 121 483 q 51 499 65 493 q 28 514 38 506 q 24 513 26 515 q 28 503 22 510 q 38 492 31 499 q 53 479 44 486 q 68 467 61 472 q 78 461 75 461 q 162 453 110 457 q 275 450 214 450 q 215 334 243 392 q 171 229 188 276 q 169 217 169 224 q 170 204 168 210 q 178 197 172 199 q 194 199 183 194 q 227 214 207 201 q 254 233 247 226 q 257 243 258 240 q 250 239 256 246 q 221 225 232 229 q 207 223 211 221 q 203 231 203 225 q 205 245 203 238 q 210 258 207 253 q 300 450 240 347 q 437 457 369 453 q 553 472 504 461 m 44 101 q 154 101 89 101 q 288 101 221 101 q 415 102 356 101 q 507 103 475 103 q 549 122 549 103 q 519 133 549 133 l 71 133 q 18 111 18 133 q 44 101 18 101 z "},"=":{"ha":640,"x_min":28,"x_max":611,"o":"m 53 244 q 163 244 97 244 q 296 244 229 244 q 424 245 364 244 q 517 246 485 246 q 558 265 558 246 q 529 276 558 276 l 79 276 q 28 256 28 276 q 53 244 28 244 m 107 385 q 217 385 151 385 q 350 385 283 385 q 478 385 418 385 q 569 386 538 386 q 611 407 611 386 q 582 417 611 417 l 133 417 q 81 396 81 417 q 107 385 81 385 z "},"|":{"ha":161,"x_min":32,"x_max":132,"o":"m 131 1029 q 120 1061 132 1051 q 93 1071 108 1071 q 67 1063 79 1071 q 53 1038 54 1054 q 51 953 51 1003 q 52 842 51 903 q 56 714 53 782 q 63 576 58 646 q 58 419 61 499 q 49 267 54 339 q 40 136 44 194 q 33 43 36 78 q 43 11 32 21 q 68 1 54 1 q 97 10 83 1 q 110 35 110 18 q 110 228 113 106 q 110 235 111 231 q 110 246 110 240 q 106 367 108 304 q 101 494 104 429 q 106 653 103 572 q 115 805 110 733 q 124 935 119 876 q 131 1029 128 994 z "},"":{"ha":1021,"x_min":47,"x_max":1128,"o":"m 1126 924 q 1127 926 1126 925 q 1128 931 1128 928 q 1113 957 1128 944 q 1085 969 1099 969 l 1081 969 q 1056 956 1065 967 q 1038 929 1047 944 q 1031 917 1032 918 q 913 765 981 851 q 768 587 844 679 q 612 401 692 494 q 457 228 532 308 q 316 88 382 149 q 203 -1 250 26 q 132 -28 163 -28 q 85 36 85 -28 q 86 59 85 47 q 90 83 88 71 q 135 228 103 147 q 211 397 168 310 q 305 572 254 483 q 405 738 356 660 q 497 881 454 817 q 568 986 539 946 q 575 1004 575 997 q 564 1022 575 1015 q 538 1028 553 1028 q 513 1023 526 1028 q 493 1006 500 1018 q 417 886 461 958 q 324 728 372 814 q 226 549 275 643 q 139 366 178 456 q 75 197 100 276 q 47 60 50 118 l 47 56 q 58 15 47 35 q 86 -21 69 -6 q 123 -46 103 -36 q 163 -56 143 -56 q 188 -51 176 -56 q 295 26 232 -29 q 431 154 358 81 q 578 312 503 228 q 721 478 653 396 q 846 635 789 561 q 936 758 903 708 q 971 788 954 788 q 988 767 988 788 q 979 735 988 753 l 978 735 q 897 572 942 667 q 812 379 851 476 q 746 194 772 282 q 719 53 719 107 q 720 45 719 49 q 721 38 721 42 q 728 15 722 28 q 741 -11 733 1 q 758 -32 749 -24 q 775 -40 767 -40 l 778 -40 q 819 7 819 -7 q 815 8 819 8 q 799 4 807 8 q 767 -8 775 -8 q 749 15 749 -8 q 750 38 749 26 q 754 64 751 49 q 756 72 756 68 q 757 81 756 76 q 783 185 763 124 q 832 317 803 246 q 897 465 861 388 q 970 617 933 542 q 1043 761 1007 692 q 1107 886 1079 831 q 1117 906 1113 897 q 1126 924 1122 915 m 929 1151 q 872 1206 904 1175 q 810 1264 840 1236 q 782 1290 794 1278 q 758 1311 769 1301 l 757 1311 q 749 1315 753 1315 q 732 1308 739 1315 q 725 1293 725 1301 q 735 1281 725 1290 q 789 1242 758 1263 q 853 1200 819 1222 q 893 1174 874 1186 q 928 1150 913 1161 l 929 1150 q 928 1151 928 1150 l 929 1151 m 931 1150 l 929 1150 q 929 1149 929 1149 q 931 1150 931 1149 z "},"":{"ha":1021,"x_min":47,"x_max":1128,"o":"m 1126 924 q 1127 926 1126 925 q 1128 931 1128 928 q 1113 957 1128 944 q 1085 969 1099 969 l 1081 969 q 1056 956 1065 967 q 1038 929 1047 944 q 1031 917 1032 918 q 913 765 981 851 q 768 587 844 679 q 612 401 692 494 q 457 228 532 308 q 316 88 382 149 q 203 -1 250 26 q 132 -28 163 -28 q 85 36 85 -28 q 86 59 85 47 q 90 83 88 71 q 135 228 103 147 q 211 397 168 310 q 305 572 254 483 q 405 738 356 660 q 497 881 454 817 q 568 986 539 946 q 575 1004 575 997 q 564 1022 575 1015 q 538 1028 553 1028 q 513 1023 526 1028 q 493 1006 500 1018 q 417 886 461 958 q 324 728 372 814 q 226 549 275 643 q 139 366 178 456 q 75 197 100 276 q 47 60 50 118 l 47 56 q 58 15 47 35 q 86 -21 69 -6 q 123 -46 103 -36 q 163 -56 143 -56 q 188 -51 176 -56 q 295 26 232 -29 q 431 154 358 81 q 578 312 503 228 q 721 478 653 396 q 846 635 789 561 q 936 758 903 708 q 971 788 954 788 q 988 767 988 788 q 979 735 988 753 l 978 735 q 897 572 942 667 q 812 379 851 476 q 746 194 772 282 q 719 53 719 107 q 720 45 719 49 q 721 38 721 42 q 728 15 722 28 q 741 -11 733 1 q 758 -32 749 -24 q 775 -40 767 -40 l 778 -40 q 819 7 819 -7 q 815 8 819 8 q 799 4 807 8 q 767 -8 775 -8 q 749 15 749 -8 q 750 38 749 26 q 754 64 751 49 q 756 72 756 68 q 757 81 756 76 q 783 185 763 124 q 832 317 803 246 q 897 465 861 388 q 970 617 933 542 q 1043 761 1007 692 q 1107 886 1079 831 q 1117 906 1113 897 q 1126 924 1122 915 m 779 1154 q 838 1175 806 1164 q 902 1197 869 1186 q 965 1217 935 1207 q 1015 1233 994 1226 l 1017 1233 q 1025 1246 1025 1235 q 1019 1263 1025 1256 q 1007 1271 1014 1271 l 1004 1269 q 966 1251 989 1263 q 918 1228 943 1240 q 844 1189 882 1208 q 778 1157 807 1169 q 775 1156 776 1156 q 775 1156 775 1156 q 778 1153 775 1153 q 780 1153 779 1153 q 782 1154 781 1154 l 779 1154 z "},"":{"ha":1021,"x_min":47,"x_max":1128,"o":"m 1126 924 q 1127 926 1126 925 q 1128 931 1128 928 q 1113 957 1128 944 q 1085 969 1099 969 l 1081 969 q 1056 956 1065 967 q 1038 929 1047 944 q 1031 917 1032 918 q 913 765 981 851 q 768 587 844 679 q 612 401 692 494 q 457 228 532 308 q 316 88 382 149 q 203 -1 250 26 q 132 -28 163 -28 q 85 36 85 -28 q 86 59 85 47 q 90 83 88 71 q 135 228 103 147 q 211 397 168 310 q 305 572 254 483 q 405 738 356 660 q 497 881 454 817 q 568 986 539 946 q 575 1004 575 997 q 564 1022 575 1015 q 538 1028 553 1028 q 513 1023 526 1028 q 493 1006 500 1018 q 417 886 461 958 q 324 728 372 814 q 226 549 275 643 q 139 366 178 456 q 75 197 100 276 q 47 60 50 118 l 47 56 q 58 15 47 35 q 86 -21 69 -6 q 123 -46 103 -36 q 163 -56 143 -56 q 188 -51 176 -56 q 295 26 232 -29 q 431 154 358 81 q 578 312 503 228 q 721 478 653 396 q 846 635 789 561 q 936 758 903 708 q 971 788 954 788 q 988 767 988 788 q 979 735 988 753 l 978 735 q 897 572 942 667 q 812 379 851 476 q 746 194 772 282 q 719 53 719 107 q 720 45 719 49 q 721 38 721 42 q 728 15 722 28 q 741 -11 733 1 q 758 -32 749 -24 q 775 -40 767 -40 l 778 -40 q 819 7 819 -7 q 815 8 819 8 q 799 4 807 8 q 767 -8 775 -8 q 749 15 749 -8 q 750 38 749 26 q 754 64 751 49 q 756 72 756 68 q 757 81 756 76 q 783 185 763 124 q 832 317 803 246 q 897 465 861 388 q 970 617 933 542 q 1043 761 1007 692 q 1107 886 1079 831 q 1117 906 1113 897 q 1126 924 1122 915 m 858 1189 l 863 1189 q 906 1167 878 1189 q 913 1162 908 1164 q 919 1157 917 1160 l 947 1136 q 885 1197 907 1176 q 860 1219 863 1218 l 857 1221 q 813 1188 857 1218 q 763 1155 781 1165 q 738 1140 744 1144 l 733 1136 q 858 1189 813 1178 m 953 1131 l 951 1129 l 954 1129 q 954 1128 954 1128 q 956 1129 956 1128 l 956 1131 l 954 1132 l 953 1132 l 947 1136 q 953 1131 949 1132 m 733 1136 q 731 1135 732 1135 q 731 1135 731 1135 q 726 1133 729 1133 q 729 1131 729 1133 l 729 1132 l 733 1136 z "}}}
